<svg id="Layer_9" data-name="Layer 9" xmlns="http://www.w3.org/2000/svg" viewBox="0 0 252.75 495.64"><defs><style>.cls-1{fill:#d1d1d1;}.cls-2{fill:#1d1d1b;}.cls-3{fill:#565153;}.cls-4{fill:#8000ff;}.cls-5{fill:#fc0;}.cls-6{fill:#ff6700;}.cls-7{fill:#c7a209;}.cls-8{fill:#efe9fa;}.cls-9{fill:#a8acad;}.cls-10{fill:none;stroke:#1d1d1b;stroke-miterlimit:10;stroke-width:3px;}</style></defs><title>antony</title><path class="cls-1" d="M278.54,508a33.11,33.11,0,0,1,12.19,8.39c-19.65,9.6-42.43,12.74-64.56,16.28A1329.24,1329.24,0,0,0,84.62,563.3a303.48,303.48,0,0,1,38.58-59.64,475,475,0,0,0,96.46-2.72c4-.53,8.16-1.09,12,0,2.79.8,5.14,2.41,7.75,3.54,12.31,5.36,28.2-.38,40.72,4.61" transform="translate(-39.22 -158.45)"/><path class="cls-2" d="M277.91,509.11a35.59,35.59,0,0,1,11.94,8.2l.25-2c-15.28,7.3-31.88,10.82-48.48,13.62-17.35,2.92-34.73,5.59-52,8.84q-53.11,10-105.3,24.29l1.41,1.84a304.79,304.79,0,0,1,28.59-46.87c2.42-3.26,6.52-11.16,10.83-12,2.24-.44,5.42.35,7.71.47q3.87.21,7.72.35,15,.56,30,.16t29.93-1.73q7.7-.69,15.38-1.63c4.58-.56,9.36-1.63,14-.79,4.35.79,7.94,3.59,12.16,4.85a42.8,42.8,0,0,0,11.21,1.47c9,.22,18-1,26.61,2.08,1.51.55,2.16-1.86.66-2.41-13.57-4.92-28.77,1.08-42-5.21-6.67-3.17-11.32-3.91-18.81-3-8.31,1-16.64,1.95-25,2.59a476.8,476.8,0,0,1-49.29,1.25c-4.18-.12-8.37-.28-12.55-.51-2.56-.13-7.8-1.52-10.11-.5s-4.62,5.47-6,7.3q-3.12,4-6.13,8.14a304.94,304.94,0,0,0-27,44.71A1.26,1.26,0,0,0,85,564.5Q138,550,192.16,539.86c17.25-3.23,34.59-5.83,51.88-8.79,16.24-2.79,32.38-6.43,47.32-13.57a1.26,1.26,0,0,0,.26-2A37.24,37.24,0,0,0,279.17,507c-1.46-.63-2.73,1.52-1.26,2.16Z" transform="translate(-39.22 -158.45)"/><path class="cls-2" d="M134.27,504.49c-6.35,4.68-9.72,14.38-12.68,21.41a136.69,136.69,0,0,0-8.47,28.92c-.14.79,1.07,1.12,1.21.33a136.81,136.81,0,0,1,6.79-24.73,131.82,131.82,0,0,1,5.69-12.8c2.11-4.14,4.27-9.24,8.09-12.05.65-.47,0-1.56-.63-1.08Z" transform="translate(-39.22 -158.45)"/><path class="cls-3" d="M131.11,412.37a840.63,840.63,0,0,0,25,110.85c3.13,10.54,6.74,21.45,14.56,29.17,6.28,6.2,16.76,9.64,23.9,4.45,6.33-4.6,7.19-13.56,7.28-21.38a475.44,475.44,0,0,0-5.57-78.61c-1.71-11-2-25.42,8.25-29.67-5.45,1.83-4.22,9.86-1.75,15.06A291.05,291.05,0,0,0,243.13,505c3.52,4.19,7.36,8.42,12.44,10.44s11.75,1.12,14.77-3.45c2.58-3.9,1.81-9,.82-13.62A271.94,271.94,0,0,0,225,395.57a14.76,14.76,0,0,0-4.33-4.43c-2.06-1.16-4.53-1.3-6.89-1.38a265,265,0,0,0-59.76,4.74c-5.36,1-10.84,2.32-15.29,5.48s-7.64,8.67-6.56,14" transform="translate(-39.22 -158.45)"/><path class="cls-2" d="M129.91,412.7q5.52,35.24,13.92,69.93,4.33,17.79,9.44,35.38c2.6,9,5.08,18.22,9.77,26.36,4.08,7.09,10.1,13.42,18.25,15.56,6.38,1.67,13.14.16,17.22-5.27,5.05-6.71,4.61-16.2,4.63-24.14q0-18.24-1.34-36.45c-1-13.33-2.93-26.47-4.63-39.72-1.14-9-1.67-21.58,8-26.09,1.46-.69.19-2.81-1.26-2.16-8.7,3.88-2.73,15.81.13,21.58a291.65,291.65,0,0,0,21.77,36.76c6.82,9.81,14.16,21.28,23.58,28.76,6.53,5.18,18.43,7.23,22.78-1.9,2-4.14,1.09-8.94.21-13.24-1.52-7.4-3.51-14.74-5.72-22A273.78,273.78,0,0,0,252.74,440a270.59,270.59,0,0,0-20.61-36.45c-2.75-4.1-5.54-9.51-9.53-12.57-4.89-3.74-12.76-2.61-18.48-2.6a266.62,266.62,0,0,0-48.5,4.58C144.73,395,129.08,399.77,131,414c.21,1.57,2.71,1.59,2.5,0-1.86-14.18,15.33-17.34,25.69-19.17A262.71,262.71,0,0,1,195.4,391c5.49-.19,11-.23,16.47-.07,3.85.11,7.42.08,10.33,3,2.23,2.27,4,5.29,5.8,7.9a270.91,270.91,0,0,1,16.34,26.84,270.7,270.7,0,0,1,23.42,60.65c1.24,4.86,3,10.25,3.06,15.29,0,7.6-5.8,11.94-13.09,10.15-5.28-1.29-9.22-5.48-12.65-9.43-4.19-4.8-8.13-9.86-11.92-15a290.07,290.07,0,0,1-19.44-29.84q-4.4-7.74-8.32-15.75c-2.09-4.29-6.75-13.66-.24-16.56l-1.26-2.16c-13.29,6.21-9.77,24.41-8.1,36a471.77,471.77,0,0,1,4.83,69.45c0,8.85.39,22.48-10,26-10.07,3.38-19.75-5.16-24.64-13-5.12-8.23-7.63-17.87-10.31-27.1q-4.56-15.74-8.52-31.63Q138.1,449.22,132.32,412c-.25-1.59-2.66-.91-2.41.66Z" transform="translate(-39.22 -158.45)"/><path class="cls-2" d="M145.13,397.65c5.21-1.95,5.83,15.11,6,17.8.36,5.66.4,11.34,1,17,.55,5.24,2,10.24,2.86,15.41.31,2,.8,4.42.28,6.37-.71,2.67-2.65,3.84-5.11,5-2.93,1.37-6.15,2.3-9.17,3.44-1.49.56-.85,3,.66,2.41,4-1.51,8.65-2.63,12.41-4.7a6.31,6.31,0,0,0,3.49-4.18c2.2-7.47-2.29-17.22-3-24.64-.82-8.4-.5-16.89-1.86-25.24-.79-4.81-1.35-13.64-8.21-11.07-1.49.56-.84,3,.67,2.41Z" transform="translate(-39.22 -158.45)"/><path class="cls-2" d="M220.13,390.18c-4.48,2.42-6.31,3.13-4.08,8,3,6.71,6.24,13.36,9.55,19.95q2.37,4.72,4.83,9.41c1.46,2.79,2.68,6.37,4.86,8.66,3.1,3.24,10.18,1.45,14.08,1.32,1.6-.05,1.61-2.55,0-2.5-2.47.08-5.08.42-7.54.25-3.61-.25-4.87-.83-6.53-3.89-2.3-4.22-4.5-8.5-6.67-12.79s-4.3-8.61-6.36-13a67.68,67.68,0,0,1-3.26-7,6,6,0,0,1-.89-4.6l3.28-1.77c1.41-.76.15-2.92-1.27-2.16Z" transform="translate(-39.22 -158.45)"/><path class="cls-2" d="M160.4,532.53c9.37-3,14.31,7.21,17.86,13.85a39.13,39.13,0,0,0,11.47,13.44c1.3,1,2.55-1.21,1.26-2.16a35.8,35.8,0,0,1-10.17-11.78c-2-3.55-3.56-7.35-6.19-10.47-3.71-4.4-9.2-7.15-14.9-5.29-1.52.49-.87,2.91.67,2.41Z" transform="translate(-39.22 -158.45)"/><path class="cls-2" d="M267.06,485.77a23.13,23.13,0,0,0-4.55,11.93c-.42,5.57,3.09,12.56-1.57,17-1.17,1.12.6,2.88,1.77,1.77,3.17-3,3.37-6.88,2.9-11-.8-6.92-.65-12.53,3.61-18.41.95-1.3-1.22-2.55-2.16-1.26Z" transform="translate(-39.22 -158.45)"/><path class="cls-2" d="M195.57,552.47a33.92,33.92,0,0,1-11-11.84c-2.08-3.69-3.84-7.6-7-10.54a21.14,21.14,0,0,0-19.23-4.94c-1.57.35-.9,2.76.67,2.41,9.94-2.22,17.3,3.13,21.88,11.55,3.45,6.37,7.27,11.46,13.37,15.52,1.34.9,2.6-1.27,1.26-2.16Z" transform="translate(-39.22 -158.45)"/><path class="cls-2" d="M265,479c-3.3,3.8-8,7.7-8.93,12.9-.5,2.86.13,5.8.42,8.65a22.19,22.19,0,0,1-2.28,12.88c-.72,1.43,1.43,2.7,2.16,1.26,2.61-5.16,3.11-10,2.44-15.7-.42-3.55-.9-7.12,1.17-10.29,1.85-2.84,4.56-5.37,6.79-7.93,1.05-1.21-.71-3-1.77-1.77Z" transform="translate(-39.22 -158.45)"/><path class="cls-1" d="M207.05,539.22a33.13,33.13,0,0,1,14.21,4.13c-15.62,15.3-36.25,25.46-56.14,35.8A1329.58,1329.58,0,0,0,40.44,652.81a303.35,303.35,0,0,1,17.81-68.76,474.5,474.5,0,0,0,90.69-33c3.62-1.75,7.39-3.6,11.35-3.77,2.9-.12,5.63.66,8.47.92,13.37,1.2,26.65-9.26,40.1-8.47" transform="translate(-39.22 -158.45)"/><path class="cls-2" d="M207.05,540.47a34.47,34.47,0,0,1,13.58,4l-.25-2c-12.3,11.85-27.06,20.47-42.07,28.42-15.29,8.09-30.67,16-45.8,24.37Q85,621.57,39.81,651.73l1.84,1.41a305.7,305.7,0,0,1,13.89-58.06,53.65,53.65,0,0,1,2.56-7.14c1.56-3,2.67-3.23,5.87-4.08q6.28-1.67,12.53-3.5,14.27-4.2,28.26-9.29Q118,566.26,131,560.64q6-2.58,11.87-5.32c4.65-2.16,9.42-5.14,14.43-6.32s9.64.68,14.57.53A43.06,43.06,0,0,0,183,547.41c8.56-2.62,16.74-6.68,25.9-6.43a1.25,1.25,0,0,0,0-2.5c-14-.38-26.13,9.61-40.1,8.47-3.45-.29-6.66-1.22-10.15-.75a30.94,30.94,0,0,0-8.74,3c-7.27,3.39-14.49,6.85-21.86,10a472.08,472.08,0,0,1-45.95,16.85q-5.78,1.78-11.58,3.43c-3.73,1-8.12,1.58-11.66,3.12-2.26,1-2.15,2-3.13,4.66-1.43,3.84-2.79,7.72-4.07,11.61a305.85,305.85,0,0,0-12.39,53.59c-.13,1,.83,2.08,1.84,1.41q46-30.63,94.37-57.41c15.6-8.62,31.5-16.64,47.19-25.07,14.13-7.6,27.9-16,39.52-27.18a1.26,1.26,0,0,0-.26-2,38.16,38.16,0,0,0-14.84-4.3c-1.6-.14-1.59,2.36,0,2.5Z" transform="translate(-39.22 -158.45)"/><path class="cls-2" d="M69,581.45c-4.55,6.43-4.69,17.1-5.25,24.72a137,137,0,0,0,1.14,29.74c.11.79,1.32.46,1.2-.33a136,136,0,0,1-1.22-27.5A130.91,130.91,0,0,1,66.42,594c.68-4,1.2-8.51,3.61-11.91.47-.66-.62-1.29-1.08-.63Z" transform="translate(-39.22 -158.45)"/><path class="cls-2" d="M152.5,553.91c-3.1.57-4.55,4.32-3.36,7.07,1.45,3.37,6.05,3.58,8.75,1.69,2.85-2,3.71-6.85.79-9.21-2.38-1.92-6.6-.65-7.05,2.51-.11.78,1.09,1.12,1.2.33.39-2.75,4.24-3.34,5.73-1.14s.36,5.64-2,6.86c-2.17,1.11-5.54.79-6.4-1.86a3.87,3.87,0,0,1,2.67-5c.79-.15.46-1.35-.33-1.21Z" transform="translate(-39.22 -158.45)"/><path class="cls-2" d="M154,557.76a1.7,1.7,0,0,0,1.78,2,1.76,1.76,0,0,0,1.37-2.35,2.11,2.11,0,0,0-1.95-1.33,2,2,0,0,0-2,1.25c-.3.75.91,1.07,1.21.34.2-.49,1.05-.4,1.38-.13a.61.61,0,0,1,.18.74.39.39,0,0,1-.74-.22c.11-.79-1.1-1.13-1.21-.33Z" transform="translate(-39.22 -158.45)"/><path class="cls-2" d="M159.73,560.4c4.5,1.87,8.61.3,13.12-.82a20.17,20.17,0,0,1,19.1,4.65c.59.54,1.48-.34.88-.89a21.41,21.41,0,0,0-12.77-5.74c-6.74-.55-13.51,4.29-20,1.59-.74-.31-1.06.9-.33,1.21Z" transform="translate(-39.22 -158.45)"/><path class="cls-4" d="M115.05,250.64c-7.6-.86-15.22,2.74-20.69,8.08S85.25,271,82.19,278c-8.83,20.31-13.54,43.28-8,64.74S97,383.5,119,386.49c3.11.42,6.38.5,9.27-.7,6.16-2.55,8.66-9.82,10-16.34A151.85,151.85,0,0,0,113,250.83" transform="translate(-39.22 -158.45)"/><path d="M115.05,249.39c-25-1.81-36.18,29.32-41.15,48.77-5.71,22.36-4.72,47.12,9,66.42a57.71,57.71,0,0,0,22.1,19c7.35,3.46,18.71,7.15,26.13,2,7.69-5.31,8.84-17.14,10-25.53a150.38,150.38,0,0,0,.64-36.35,153.78,153.78,0,0,0-27.7-73.53c-.92-1.3-3.09,0-2.16,1.26,24,33.63,34.43,78.4,24.83,119-1,4.26-2.42,8.89-5.69,12-4.66,4.42-11.64,3.27-17.29,1.76a50.74,50.74,0,0,1-23.52-14.52c-14.44-15.31-19-36.5-16.6-57a121.55,121.55,0,0,1,11.64-38.47c5.73-11.78,15.34-23.33,29.72-22.29,1.61.11,1.6-2.39,0-2.5Z" transform="translate(-39.22 -158.45)"/><path class="cls-5" d="M197.62,260.82l7.88,21.25c3.15,8.51,6.34,17.09,11.26,24.65,11.6,17.81,31.27,27.88,50.15,37,5,2.43,10.45,5.18,13,10.3,2.94,6,.85,13.55-3.36,18.71s-10.15,8.4-15.94,11.54c-7.38,4-16,8.07-23.69,4.76-7-3-10.42-11.15-13.11-18.51-9-24.54-18-49.19-23.28-74.85-1.9-9.16-3.22-19.16.88-27.55" transform="translate(-39.22 -158.45)"/><path d="M196.41,261.15c6.78,18.29,12,39.05,25.2,54,12,13.61,28.61,21.83,44.67,29.65,3.65,1.78,7.56,3.61,10.33,6.68,4.65,5.15,4,12.44.6,18.08-2.85,4.75-7.53,8.05-12.21,10.81-4.93,2.9-10.19,6-15.69,7.58-12.4,3.65-19.25-4.66-23.35-15.14-3.93-10.07-7.47-20.33-11-30.55-4-11.77-7.74-23.65-10.74-35.72s-7.11-25.9-1.8-37.79c.65-1.45-1.5-2.73-2.16-1.26-4.37,9.79-2.78,20.25-.61,30.39a365.24,365.24,0,0,0,10.17,36.88c4,12.12,8.28,24.13,12.72,36.09,2.75,7.41,6.12,16.1,14,19.39,9.35,3.9,19.57-2,27.56-6.48,8.15-4.58,16.46-10.64,18.12-20.5,1.57-9.35-4.45-15.38-12.14-19.37-9.31-4.82-18.84-9.07-27.7-14.73-11.12-7.1-20.93-16-27.29-27.69-7-12.8-11.21-27.32-16.27-40.95-.55-1.5-3-.85-2.41.66Z" transform="translate(-39.22 -158.45)"/><path class="cls-4" d="M204.39,259.11c2.58,2.65,2.94,6.75,2.51,10.43s-1.5,7.32-1.22,11c.22,2.94,1.3,5.73,2.16,8.54a32,32,0,0,1,1.68,11.81,16.28,16.28,0,0,1-4.8,10.7c-2.3-14.54-8.68-28.68-7.38-43.34a10.23,10.23,0,0,1,1.22-4.56,4.15,4.15,0,0,1,4-2.09" transform="translate(-39.22 -158.45)"/><path d="M203.5,260c5.38,6.57-.3,16.62,1.58,24.36,2.2,9,6.35,18.52-1.25,26.36l2.09.55c-.95-5.6-14-48.16-3.38-48.4a1.25,1.25,0,0,0,0-2.5c-8.59.2-6.83,13.33-6.17,18.81,1.35,11.12,5.27,21.73,7.14,32.76a1.26,1.26,0,0,0,2.09.55c6.91-7.14,5.6-16.67,2.91-25.41a25.82,25.82,0,0,1-1.28-11.7c.3-2.18.81-4.33,1-6.53.31-4-.4-7.51-2.94-10.62-1-1.24-2.78.53-1.77,1.77Z" transform="translate(-39.22 -158.45)"/><path class="cls-5" d="M241.65,403.25A6.72,6.72,0,0,1,240,397.3c4.73-25-16.55-38.39-27.27-57.86-10.4-18.9-8.63-39.93-8.06-60.65-.23-1.1-.45-2.19-.65-3.3a75.59,75.59,0,0,1-4.22-12.41l.93,1.93c.65-4.62-2.89-9-7.15-10.9s-9.1-1.86-13.77-1.79l-56.43.79a6.86,6.86,0,0,0-3.45.66,6.52,6.52,0,0,0-2.25,3.09,71,71,0,0,0-3.28,48.51c2,6.83,5,13.38,6.29,20.4,1.82,10.25-.38,20.76-4.34,30.47a6,6,0,0,1,3.46,5.81c0,2.84-.31,5.66-.63,8.47,2.54,8.18,6.77,15.79,10.19,23.76,1.57,3.65.75,7.37-2.53,9.27,1.71.55,3.42,1.05,5.09,1.5,20.49,5.56,41.24,11.17,62.47,11.5,16.5.26,33.51-3,47.68-11.17A5.11,5.11,0,0,1,241.65,403.25Z" transform="translate(-39.22 -158.45)"/><path d="M242.73,402.62c-2.45-3.22-1-6.76-.83-10.4a35.55,35.55,0,0,0-.33-7.07,41.73,41.73,0,0,0-4.93-14c-5.19-9.45-12.85-17.23-18.92-26.08-8.3-12.1-11.6-25.84-12.14-40.36-.26-6.9,0-13.81.21-20.71.1-3,.34-5.87-.54-8.81C204,271,202.13,267,201,262.74l-2.28,1,.93,1.93c.57,1.2,2.26.51,2.33-.63.94-17.57-25.33-13.9-35.79-13.75l-29.19.41c-4.52.06-9.1-.07-13.62.19-2.21.13-4,.38-5.49,2.12-2.29,2.64-3.42,7.31-4.41,10.56A71.79,71.79,0,0,0,111,276.23a72.73,72.73,0,0,0,.63,22.81c1.64,8.71,5.67,16.68,7.54,25.32,2.33,10.72,0,21.52-4,31.55a1.25,1.25,0,0,0,.57,1.41c4,2.39,2.7,7.66,2.4,11.51-.26,3.24,1.2,6.08,2.45,9.07,2.39,5.73,12.22,19.87,5.64,24.57a1.27,1.27,0,0,0,.3,2.29c36.81,11.44,80.46,21.66,116.2,1.7a1.27,1.27,0,0,0,.58-1.41l-.42-1.8c-.18-1.58-2.68-1.6-2.5,0,.37,3.33-6.79,5-9.33,6a88.16,88.16,0,0,1-13.1,3.85,109.29,109.29,0,0,1-29.32,2c-20.73-1.21-41.67-6.58-61.44-12.73l.29,2.28c3.88-2.77,4.6-6.61,3-11-3-8.21-10-16.69-9.75-25.66.07-2.9.93-6-.12-8.86-.69-1.86-2.26-2.61-2.34-4.28s1.58-4.51,2-6.14a60.67,60.67,0,0,0,1.46-6.27,50.93,50.93,0,0,0,.8-11.23c-.37-7.69-3.11-14.73-5.57-21.94a72.78,72.78,0,0,1-4.1-25,69.79,69.79,0,0,1,4.7-23.89c1.05-2.71,1.75-5.1,4.8-5.9,1.76-.47,4-.13,5.88-.16l14.59-.2,29.19-.41c8.72-.12,28.18-2.34,27.45,11.33l2.32-.63-.92-1.93c-.63-1.31-2.63-.38-2.29,1,1,4,2.57,7.66,3.86,11.55s.83,8.31.7,12.47c-.21,6.89-.37,13.79.07,20.67.83,13.25,4.15,25.95,11.56,37.09,6.08,9.15,13.95,17,19.36,26.64a38.11,38.11,0,0,1,5.26,16.95c.23,5.18-2.29,10.6,1.14,15.1C241.53,405.14,243.7,403.9,242.73,402.62Z" transform="translate(-39.22 -158.45)"/><path d="M168.34,361.49a28.51,28.51,0,0,1,3.54,18.88c-.5,3-1.34,6.61-3.18,9.12-3.24,4.41-9.58,2.17-14,1.15v2.41a15.21,15.21,0,0,0,9.71-11.93,21.84,21.84,0,0,0-.46-8.85c-.33-1.4-1.75-3.68-1.73-5,0-1.9,4.18-6.59,6.56-4.3,1.16,1.11,2.93-.65,1.76-1.77l-1.33-1.28a1.23,1.23,0,0,0-1.21-.32c-3.79,1.52-10.07,2.07-8.76,7.12,1.16,4.44,3.27,7.53,2.9,12.46-.39,5.08-3.23,9.66-8.1,11.49-1.07.4-1.31,2.11,0,2.41,3.61.84,9.85,3,13.5,1.32,2.93-1.35,4.4-5.4,5.4-8.19a31,31,0,0,0-2.46-25.95,1.25,1.25,0,0,0-2.16,1.26Z" transform="translate(-39.22 -158.45)"/><path d="M228.29,386.36c-6.18,8.49-17.56-3.42-17.51-10.46a19.89,19.89,0,0,1,2.8-9.16,14,14,0,0,1,1.75-2.66l1.93,3.21c0,.57-.82,1.69-1,2.32-2.61,9.13,8,13.69,14.34,16.87l-.45-1.71-1.32,1.88c-.93,1.32,1.24,2.57,2.16,1.26l1.32-1.88a1.26,1.26,0,0,0-.45-1.71c-5-2.48-13.55-5.37-13.47-12.28,0-3.13,3.69-6.14,2.15-9.31-3.31-6.81-9.46,3-10.63,5.94-3,7.4-1.35,14.37,4.82,19.51,4.82,4,11.69,5,15.71-.55.95-1.31-1.22-2.56-2.15-1.27Z" transform="translate(-39.22 -158.45)"/><path class="cls-6" d="M187.14,329.18A31.42,31.42,0,0,0,197,309.24c.22-2.41.11-5-1.27-7a6.18,6.18,0,0,0-11.24,3.38,10,10,0,0,0-10.62-3.38,10.35,10.35,0,0,0-7.09,8.67,6,6,0,0,0,.67,3.77,8.55,8.55,0,0,0,2,2L181,326a16.3,16.3,0,0,1,4.22,4.35" transform="translate(-39.22 -158.45)"/><path d="M188,330.07c6.15-6,13.14-17.92,9.55-26.89-3-7.47-13.28-5.37-14.33,2.12l2.09-.55c-5.58-6.26-15.8-5-19.06,3-1.27,3.12-1.17,6.4,1.17,8.94,4.91,5.32,12.5,8.22,16.67,14.27.91,1.31,3.08.06,2.16-1.27-3.58-5.18-9.67-8.76-14.51-12.68-9.81-7.93,4.1-19.14,11.8-10.49a1.26,1.26,0,0,0,2.09-.55,7.47,7.47,0,0,1,2.64-4.5c4-3.05,7,2.31,7.39,5a20.16,20.16,0,0,1-1.09,8.35,31.33,31.33,0,0,1-8.34,13.46c-1.15,1.13.62,2.89,1.77,1.77Z" transform="translate(-39.22 -158.45)"/><path d="M154.05,274.29a61.39,61.39,0,0,0-18.39,12.5c-.58.56.31,1.44.88.88a60.49,60.49,0,0,1,18.15-12.3c.73-.32.09-1.4-.64-1.08Z" transform="translate(-39.22 -158.45)"/><path d="M145.05,274.48q-11.79,5-23.45,10.33c-.73.33-.1,1.41.63,1.08q11.67-5.29,23.45-10.33c.73-.32.1-1.4-.63-1.08Z" transform="translate(-39.22 -158.45)"/><path d="M204.22,387.7a19.64,19.64,0,0,0-18.05,2.51c-.65.46,0,1.54.63,1.08a18.46,18.46,0,0,1,17.09-2.39c.76.27,1.09-.94.33-1.2Z" transform="translate(-39.22 -158.45)"/><path d="M125.71,379.43a61.56,61.56,0,0,0,6-24.37c0-.81-1.22-.8-1.25,0a59.84,59.84,0,0,1-5.86,23.74c-.34.72.73,1.35,1.08.63Z" transform="translate(-39.22 -158.45)"/><path d="M126.59,357.17a23.85,23.85,0,0,1-5.12,13.4c-.49.63.39,1.52.89.89a25.43,25.43,0,0,0,5.48-14.29c0-.81-1.2-.8-1.25,0Z" transform="translate(-39.22 -158.45)"/><path class="cls-4" d="M111.17,255c9.19-1.53,18.74,2.42,25.24,8.63s10.33,14.43,13,22.74c1.68,5.27,2.94,10.77,2.26,16.23a30.7,30.7,0,0,1-2.68,8.92,22.79,22.79,0,0,1-6.86,9.15c-3.17,2.34-7.55,3.5-11.38,2.28a4.31,4.31,0,0,1-1.68-.89c-1.48-1.4-.78-3.71-.06-5.55a61.35,61.35,0,0,0,.79-42c-.82-2.37-1.85-4.79-3.87-6.43-2.56-2.08-6.34-2.51-9.64-1.72a23,23,0,0,0-8.78,4.68c-3-2.5-4.86-6.4-4-10.06a8.18,8.18,0,0,1,8.84-6" transform="translate(-39.22 -158.45)"/><path d="M111.17,256.29c18.62-2.49,31.1,12.93,36.5,28.89,3.09,9.15,4.1,18.17-.41,27-2,4-5,7.85-9.48,9.35a11.92,11.92,0,0,1-4.11.66q-3.16.64-3.26-2.32c-1-2.5.18-4,1-6.42a62.38,62.38,0,0,0,2.82-23.23c-.46-6.63-1.5-14.8-5.22-20.49-2.87-4.39-8.09-5.75-13-4.59a19.34,19.34,0,0,0-3.47,1.23c-1.28.59-3.39,2.62-4.73,2.67-2.55.1-3.45-6.1-3-7.73.88-3.53,4.23-5.32,7.64-5.1,1.61.1,1.6-2.4,0-2.5a9.58,9.58,0,0,0-9.65,5.74c-1.9,4.6.56,9.33,3.92,12.46a1.29,1.29,0,0,0,1.52.2c4.36-3.31,10.52-6.9,16-3.76,4.67,2.69,5.85,10.31,6.75,15.13A60.32,60.32,0,0,1,129,312.83c-1.56,4.86-4.07,10.46,2.88,11.71,5.59,1,11-2,14.48-6.21,10.46-12.79,6.71-29.71-.14-43.24-6.65-13.14-19.65-23.36-35-21.3-1.57.21-1.59,2.72,0,2.5Z" transform="translate(-39.22 -158.45)"/><path class="cls-5" d="M165.72,266.94c-4.76-3.72-11.18-4.26-17.2-4.67L128.64,261c-5.26-.35-11-.93-14.7-4.7-5.76-5.91-2.6-16.64,4.19-21.34s15.61-5,23.86-4.77c20.19.51,40.84,3.05,58.76,12.35,3,1.58,6.18,3.58,7.35,6.79,1.7,4.65-1.71,9.91-6.17,12s-9.65,1.94-14.59,1.73-10.13-.34-14.55,1.88c-3.1,1.54-6.58,4.23-9.57,2.49" transform="translate(-39.22 -158.45)"/><path d="M166.35,265.86c-6.4-4.52-14.27-4.6-21.81-5.1l-13.91-.93c-4.6-.31-9.85-.32-13.86-2.9-8.59-5.53-3.77-17.52,3.37-21.82,7.93-4.78,18.36-3.93,27.2-3.53,18.09.81,38.22,3.23,54.08,12.7,6.34,3.78,8,10.9,1.06,15.3-4,2.52-9,2.4-13.48,2.28-4-.11-8-.45-11.9.33-4.24.85-9.33,5.59-13.54,4-1.51-.56-2.16,1.85-.67,2.41,2.88,1.08,5.15.18,7.8-1.14a30.47,30.47,0,0,1,15.82-3.21c7.14.24,15.54.65,20.56-5.44,11.38-13.81-14.16-21.71-23.28-24.35a143.33,143.33,0,0,0-27.51-4.82c-8.61-.74-17.69-1.49-26.28-.29-6.92,1-13.85,3.75-17.61,9.94-2.79,4.59-3.89,10.86-1,15.67,3.95,6.58,12.42,6.9,19.23,7.36,6.21.42,12.43.8,18.65,1.25,5.64.41,11.08,1.1,15.81,4.44,1.31.93,2.56-1.23,1.26-2.16Z" transform="translate(-39.22 -158.45)"/><path class="cls-7" d="M197.72,254.6c-8.35.4-16.9.84-24.6,4-1.64.67-3.31,1.49-5.08,1.36a11.31,11.31,0,0,1-3.39-1.05,44.08,44.08,0,0,0-17.8-3.36c-3.56.07-7.13.58-10.67.16a20.56,20.56,0,0,1-9.93-4A316.91,316.91,0,0,1,189,250.37c2.79.22,5.88.62,7.7,2.7" transform="translate(-39.22 -158.45)"/><path d="M166.88,259.56c-4.35-4.27-10.12-5.46-16-5.52-4.18,0-8.35.52-12.53.31-6-.32-10.67-2.43-15.4-5.91-.65-.48-1.27.61-.63,1.08,6.2,4.55,12.06,6.24,19.72,6.08,8.32-.17,17.46-1.58,24,4.85.58.56,1.46-.32.89-.89Z" transform="translate(-39.22 -158.45)"/><path d="M169.37,260.86c6.34-4.42,13.68-4.92,21.16-5.45,3.09-.22,8.2.33,10.07-2.75a.63.63,0,0,0-1.08-.63c-2.11,3.48-13.52,2.33-17.23,2.84a30.32,30.32,0,0,0-13.56,4.91c-.65.46,0,1.54.64,1.08Z" transform="translate(-39.22 -158.45)"/><path d="M165,258.4a32.17,32.17,0,0,0-9.14,0c-.79.11-.46,1.31.33,1.2a30.49,30.49,0,0,1,8.48,0c.78.12,1.12-1.09.33-1.2Z" transform="translate(-39.22 -158.45)"/><path d="M169.85,260.74a.63.63,0,0,0,0-1.25.63.63,0,0,0,0,1.25Z" transform="translate(-39.22 -158.45)"/><path d="M170,261.07c4.34-1,8.68-1.85,13.09-.72a.63.63,0,0,0,.33-1.21c-4.63-1.19-9.19-.31-13.76.72-.78.18-.45,1.39.34,1.21Z" transform="translate(-39.22 -158.45)"/><path d="M208.23,328.17a306.81,306.81,0,0,1-36.47,29.94c-.65.45,0,1.54.63,1.08a308.39,308.39,0,0,0,36.72-30.14c.58-.56-.3-1.44-.88-.88Z" transform="translate(-39.22 -158.45)"/><path d="M214.92,343.19c-7.42,7.69-17.35,11.32-27.25,14.73-.75.26-.43,1.47.34,1.21,10.08-3.48,20.23-7.22,27.79-15.06.56-.58-.32-1.47-.88-.88Z" transform="translate(-39.22 -158.45)"/><path d="M217.35,377.56a46.11,46.11,0,0,1-4.52,6c-.53.6.35,1.49.89.89a49.09,49.09,0,0,0,4.71-6.22c.43-.68-.65-1.31-1.08-.64Z" transform="translate(-39.22 -158.45)"/><path d="M221.7,380.92a26.85,26.85,0,0,1-5.17,6.31c-.6.54.28,1.42.88.88a27.8,27.8,0,0,0,5.37-6.56.63.63,0,0,0-1.08-.63Z" transform="translate(-39.22 -158.45)"/><path d="M215.13,371.85l-4.67,5.59c-.51.61.37,1.5.88.88l4.67-5.59c.51-.61-.37-1.5-.88-.88Z" transform="translate(-39.22 -158.45)"/><path d="M171.51,383.25a24,24,0,0,0-9-.81c-.79.08-.8,1.33,0,1.25a23,23,0,0,1,8.72.77.63.63,0,0,0,.33-1.21Z" transform="translate(-39.22 -158.45)"/><path d="M171.93,376a18.49,18.49,0,0,0-8.77.65c-.76.25-.44,1.46.33,1.21a17.16,17.16,0,0,1,8.11-.66c.78.13,1.12-1.07.33-1.2Z" transform="translate(-39.22 -158.45)"/><path d="M172.44,370.18a11.89,11.89,0,0,0-10.14,2.4c-.63.5.26,1.38.88.88a10.49,10.49,0,0,1,8.93-2.07c.78.17,1.12-1,.33-1.21Z" transform="translate(-39.22 -158.45)"/><path d="M168.2,389.53A23.79,23.79,0,0,1,161,387c-.71-.38-1.34.7-.63,1.08a25.1,25.1,0,0,0,7.52,2.62c.79.14,1.13-1.06.34-1.2Z" transform="translate(-39.22 -158.45)"/><path d="M169.81,364.46a37.64,37.64,0,0,0-8.27,3.83c-.68.43,0,1.51.64,1.08a36.36,36.36,0,0,1,8-3.71c.76-.24.43-1.45-.34-1.2Z" transform="translate(-39.22 -158.45)"/><path d="M226.72,383.66a20.93,20.93,0,0,1-5.38,5.36c-.66.46,0,1.54.63,1.08a22.68,22.68,0,0,0,5.83-5.81c.46-.66-.62-1.29-1.08-.63Z" transform="translate(-39.22 -158.45)"/><path class="cls-5" d="M240.71,407.1c1.92,1.18,2.17,4,1.08,6s-3.13,3.21-5.14,4.22c-10.72,5.36-23,6.55-34.93,7.48-7.51.58-15.06,1.09-22.54.27s-14.84-3-22.1-5.18l-24.26-7.25c-1.84-.55-3.8-1.17-5-2.65s-1.28-4.1.41-5l36.41,5.53a227.61,227.61,0,0,0,23.85,2.76c15.3.67,30.6-1.79,45.45-5.52,2.69-.67,6.54-.72,7.11,2" transform="translate(-39.22 -158.45)"/><path d="M239.83,408c8,7-19.24,13.37-23.06,14a191.65,191.65,0,0,1-28.21,2.29c-10.14.08-19.68-2.16-29.33-5-5-1.46-9.92-3-14.88-4.44l-7.46-2.23c-3.13-.93-4.77-.73-6.12-3.83q-2.61-3.35.93-2l3.83.58,7.66,1.16,14.38,2.18c8.73,1.33,17.47,2.82,26.28,3.53a131.3,131.3,0,0,0,27.67-.83c4.49-.59,8.95-1.37,13.39-2.29,2.5-.52,13.4-4.76,14.9-1,.59,1.48,3,.83,2.41-.66-2.17-5.42-9.13-2.7-13.3-1.75a161.4,161.4,0,0,1-32.81,4.44c-21,.44-42.16-4.47-62.79-7.6-2.35-.35-5.21-1.76-6.91.47-1.25,1.63-.84,4.12.3,5.68,1.72,2.36,5,3,7.65,3.78q7.45,2.25,14.92,4.46c9.52,2.85,19.06,6.1,29,7.34s20.31.24,30.33-.74c9.27-.91,18.64-2.39,27.17-6.32,4.61-2.13,11.66-7.87,5.85-12.94-1.2-1.06-3,.7-1.76,1.77Z" transform="translate(-39.22 -158.45)"/><path d="M151.64,408.79l-3.16,7c-.33.73.75,1.36,1.08.63l3.16-7c.33-.73-.75-1.37-1.08-.64Z" transform="translate(-39.22 -158.45)"/><path d="M167.6,412.11l-4.22,8.38c-.36.71.71,1.35,1.08.63l4.22-8.38c.36-.72-.72-1.35-1.08-.63Z" transform="translate(-39.22 -158.45)"/><path d="M187.14,414.42l-4.58,8.9c-.36.72.71,1.35,1.08.63l4.58-8.89c.36-.72-.71-1.35-1.08-.64Z" transform="translate(-39.22 -158.45)"/><path d="M201.32,414.51a106.26,106.26,0,0,1-5,10.1c-.39.71.69,1.34,1.08.64a110.13,110.13,0,0,0,5-10.11c.31-.73-.76-1.37-1.08-.63Z" transform="translate(-39.22 -158.45)"/><path d="M215.56,412.24a59.45,59.45,0,0,1-3.28,10.09c-.32.73.76,1.37,1.08.63a61,61,0,0,0,3.4-10.39c.19-.78-1-1.11-1.2-.33Z" transform="translate(-39.22 -158.45)"/><path d="M227.7,409.44A41.68,41.68,0,0,1,224.36,420c-.34.72.73,1.35,1.08.63a43.12,43.12,0,0,0,3.47-10.84c.14-.79-1.07-1.13-1.21-.34Z" transform="translate(-39.22 -158.45)"/><path d="M213.62,316.21a10.92,10.92,0,0,0-8.51,3.8c-.52.61.36,1.49.89.88a9.73,9.73,0,0,1,7.62-3.43.63.63,0,0,0,0-1.25Z" transform="translate(-39.22 -158.45)"/><path d="M101.05,258.7c-5.46,7.56-8.76,16.18-10.9,25.21-1.08,4.52-1.87,9.09-2.57,13.68-.45,3-1.13,5.64.88,8.08.52.62,1.4-.27.89-.89-2.51-3,0-10.44.65-14.12.66-3.49,1.42-7,2.37-10.37a65.29,65.29,0,0,1,9.76-21c.47-.65-.61-1.28-1.08-.63Z" transform="translate(-39.22 -158.45)"/><path class="cls-5" d="M123.19,265.72c-2.76-2.88-7.85-2-10.77.68s-4.23,6.71-5.45,10.51a679.1,679.1,0,0,1-38.59,94.46c-4.17,8.36-8.65,17.56-6.48,26.65,2.22,9.26,11.12,15.78,20.43,17.73s19,.14,28.2-2.28c10.53-2.78,22.6-8.34,24-19.13,1.26-9.69-7.06-18.32-7.28-28.09-.07-3,.58-6.37-1.14-8.88-.9-1.32-2.36-2.22-3.09-3.64-1-1.87-.44-4.12.11-6.15l8.22-30.44c2.7-10,5.41-20.3,4-30.53S127.1,266.16,117,264" transform="translate(-39.22 -158.45)"/><path d="M124.08,264.84a9.14,9.14,0,0,0-11.24-.36c-4.3,2.88-5.86,8.35-7.37,13Q98,300.4,89,322.78q-9.36,23.07-20.4,45.41C63.22,379,56.14,392,62.9,403.87c5.95,10.4,18.44,14.36,29.79,13.91,11.67-.47,26-3.53,35.47-10.94,9.2-7.24,8.67-16.86,4.5-26.85a75.08,75.08,0,0,1-3.23-8.33c-1.05-3.64-.55-7.13-1-10.8a11.06,11.06,0,0,0-1.85-4.84c-1.37-2.29-2.72-4.43-2.48-7.33.2-2.4,1.36-5.09,2-7.44,2.38-8.81,4.8-17.61,7.14-26.43,2.11-8,4.08-16.26,3.63-24.6-.64-12-7.28-24.3-19.58-27.45a1.25,1.25,0,0,0-.67,2.41c12.69,3.24,18.1,16.62,17.8,28.66-.32,12.92-5.08,25.82-8.42,38.19-1.58,5.85-4.31,12.3-4.73,18.35a7.08,7.08,0,0,0,.64,4,7.81,7.81,0,0,0,.86,1.24c1.79,2.41,3,4.31,3.25,7.56.31,4.32.36,7.78,1.9,12,2,5.32,5.16,10.53,5.44,16.33.55,11.7-11.81,17.49-21.29,20.27-12.21,3.58-27,6.29-38.51-.71-5-3-9.1-7.56-10.49-13.33-1.73-7.17,1.06-14.49,4-20.91,5.5-11.92,11.49-23.58,16.77-35.61q8.4-19.2,15.64-38.9,3.58-9.76,6.86-19.64c1.19-3.55,2.12-7.36,3.74-10.75,2.07-4.33,7.22-9.37,12.17-5.27,1.23,1,3-.74,1.77-1.77Z" transform="translate(-39.22 -158.45)"/><path d="M121.7,352.51a181.73,181.73,0,0,1-30.57,25.17c-.67.43,0,1.52.63,1.08a183.32,183.32,0,0,0,30.82-25.36c.56-.58-.32-1.46-.88-.89Z" transform="translate(-39.22 -158.45)"/><path d="M127,368.72a207.48,207.48,0,0,0-26,10.45c-.72.35-.09,1.43.63,1.08a205.39,205.39,0,0,1,25.72-10.32c.76-.25.43-1.46-.33-1.21Z" transform="translate(-39.22 -158.45)"/><path d="M92,320.1a107.4,107.4,0,0,0,2.79,25.2c1.11,4.69,2.72,9.35,7.51,11.25.74.3,1.07-.91.33-1.2-5.89-2.34-6.8-10.46-7.77-15.88a108.3,108.3,0,0,1-1.61-19.37.63.63,0,0,0-1.25,0Z" transform="translate(-39.22 -158.45)"/><path d="M237.38,332.94a48.68,48.68,0,0,1,2.54,21.54c-.08.8,1.17.79,1.25,0a49.13,49.13,0,0,0-2.59-21.87c-.26-.75-1.47-.43-1.2.33Z" transform="translate(-39.22 -158.45)"/><path d="M253.87,336.87a60.87,60.87,0,0,1-5,19.2c-.33.72.75,1.36,1.07.63a62.58,62.58,0,0,0,5.19-19.83c.07-.8-1.18-.79-1.25,0Z" transform="translate(-39.22 -158.45)"/><path class="cls-8" d="M162.68,172.63a72.06,72.06,0,0,0-34.22,17.12,19,19,0,0,0-6.09,14.38c.6,10.62,5.33,20.89,14.46,26.1,6.3,3.28,12.23,2.43,17.74-1.39,3-1.6,4.63,1.43,7,1.56,4.14-.36,5.64-6.16,8.54-5.42,3.52.2,5,5.57,8.51,5.77,4.4-5.06,12.68-5.79,14.24-12.76.68-1.73-1.54-4.21-3.2-6.06-1.54-4.21,3.29-6.3,2.93-10.44-1-3.58-4.51-3.78-5.49-7.36-4.73-10.27-13-20.72-25.42-20.44" transform="translate(-39.22 -158.45)"/><path class="cls-2" d="M162.35,171.43a73.62,73.62,0,0,0-26.72,11.15c-6.66,4.5-13.19,9.83-14.34,18.29-1.82,13.33,8.16,32.63,23.22,32.64a16.91,16.91,0,0,0,5.46-.92c2.6-.89,5.17-3.13,8.17-2.28,2.55.72,3.36,2,6.06.51,1.22-.67,1.92-1.79,3-2.66,2.64-2.19,4.17-1.58,6.29.59,1.41,1.43,3.19,3.56,5.48,3.2,1.18-.19,2.48-2.13,3.42-2.78,1.45-1,3-1.8,4.56-2.71,2.41-1.44,4.83-3.08,6.19-5.62,1.54-2.88.82-4.39-.35-7.11-1-2.22-2.15-3.79-1-6.41.64-1.47,1.78-2.65,2-4.31.43-3.38-1.88-4.61-3.87-6.8-3.09-3.43-4.52-8.53-7.36-12.27-5.17-6.81-12.13-11.4-20.85-11.5a1.25,1.25,0,0,0,0,2.5c8.31.1,14.82,4.8,19.52,11.39a58.64,58.64,0,0,1,4.71,8.26c1.34,2.75,3.76,4.22,4.36,7.19s-.13,3-1.22,5.22a7.94,7.94,0,0,0-.87,2.46c-.38,2.79,1.67,4.72,2.21,7.32.7,3.4-.08,4.37-2.77,6.31a32.77,32.77,0,0,1-3,1.79c-1.51.88-5.06,4.1-6.7,4.13-3.59.07-4.78-6.8-9.65-5.06-1.75.62-2.58,2.5-4,3.59-3.11,2.47-4.42,0-7.45-.36-2.6-.26-4.71,1.85-7,2.74-5.51,2.15-11.16.67-15.64-3-5.53-4.5-8.79-11.21-10-18.12-2.05-11.28,3.85-18.09,12.71-24.08A71.83,71.83,0,0,1,163,173.84c1.57-.32.91-2.73-.67-2.41Z" transform="translate(-39.22 -158.45)"/><path d="M151.53,201.65c3.1-1.54,6.33-3.12,9.79-3.17s7.22,1.92,8,5.28c.75,3.07-1.13,6.22-3.48,8.33a12.48,12.48,0,0,1-7.78,3.48,7.57,7.57,0,0,1-7.12-4.06c-1.37-3-.11-6.56,1.21-9.62" transform="translate(-39.22 -158.45)"/><path class="cls-2" d="M151.85,202.19c3.67-1.82,7.93-4,12.14-2.71,5.69,1.71,5.87,7.53,2.2,11.43-2.65,2.82-6.9,5-10.8,3.63-5.87-2-4.45-8.08-2.61-12.48.31-.74-.89-1.07-1.2-.33-2,4.81-3.18,10.91,2.5,13.63,4.85,2.31,10.57-.51,13.7-4.37,2.85-3.51,3.38-8.46-.62-11.34-5-3.6-11.06-1-15.94,1.47-.72.35-.09,1.43.63,1.07Z" transform="translate(-39.22 -158.45)"/><path d="M185.05,193.72a4.93,4.93,0,0,1-3.12,6.11,5.75,5.75,0,0,1-6.52-2.77,6.91,6.91,0,0,1,.65-7.24,6,6,0,0,1,2-1.75,4.85,4.85,0,0,1,6.86,5.83" transform="translate(-39.22 -158.45)"/><path class="cls-2" d="M184.45,193.88a4.3,4.3,0,0,1-3.77,5.54,5.26,5.26,0,0,1-5.38-5c-.15-2.56,1.41-5.62,4.1-6.17,3.33-.67,5.67,2.44,4.88,5.5a.63.63,0,0,0,1.21.33,5.54,5.54,0,0,0-5-7.15c-3.94-.16-6.62,3.85-6.45,7.49a6.51,6.51,0,0,0,6.95,6.23,5.55,5.55,0,0,0,4.65-7.09.62.62,0,0,0-1.2.33Z" transform="translate(-39.22 -158.45)"/><path class="cls-2" d="M160.69,218.34c-.36,3.41-6.09.69-8.05,1.07a3.36,3.36,0,0,0-2.82,2.45.62.62,0,0,0,1.2.33c.92-3.33,5.89-.41,8.18-.93a3.26,3.26,0,0,0,2.74-2.92c.09-.8-1.16-.8-1.25,0Z" transform="translate(-39.22 -158.45)"/><path class="cls-2" d="M186.54,203.17c1.07,0,1.55-.93,1.76-1.86a4,4,0,0,1,.32-1.35,1.58,1.58,0,0,1,.5-.39s.1,0,.14,0-.12-.25-.09,0c.11.79,1.32.45,1.21-.33-.19-1.37-1.83-1-2.52-.27a2.51,2.51,0,0,0-.67,1.56c-.06.36-.14,1.4-.65,1.42a.63.63,0,0,0,0,1.25Z" transform="translate(-39.22 -158.45)"/><path d="M173.74,200.31c1.66,2,4.38,2.8,6.46,4.38s3.33,5,1.28,6.66-5.29-.57-6.27-3.11-1-5.51-2.69-7.64" transform="translate(-39.22 -158.45)"/><path class="cls-2" d="M173.3,200.76a18.93,18.93,0,0,0,4.93,3.4c1.86,1.08,5.55,4.49,2.76,6.58s-5.19-2.4-5.77-4.63c-.53-2.06-.9-4.06-2.16-5.82-.46-.65-1.54,0-1.08.63,2,2.8,1.53,6.63,3.69,9.32,1.42,1.77,4.12,3.23,6.19,1.6,1.9-1.5,1.39-4.19.24-6-1.87-2.88-5.66-3.5-7.91-6-.55-.59-1.43.29-.89.89Z" transform="translate(-39.22 -158.45)"/><path class="cls-2" d="M190,221.17a3.33,3.33,0,0,1-1.24-2.16c-.12-.79-1.33-.45-1.2.33a4.45,4.45,0,0,0,1.81,2.91c.65.48,1.27-.61.63-1.08Z" transform="translate(-39.22 -158.45)"/><path class="cls-2" d="M187.33,223.59a3.16,3.16,0,0,1-1.89-2.32c-.16-.79-1.36-.45-1.2.33a4.33,4.33,0,0,0,2.46,3.07c.72.33,1.36-.75.63-1.08Z" transform="translate(-39.22 -158.45)"/><path class="cls-2" d="M184.07,225.89,180.58,222c-.54-.6-1.42.29-.88.88l3.49,3.9c.53.6,1.42-.29.88-.89Z" transform="translate(-39.22 -158.45)"/><path class="cls-2" d="M180.31,227.92,178,225.33c-.53-.6-1.42.28-.88.88l2.33,2.6c.53.6,1.42-.29.88-.89Z" transform="translate(-39.22 -158.45)"/><path class="cls-2" d="M149.15,220.82c.66,1.6-1.62,2.57-2.81,2.08s-1.75-2.16-2.07-3.25-.48-2.45-.85-3.64a5.83,5.83,0,0,0-3.06-3.92,5.5,5.5,0,0,0-7.32,2.52c-.33.73.75,1.37,1.08.64a4.17,4.17,0,0,1,4.8-2.33c2.35.52,3.16,2.69,3.64,4.8s.8,4.3,2.47,5.75c2.25,2,6.66.26,5.33-3-.3-.73-1.51-.41-1.21.34Z" transform="translate(-39.22 -158.45)"/><path class="cls-2" d="M149.62,195.34a11.79,11.79,0,0,1-.92-7.42l-.77.43a27.51,27.51,0,0,1,6.06,3.16c.67.46,1.29-.63.63-1.08a29,29,0,0,0-6.36-3.28.62.62,0,0,0-.77.44,13.3,13.3,0,0,0,1,8.38c.35.73,1.43.1,1.08-.63Z" transform="translate(-39.22 -158.45)"/><path class="cls-2" d="M156.35,183.21c1.43.19,3.11.36,4.18,1.44s1,3.06-.8,3.4c-3.07.58-4.15-3.1-4.72-5.36l-.29.71a1.18,1.18,0,0,1,1.57.36c.54.59,1.42-.29.88-.89a2.49,2.49,0,0,0-3.08-.55.63.63,0,0,0-.29.7c.5,2,1.12,4.2,2.84,5.48a4.24,4.24,0,0,0,4.5.36,3,3,0,0,0,1.07-4c-1-2.12-3.41-2.6-5.53-2.89-.78-.1-1.12,1.1-.33,1.21Z" transform="translate(-39.22 -158.45)"/><path class="cls-2" d="M165.08,177.63,164.5,183c-.08.8,1.17.8,1.25,0l.58-5.32c.09-.8-1.16-.79-1.25,0Z" transform="translate(-39.22 -158.45)"/><path class="cls-2" d="M169.8,180.63l-8.56-1.17c-.78-.11-1.12,1.1-.33,1.21l8.55,1.17c.79.11,1.13-1.1.34-1.21Z" transform="translate(-39.22 -158.45)"/><path class="cls-9" d="M193.24,242.39a81.54,81.54,0,0,1-30.32,11.18,4,4,0,0,1-2.88-.31,2.7,2.7,0,0,1-.57-3.34,7.05,7.05,0,0,1,2.63-2.54c7.63-5,16.54-7.58,25.3-10.1a10,10,0,0,1,3.93-.58,3.41,3.41,0,0,1,3,2.29c.32,1.29-.84,2.85-2.14,2.59" transform="translate(-39.22 -158.45)"/><path class="cls-2" d="M192.61,241.31a84.54,84.54,0,0,1-14.31,7c-2.41.89-4.86,1.67-7.34,2.32q-1.65.45-3.33.81c-2.29.51-3,1.41-4.13-1.15-1-2.37-.48-2.05,1.41-3.15,1-.57,2-1.1,3-1.61a71.86,71.86,0,0,1,8.36-3.48c2.16-.76,4.34-1.45,6.53-2.11q2.05-.61,4.11-1.2c.49-.15,1-.28,1.47-.41q2.22-.87,3.79,2c-1.58.19-1.6,2.69,0,2.5,5.93-.72,3-7.56-2.16-7.39-4.38.15-9.48,2.49-13.6,3.9a66.26,66.26,0,0,0-14.22,6.51c-2,1.27-4.41,2.91-4.25,5.6.19,3.07,2.69,3.62,5.31,3.33,10.74-1.2,21.44-5.78,30.62-11.31a1.25,1.25,0,0,0-1.26-2.16Z" transform="translate(-39.22 -158.45)"/><circle class="cls-10" cx="119.45" cy="46.21" r="44.71"/><path class="cls-3" d="M113.21,413.23a76.62,76.62,0,0,1,7.7,19.58c.91,3.78,1.53,7.78.48,11.52-.37,1.29-1.69,2.77-2.76,2a2.18,2.18,0,0,1-.63-1l-4.14-9.48c-1.5,1.45-1.5,3.82-1.39,5.9L113.64,465c0,.78-.14,1.84-.92,1.89a1.5,1.5,0,0,1-.85-.31c-3.33-2.23-5.05-6.21-6-10.11s-1.33-8-2.83-11.69c-1.49,6.22,2.58,12.78,1,19-6.37-5-9.08-13.28-11.09-21.13-1.41,5.38,4.72,10.7,3.12,16-5-5.07-5.93-12.93-5.06-20s3.27-13.89,3.89-21l12.25-3.05c2.13-.53,4.61-1,6.33.37" transform="translate(-39.22 -158.45)"/><path d="M112.13,413.86a77.46,77.46,0,0,1,7.58,19.28c.25,1.05,1.79,12.26-.63,11.57-1.14-.33-3.63-8.31-4.14-9.48-.42-1-1.66-.65-2.16,0-1.92,2.55-1.61,5.42-1.46,8.47.23,5.18.52,10.35.78,15.52.07,1.45,1.09,5.9-.52,5.6-2-.38-3.66-5.71-4.12-7.18-1.35-4.33-1.69-8.86-3.23-13.15-.37-1-2.19-1.33-2.41,0-1.08,6.45,2.17,12.58,1,19l2.09-.56c-6.27-5.29-8.76-12.87-10.77-20.57-.3-1.13-2.21-1.26-2.41,0-.93,5.78,4.21,10.41,3.12,16l2.09-.55c-7.13-8-5-18.9-2.9-28.39.66-3,.56-9,2.92-10.93,1.31-1.1,5.32-1.33,7-1.75,2.67-.66,6.18-2.1,8.86-.62,1.41.78,2.68-1.38,1.27-2.16-5.46-3-14.09,1.19-19.54,2.55a1.29,1.29,0,0,0-.92,1.21c-1.49,13.81-9.22,29.8,1.54,41.86A1.26,1.26,0,0,0,97.3,459c1.13-5.85-4-10.35-3.12-16H91.77c2.11,8.09,4.84,16.12,11.41,21.68.65.55,1.91.46,2.09-.55,1.14-6.46-2.11-12.56-1-19h-2.41c2.51,7,2.08,19.82,10.56,23a1.25,1.25,0,0,0,1.22-.32c2.91-2.52,1-9,.8-12.47l-.44-8.73c-.16-3.17-1.06-7.42,1-10.12h-2.16c1.18,2.7,2.76,9.79,5.52,11s4.32-2.56,4.67-4.63c1.69-10-4-21.8-8.68-30.28-.77-1.41-2.93-.15-2.16,1.26Z" transform="translate(-39.22 -158.45)"/><path class="cls-3" d="M273.21,376.21c3.82,5.68,5,12.69,6.09,19.45a11,11,0,0,1,.14,4.11,3.73,3.73,0,0,1-2.59,2.93l-3.42-8.27c-1.55,1.53-1.79,3.89-2.08,6.05-.84,6.25-3.18,12.81-8.44,16.29-1.38-2.75-.35-6,.86-8.88s2.59-5.88,1.82-8.86l-9.12,17.49a4.31,4.31,0,0,1-1.53,1.93,1.53,1.53,0,0,1-2.14-.51,2.24,2.24,0,0,1,.21-1.63l7.34-18.16a67.92,67.92,0,0,1-9.76,16.3c-1.26-4.15.61-8.57,2.72-12.36s4.59-7.68,4.61-12a5.63,5.63,0,0,1,.38-2.78,4.53,4.53,0,0,1,1.47-1.38l12.59-8.63" transform="translate(-39.22 -158.45)"/><path d="M272.13,376.84a37,37,0,0,1,4.56,11.53c.73,3.21,3.44,11.32-.47,13.25l1.83.75-3.42-8.27c-.31-.75-1.44-1.39-2.09-.55-2.07,2.67-2.13,5.52-2.75,8.77-1,5.21-3.13,10.15-7.51,13.37l1.83.75c-2.11-6,3.58-11.52,2.69-17.74a1.26,1.26,0,0,0-2.29-.3L260,407.14c-1.13,2.18-3,8-5.15,9.13-1.32.66.6-2.56.88-3.26l1.84-4.54,4-10c.53-1.3-1.72-2.26-2.28-1a72.84,72.84,0,0,1-9.56,16.06l2.09.55c-1.66-7.84,5.08-13.44,6.9-20.54.29-1.15.2-2.39.47-3.51.7-2.8,2.11-3.68,4.38-5.24l9.45-6.47c1.31-.91.06-3.08-1.27-2.16-4.15,2.85-8.68,5.47-12.6,8.64-2.51,2-2.18,3.46-2.65,6.65-1.23,8.42-9,14.2-7.09,23.29a1.26,1.26,0,0,0,2.09.56,75.49,75.49,0,0,0,10-16.56l-2.29-1c-2.31,5.74-4.88,11.44-7,17.26-.6,1.69-1.28,3.72.83,4.64s3.55-1,4.55-2.56c3.53-5.42,6.13-11.76,9.12-17.49l-2.28-.3c.91,6.39-5,11.26-2.69,17.74a1.27,1.27,0,0,0,1.84.75,20.08,20.08,0,0,0,6.69-8.37c1.84-4.19,1.32-10.6,4.08-14.17l-2.09-.55,3.42,8.27a1.28,1.28,0,0,0,1.84.75c4.13-2,3.39-6.24,2.75-10.15-1.06-6.38-2.5-12.52-6-18.05-.84-1.37-3-.11-2.15,1.26Z" transform="translate(-39.22 -158.45)"/></svg>