<svg id="Layer_14" data-name="Layer 14" xmlns="http://www.w3.org/2000/svg" xmlns:xlink="http://www.w3.org/1999/xlink" viewBox="0 0 302.43 291.38"><defs><style>.cls-1{fill:#494949;}.cls-2{fill:#fff;}.cls-3{fill:#232323;}.cls-4{fill:#00f9ff;}.cls-5{fill:url(#linear-gradient);}.cls-6{fill:url(#linear-gradient-2);}.cls-7{fill:url(#linear-gradient-3);}.cls-8{fill:url(#linear-gradient-4);}.cls-9{fill:url(#linear-gradient-5);}.cls-10{fill:url(#linear-gradient-6);}.cls-11{fill:url(#linear-gradient-7);}.cls-12{fill:url(#linear-gradient-8);}.cls-13{fill:url(#linear-gradient-9);}.cls-14{fill:url(#linear-gradient-10);}.cls-15{fill:#f2c9da;}.cls-16{fill:#777676;}.cls-17{fill:#999696;}.cls-17,.cls-18,.cls-20{stroke:#000;stroke-miterlimit:10;}.cls-17,.cls-18{stroke-width:3px;}.cls-18{fill:#bababa;}.cls-19{fill:#eaeaea;}.cls-20{stroke-width:0.5px;}.cls-21{fill:#99ffac;}</style><linearGradient id="linear-gradient" x1="492.12" y1="365.14" x2="492.12" y2="349.85" gradientUnits="userSpaceOnUse"><stop offset="0" stop-color="#032e00"/><stop offset="0.37" stop-color="#4400a2"/><stop offset="0.65" stop-color="#662481"/><stop offset="1" stop-color="#931b80"/></linearGradient><linearGradient id="linear-gradient-2" x1="485.67" y1="368.4" x2="485.67" y2="356.15" xlink:href="#linear-gradient"/><linearGradient id="linear-gradient-3" x1="489.75" y1="363.11" x2="489.75" y2="360.54" xlink:href="#linear-gradient"/><linearGradient id="linear-gradient-4" x1="482.02" y1="376.31" x2="482.02" y2="358.8" xlink:href="#linear-gradient"/><linearGradient id="linear-gradient-5" x1="482.79" y1="370.79" x2="482.79" y2="369.5" xlink:href="#linear-gradient"/><linearGradient id="linear-gradient-6" x1="476.62" y1="377.81" x2="476.62" y2="365.43" xlink:href="#linear-gradient"/><linearGradient id="linear-gradient-7" x1="470.52" y1="381.92" x2="470.52" y2="363.71" xlink:href="#linear-gradient"/><linearGradient id="linear-gradient-8" x1="465.22" y1="384.41" x2="465.22" y2="368.41" xlink:href="#linear-gradient"/><linearGradient id="linear-gradient-9" x1="462.6" y1="384.74" x2="462.6" y2="368.65" xlink:href="#linear-gradient"/><linearGradient id="linear-gradient-10" x1="452.08" y1="392.73" x2="452.08" y2="376.16" xlink:href="#linear-gradient"/></defs><title>black</title><path class="cls-1" d="M567.11,400.32c-6.35-1.88-13-3.76-19.5-2.32-8.93,2-15.49,10.16-18,19s-1.5,18.19,0,27.21a223.57,223.57,0,0,0,10,37.9c.71,1.95,1.74,4.17,3.76,4.6a5.92,5.92,0,0,0,3.12-.43,77.58,77.58,0,0,0,42.35-34.7c2.62-4.59,4.82-9.77,4.2-15-.57-4.77-3.39-8.94-6.24-12.81a244.54,244.54,0,0,0-19.65-23.46" transform="translate(-378.39 -252.43)"/><path d="M567.44,399.11c-8-2.35-16.57-4.52-24.51-.81-6.27,2.93-10.82,8.76-13.37,15.07-3.19,7.88-3,16.73-2,25A200.29,200.29,0,0,0,533,465.06q1.79,6.58,4,13.05c1,3,1.89,7.61,4.94,9.31,1.72.95,3.6.49,5.34-.1s3.52-1.27,5.24-2a76.92,76.92,0,0,0,9.83-5,79.26,79.26,0,0,0,17.1-13.86,68.07,68.07,0,0,0,12.86-18.85,21.73,21.73,0,0,0,2-11.84c-.6-4-2.68-7.55-4.94-10.79a219.38,219.38,0,0,0-16.74-20.77c-1.47-1.63-3-3.25-4.48-4.84-1.11-1.17-2.87.6-1.77,1.77a242.89,242.89,0,0,1,16.34,19.06c4.59,6,10.43,12.69,9.08,20.77a31.65,31.65,0,0,1-4.31,10.61,74.22,74.22,0,0,1-5.85,8.55,76.71,76.71,0,0,1-14.86,14.27,75.58,75.58,0,0,1-18.12,9.79c-1.48.55-3.73,1.78-5.29,1.13-1.34-.55-2-2.34-2.43-3.58-1.46-4-2.75-8-4-12.05a222.39,222.39,0,0,1-5.77-24.44c-1.45-8.12-2.58-16.6-1-24.8a29.09,29.09,0,0,1,9.55-17.13,19.77,19.77,0,0,1,8.5-4.17c4.18-.88,8.52-.26,12.63.73,2,.48,4,1.06,6,1.64a1.25,1.25,0,0,0,.66-2.41Z" transform="translate(-378.39 -252.43)"/><path class="cls-2" d="M614.71,508.3c1.87,4.48-.33,9.52-2.49,13.87-.61,1.22-1.53,2.62-2.88,2.53a3.47,3.47,0,0,1-1.88-1c-6.93-5.81-13.72-12-18.4-19.79s-7-17.3-4.49-26a1.6,1.6,0,0,1,.45-.84c.77-.64,1.79.4,2.25,1.28C593.6,490.64,600.85,503,612.13,511c1.31.93,2.88,1.83,4.43,1.4" transform="translate(-378.39 -252.43)"/><path d="M613.5,508.63c1.55,4,0,8.11-1.79,11.74a14.11,14.11,0,0,1-1.19,2.24c-.71,1-1.25.94-2.17.21-1.58-1.25-3.08-2.61-4.58-4-5.94-5.3-11.56-11.21-15.17-18.38A35.45,35.45,0,0,1,585,489a28.89,28.89,0,0,1-.13-5.88,24,24,0,0,1,.39-2.79c.1-.48.21-1,.34-1.43,0-.21.1-.41.17-.62l-.28-.11a1.52,1.52,0,0,1,.4.4,13.18,13.18,0,0,1,1.24,2.28q.66,1.28,1.35,2.55c.92,1.7,1.85,3.39,2.82,5.05a106.25,106.25,0,0,0,6.3,9.68,67.1,67.1,0,0,0,8.42,9.56,53.27,53.27,0,0,0,4.8,3.95c1.83,1.34,3.73,2.47,6.06,2,1.58-.32.91-2.73-.66-2.41-2.14.42-4.62-2.06-6.14-3.31a56.8,56.8,0,0,1-4.62-4.29,72.42,72.42,0,0,1-8.07-10.14c-2.38-3.55-4.52-7.24-6.55-11a38.91,38.91,0,0,0-3-5.46c-1-1.32-3.06-2.05-4.14-.32a9.31,9.31,0,0,0-.87,2.95,27.46,27.46,0,0,0-.46,3.24,29.53,29.53,0,0,0,.16,6.51,38.82,38.82,0,0,0,4,12.55c4.06,8,10.55,14.46,17.25,20.27.92.8,1.84,1.6,2.79,2.38a4.74,4.74,0,0,0,2.76,1.36c2.2.08,3.4-2,4.24-3.73,2.14-4.36,4.21-9.44,2.33-14.26-.57-1.48-3-.83-2.41.67Z" transform="translate(-378.39 -252.43)"/><path class="cls-3" d="M615.3,447c-3,22.86,1.44,46.21-1.34,69.11-.15,1.22-.58,2.72-1.8,2.9a2.74,2.74,0,0,1-1.83-.61c-5.58-3.64-9.57-9.2-13.28-14.73-3.09-4.62-6.12-9.4-7.64-14.75-1.86-6.54-1.34-13.5-.81-20.29s1.18-14.12,4.81-20c.92-1.51,2.2-3,4-3.28,2.57-.39,4.69,2,7.21,2.63,2.3.59,4.7-.33,7.07-.38s5.24,1.56,4.86,3.91" transform="translate(-378.39 -252.43)"/><path d="M614.05,447c-1.6,12.18-1.11,24.48-.7,36.72.21,6.13.39,12.27.27,18.41q-.07,4.59-.43,9.17c-.12,1.52-.24,3-.45,4.55a4.66,4.66,0,0,1-.36,1.47c-.37.7-.85.35-1.42,0-4.51-2.76-8-7.26-11-11.52-3.15-4.5-6.39-9.17-8.41-14.31-2.18-5.52-2.44-11.41-2.14-17.28a100.38,100.38,0,0,1,1.81-16.68,26.25,26.25,0,0,1,3.42-8.63c.69-1.05,1.67-2.25,3-2.37s2.53.72,3.61,1.32a11.09,11.09,0,0,0,3.58,1.42,14.21,14.21,0,0,0,4.41-.21c1.8-.26,6.26-.6,6,2.41-.16,1.6,2.34,1.59,2.5,0,.25-2.42-1.76-4.15-3.88-4.83-2.86-.91-5.67.63-8.53.19-2.52-.39-4.36-2.56-7-2.79-2.9-.25-4.95,2-6.29,4.29-3,5.11-3.93,11.08-4.47,16.9-.61,6.45-1.26,13.06-.37,19.5s3.77,12,7.25,17.37c3.2,4.93,6.54,10,10.87,14a31.26,31.26,0,0,0,3.28,2.69c1.1.79,2.38,1.75,3.82,1.45,2.64-.56,2.71-3.93,2.93-6a171.27,171.27,0,0,0,.7-20.76c-.27-15.47-1.59-31,.43-46.42.21-1.59-2.29-1.57-2.5,0Z" transform="translate(-378.39 -252.43)"/><path class="cls-1" d="M562.25,381.89a72.34,72.34,0,0,0-6.58,13.89,2.07,2.07,0,0,0-.09,1.61,1.92,1.92,0,0,0,1,.77,15.37,15.37,0,0,0,10.38.42,80.18,80.18,0,0,1-6-15.23" transform="translate(-378.39 -252.43)"/><path d="M561.17,381.26a72.57,72.57,0,0,0-3.92,7.33q-.84,1.83-1.59,3.69a22.09,22.09,0,0,0-1.38,3.85c-.58,2.94,2.92,3.74,5.12,4.13a17.08,17.08,0,0,0,7.94-.47,1.28,1.28,0,0,0,.75-1.84,80.75,80.75,0,0,1-5.9-14.94,1.25,1.25,0,0,0-2.41.67,84.1,84.1,0,0,0,6.15,15.53l.74-1.83a14.49,14.49,0,0,1-6.31.52,14,14,0,0,1-3.13-.83c-.54-.23-.59-.16-.44-.69s.36-1.05.56-1.57a70.48,70.48,0,0,1,6-12.29c.84-1.38-1.33-2.63-2.16-1.26Z" transform="translate(-378.39 -252.43)"/><path class="cls-1" d="M606.29,448.64c2.22-2.1,6.42,1,8.75-1,1-.84,1.18-2.28,1.28-3.58a177.54,177.54,0,0,0-.84-36.29c-1.15-9-3-18.06-6.92-26.29s-10-15.63-18-19.91a20.07,20.07,0,0,0-7.6-2.48c-7.26-.62-14.07,4.67-17.14,11.27s-3,14.23-2.11,21.45a16.3,16.3,0,0,0,1.61,6c1.38,2.48,3.83,4.15,6,5.95,15.19,12.5,20.59,34.41,36.64,45.78" transform="translate(-378.39 -252.43)"/><path d="M607.18,449.52c1-.84,2.74-.27,3.87-.1a6.45,6.45,0,0,0,4.16-.38,5,5,0,0,0,2.25-3.92c.3-2.2.36-4.46.47-6.69a177.25,177.25,0,0,0-.91-28.21c-1.83-16.17-5.95-33.45-18.64-44.68-5.55-4.91-13.18-9.29-20.79-7.15-7.1,2-12.2,8.23-14.27,15.1a38.07,38.07,0,0,0-1.37,12.2c.13,4,.28,8.69,2.1,12.34,1.72,3.47,5.28,5.49,8.06,8a55.42,55.42,0,0,1,6.9,7.62c8.37,11,13.89,24.33,24.31,33.71a44.9,44.9,0,0,0,4,3.22c1.31.94,2.56-1.23,1.26-2.16-10.77-7.7-16.63-20.09-23.78-30.84A66.14,66.14,0,0,0,572.37,403c-3-2.51-6-4.58-7-8.63a46.53,46.53,0,0,1-.95-12c.25-7.35,2.72-14.94,9-19.29a14.58,14.58,0,0,1,9.14-2.78c3.88.22,7.56,2.22,10.7,4.38,13,8.94,18.22,24.9,20.47,39.79a171.06,171.06,0,0,1,1.86,26.07c0,4.43-.19,8.85-.54,13.26-.12,1.48-.3,3.16-2.09,3.26a34.36,34.36,0,0,1-4-.46,4.86,4.86,0,0,0-3.57,1.12c-1.23,1.05.55,2.81,1.77,1.77Z" transform="translate(-378.39 -252.43)"/><path class="cls-1" d="M588.32,477c6.67-.09,11.89-5.69,15.53-11.27,2.06-3.15,4-6.69,3.67-10.44s-2.77-7-5.15-10l-27.58-34.61c-4.81-6-10.44-12.55-18.11-13.4-6.43-.71-12.73,3-16.85,7.95s-6.47,11.17-8.75,17.23c-.75,2-1.51,4.09-1.08,6.16.48,2.37,2.39,4.15,4.2,5.77L569.7,466c6,5.37,12.62,11,20.65,11.87" transform="translate(-378.39 -252.43)"/><path d="M588.32,478.29c7.14-.21,12.44-5.7,16.19-11.26,2.13-3.16,4.16-6.72,4.28-10.63s-1.85-7.17-4.07-10.1c-5.38-7.1-11.1-14-16.65-20.94l-8.52-10.7c-2.5-3.12-4.92-6.33-7.59-9.31-4.5-5-10.33-9.65-17.44-9.39-7.43.27-13.7,5.29-17.69,11.24a56.82,56.82,0,0,0-5.25,10.49c-1.38,3.46-3.65,7.64-2.75,11.46.86,3.63,4.45,6.1,7.07,8.43l10.17,9.05,20.34,18.1c5.67,5,11.41,10.59,18.69,13.18a24.36,24.36,0,0,0,5.25,1.2c1.6.19,1.58-2.31,0-2.5-7-.83-12.78-5.39-17.91-9.86-6.15-5.37-12.21-10.86-18.31-16.29L535.64,434a18.79,18.79,0,0,1-3.63-3.77,6.19,6.19,0,0,1-.48-5.28,75,75,0,0,1,4-10.29c2.9-6.27,7.11-12.41,13.77-15.06a14.78,14.78,0,0,1,9.75-.56,20.93,20.93,0,0,1,8,4.89,63.94,63.94,0,0,1,6.48,7.18c2.55,3.19,5.09,6.4,7.64,9.59l15.65,19.64c2.41,3,5,6,7.16,9.24s2.88,6.41,1.66,10a30.13,30.13,0,0,1-5.53,9.14,21.22,21.22,0,0,1-7.29,6,11.93,11.93,0,0,1-4.52,1,1.25,1.25,0,0,0,0,2.5Z" transform="translate(-378.39 -252.43)"/><path class="cls-2" d="M615.27,506.41c1.58,3,1.51,6.61,2.75,9.77,2.26,5.71,8.28,8.83,13.82,11.47,12,5.72,24.16,11.49,37.14,14.46a11.45,11.45,0,0,0,5,.34c3.5-.77,5.69-4.62,5.56-8.2s-2.08-6.87-4.38-9.62c-3.36,2-1.61,7.85-4.56,10.41-2.18,1.89-5.53.86-8.16-.3a248.91,248.91,0,0,1-46.22-26.63" transform="translate(-378.39 -252.43)"/><path d="M614.19,507c1.54,3.07,1.46,6.65,2.77,9.81a16.64,16.64,0,0,0,5.12,6.54c5,4,11.34,6.44,17.12,9.11a191.07,191.07,0,0,0,20.08,8.18,87.21,87.21,0,0,0,10.27,2.83c3.09.62,6.12.4,8.45-1.93a10.17,10.17,0,0,0,2.76-8.15c-.39-3.69-2.37-6.88-4.68-9.68a1.25,1.25,0,0,0-1.52-.2c-3.22,2.06-2.53,5.94-3.77,9.07-1.84,4.65-8.34.77-11.23-.56A247.64,247.64,0,0,1,631.64,517q-7.56-4.71-14.76-10c-1.3-.94-2.55,1.22-1.26,2.16a250.86,250.86,0,0,0,28,17.68q7.33,4,14.91,7.45c3.63,1.66,9,4.78,12.74,1.82,1.6-1.25,2.19-3.22,2.54-5.15.32-1.74.38-4.22,2.05-5.28l-1.52-.2c3.19,3.88,6.27,10.41,1.68,14.53-2.4,2.16-5.7,1.12-8.48.43q-4.72-1.19-9.32-2.8A194.16,194.16,0,0,1,640,530.15c-5.23-2.43-10.87-4.65-15.56-8a14.81,14.81,0,0,1-5.4-6.65c-1.16-3.18-1.19-6.6-2.73-9.67-.72-1.44-2.87-.17-2.16,1.26Z" transform="translate(-378.39 -252.43)"/><path class="cls-3" d="M586.94,478.63a90.93,90.93,0,0,1,20.28,17.92c3.53,4.2,6.68,8.73,10.46,12.71C624.84,516.76,634,522,643,527.11c7.89,4.48,16,9,25,10.51,2.51.42,5.5.41,7.09-1.57,1.74-2.15.83-5.33-.28-7.86-9.2-21.06-26.58-37.26-43.49-52.83l-24.76-22.78c2.4,11.33-7.17,23.65-18.75,24.13" transform="translate(-378.39 -252.43)"/><path d="M586.31,479.71a90.22,90.22,0,0,1,17,14.27c5.18,5.57,9.3,12,14.72,17.39a89.82,89.82,0,0,0,17.44,12.81,191,191,0,0,0,19.64,10.66,54.22,54.22,0,0,0,10.59,3.61c2.84.62,6.23,1.23,8.88-.34,2.88-1.71,3.11-5.15,2.25-8.07a49.24,49.24,0,0,0-4.25-9.25c-6.78-12.47-16.31-23.21-26.38-33.12-11.09-10.91-22.76-21.26-34.21-31.79l-4.55-4.19a1.26,1.26,0,0,0-2.09,1.22c2.14,10.63-6.72,22-17.54,22.55-1.6.08-1.61,2.58,0,2.5,12.51-.65,22.42-13.45,20-25.72l-2.09,1.22c11.26,10.36,22.63,20.61,33.73,31.12,9.88,9.37,19.49,19.23,27,30.68a97.81,97.81,0,0,1,5,8.64c1.38,2.7,3.42,6,3.41,9.11,0,3.59-3.75,3.83-6.48,3.41a46.36,46.36,0,0,1-10.62-3.16c-6.58-2.74-12.77-6.46-18.92-10a101,101,0,0,1-17.11-11.86c-6-5.45-10.42-12.35-15.86-18.35a92.65,92.65,0,0,0-18.23-15.47c-1.35-.88-2.61,1.28-1.26,2.16Z" transform="translate(-378.39 -252.43)"/><path d="M532.38,422.71a18.56,18.56,0,0,1,10.36,6.38c2.2,2.6,4.49,5.69,8.2,5.88,2.2.11,4.32-.77,6.32-1.57,1.74-.69,3.47-1.44,5.16-2.26a46.77,46.77,0,0,0,9.36-5.85,26.22,26.22,0,0,0,7.6-9.88c.31-.73-.77-1.37-1.08-.63-2.87,6.76-8.79,11.32-15.15,14.6-1.7.87-3.43,1.66-5.18,2.39a20.29,20.29,0,0,1-6.13,1.94c-4.05.29-6.34-3.38-8.69-6a19.16,19.16,0,0,0-10.43-6.15c-.79-.17-1.12,1-.34,1.2Z" transform="translate(-378.39 -252.43)"/><path d="M564.52,380.68a48.75,48.75,0,0,1,7.3,10.33c.87,1.65,1.47,3.57,2.61,5.06a5.62,5.62,0,0,0,3.86,2.09,17.57,17.57,0,0,0,5.06-.32l6.83-1.1c4-.65,8.62-.84,12.33-2.7s5.93-5.54,8-9a.63.63,0,0,0-1.08-.63c-1.73,2.92-3.56,6.06-6.48,7.94-3.26,2.1-7.62,2.28-11.34,2.88l-6.11,1a40.58,40.58,0,0,1-5.71.76,5,5,0,0,1-4.72-2.29c-.9-1.49-1.49-3.18-2.32-4.72a50.26,50.26,0,0,0-7.3-10.19c-.55-.6-1.43.29-.88.88Z" transform="translate(-378.39 -252.43)"/><path d="M621.69,496.67c-2.45.69-2.43,3.79-2.16,5.82.3,2.25,1.09,5.18,3.69,5.68s4.58-1.92,5.3-4.14c.79-2.4.39-5.6-1.51-7.39s-5.3-1.72-6.5.7c-.36.72.72,1.36,1.08.64.76-1.54,2.95-1.65,4.23-.72,1.66,1.2,2.08,3.75,1.71,5.65-.33,1.66-1.55,4-3.49,4.08s-2.85-2.25-3.16-3.89a10.68,10.68,0,0,1-.19-3.14c.11-.86.41-1.83,1.33-2.09a.62.62,0,0,0-.33-1.2Z" transform="translate(-378.39 -252.43)"/><path class="cls-2" d="M538.72,397.74l6.56.44c-7.77,4.48-10.14,14.38-11.77,23.19-1.55,8.37-3.11,16.89-2.16,25.35.84,7.46,3.6,14.56,5.6,21.8,2.62,9.48,4,19.25,5.3,29,.16,1.2.21,2.67-.8,3.33-.85.54-2,.19-2.9-.18l-14.87-5.81c-3.94-1.54-8-3.13-11.1-6-5.21-4.68-7.16-12-8-18.95-.68-6-.63-12.42,2.2-17.78,2.08-3.94,5.48-7,8-10.68,4.84-7.09,6.07-15.94,8.52-24.17s7-16.81,15.16-19.59" transform="translate(-378.39 -252.43)"/><path d="M538.72,399l6.56.44-.63-2.33c-5.67,3.35-8.66,9.35-10.43,15.47A105.28,105.28,0,0,0,532,423c-.81,4.39-1.55,8.79-1.92,13.24a53.68,53.68,0,0,0,.44,13.16,94.63,94.63,0,0,0,3.19,12.5,180.62,180.62,0,0,1,5.91,25.68c.35,2.23.67,4.47,1,6.7.14,1,.3,2.08.43,3.12.08.6.39,1.92-.17,2.38s-2.07-.35-2.63-.57l-3.48-1.36-6.28-2.45A87.51,87.51,0,0,1,517,490.49a19.1,19.1,0,0,1-7.69-8,33.59,33.59,0,0,1-3.1-10.34,44.14,44.14,0,0,1-.47-11.76,21.72,21.72,0,0,1,4.35-10.9c2.31-3.06,5-5.8,7-9.13,3.9-6.72,5.17-14.51,7.28-21.88,1.82-6.34,4.7-13.11,10.14-17.18a16.3,16.3,0,0,1,4.39-2.35c1.5-.53.86-2.95-.67-2.41-15.28,5.4-15.95,24.11-20.71,37a35.23,35.23,0,0,1-6.07,10.41c-2.56,3.09-5.17,6.09-6.66,9.87A30,30,0,0,0,503.06,466a53.55,53.55,0,0,0,1.67,11.4,27.3,27.3,0,0,0,4.74,9.95,24.18,24.18,0,0,0,9.45,6.86c4,1.79,8.21,3.29,12.32,4.89,2.25.88,4.49,1.77,6.74,2.64,1.62.62,3.53,1,4.8-.49,1.14-1.34.79-3.24.58-4.83-.32-2.31-.64-4.63-1-6.94-.67-4.55-1.41-9.08-2.35-13.58s-2.19-9-3.55-13.39A110.67,110.67,0,0,1,533,449.4c-1.66-9.36,0-18.83,1.78-28,1.22-6.52,2.69-13.82,7.26-18.93a16.39,16.39,0,0,1,3.87-3.16,1.26,1.26,0,0,0-.63-2.33l-6.56-.44c-1.6-.1-1.6,2.4,0,2.5Z" transform="translate(-378.39 -252.43)"/><path class="cls-4" d="M414.2,349.88c-3-1-5.1,2.75-6.89,5.33s-4.66,4.69-6.66,7.31c-4.93,6.47-4.27,15.55-2.34,23.45,2.19,9,5.7,17.57,9.2,26.12l17.17,42c1.33,3.25,2.87,6.75,5.94,8.45,3.58,2,8,.88,12.05.6,6.77-.48,14.87,1,19.27-4.21,4.06-4.77,2.11-12,0-17.86-5.53-15.08-11.1-30.25-19.13-44.15-3.33-5.79-7.08-11.32-10.39-17.12a131.33,131.33,0,0,1-9-19.34,24,24,0,0,0-3.18-6.61c-1.52-1.93-3.91-3.38-6.34-3.06s-4.55,2.9-3.76,5.23" transform="translate(-378.39 -252.43)"/><path d="M414.54,348.68c-4.22-1.19-6.5,3.47-8.55,6.24a66,66,0,0,1-4.89,5.15,19.21,19.21,0,0,0-3.68,5.57c-3.73,8.75-1.1,18.93,1.63,27.56,3.36,10.64,7.94,20.9,12.16,31.21,4.32,10.56,8.44,21.21,13,31.68,1.72,4,4.27,7.71,8.82,8.56a26,26,0,0,0,7.53-.1c2.15-.23,4.29-.31,6.46-.33,4.05,0,8.35,0,12.11-1.67a11.24,11.24,0,0,0,6.39-9.4c.41-4.4-1.07-8.82-2.56-12.9-1.87-5.13-3.76-10.25-5.75-15.34a207.21,207.21,0,0,0-13.58-29.08c-2.79-4.81-5.86-9.45-8.71-14.23a134.06,134.06,0,0,1-7.41-14.28c-1.12-2.51-2.14-5.06-3.09-7.64a24.47,24.47,0,0,0-3.16-6.5c-2.54-3.31-7.59-5.34-11-2a5.24,5.24,0,0,0-1.43,5.1,1.25,1.25,0,0,0,2.41-.67c-.51-1.83,1.17-3.54,2.94-3.69,2.21-.19,4.22,1.47,5.38,3.18a29.64,29.64,0,0,1,2.8,6.27q1.25,3.3,2.67,6.53c4,9.2,9.38,17.54,14.58,26.08a187.77,187.77,0,0,1,13.15,26.55c1.86,4.56,3.61,9.15,5.33,13.76a108.54,108.54,0,0,1,4.36,12.77c.86,3.71,1.12,8.15-1.64,11.17-2.57,2.81-6.56,3.27-10.16,3.4-4,.14-7.89.17-11.86.56a14.68,14.68,0,0,1-6.72-.42,9.06,9.06,0,0,1-4.4-4.24,50.64,50.64,0,0,1-2.65-5.92l-3-7.38-5.94-14.53c-3.9-9.53-8-19-11.62-28.64a137.93,137.93,0,0,1-4.66-14.3,44.86,44.86,0,0,1-1.67-12.51,18.85,18.85,0,0,1,3.92-11.53c1.37-1.64,3-3,4.45-4.6a53.28,53.28,0,0,0,3.56-4.74c.89-1.19,2.14-2.8,3.81-2.33a1.25,1.25,0,0,0,.67-2.41Z" transform="translate(-378.39 -252.43)"/><path d="M437.46,437.35a39.22,39.22,0,0,0-10.23-12.72,22,22,0,0,0-14.68-4.73c-.8,0-.8,1.29,0,1.25A20.88,20.88,0,0,1,427,426a39.34,39.34,0,0,1,9.41,12c.37.71,1.44.08,1.07-.63Z" transform="translate(-378.39 -252.43)"/><path class="cls-3" d="M412.9,348.27a54.43,54.43,0,0,0-1.46,41.23,107.87,107.87,0,0,0,7.3,14.73c10.66,18.95,21.44,38,35,54.93,9.85,12.29,22,23.95,37.44,27.22a21.86,21.86,0,0,0,11.16-.09c3.59-1.14,6.82-3.88,7.78-7.52,1.42-5.37-2.24-11.08-1-16.48a18.94,18.94,0,0,1,3-5.84L522,441.78a23.79,23.79,0,0,0,3.25-6.11c1.4-4.69-.23-9.89,1.16-14.59a27.53,27.53,0,0,1,3.51-6.65A74.67,74.67,0,0,0,537.55,398l-9.35-2a5,5,0,0,1-2.4-1,6.82,6.82,0,0,1-1.34-3c-2.05-6.25-9.87-8.31-14.23-13.24-2.21-2.49-3.46-5.66-4.61-8.79-2.24-6.09-4.27-12.36-7.8-17.81-3.64-5.63-8.95-10.59-10.06-17.2-.39-2.31-.23-4.69-.81-7s-2.19-4.52-4.51-4.8c-3.9-.48-6,4.25-8.29,7.42-2.67,3.67-6.89,5.84-10.95,7.87-5.55,2.78-11.45,5.63-17.64,5.14-4-.31-7.68-2-11.61-2.55a21.22,21.22,0,0,0-14.63,3.3,12.29,12.29,0,0,0-3.74,3.65c-1,1.71-1.46,3.74-2.46,5.47-1.34,2.31-3.63,3.94-4.94,6.26s-1,6,1.53,6.78" transform="translate(-378.39 -252.43)"/><path d="M411.82,347.64A55.92,55.92,0,0,0,407,374.57a55.08,55.08,0,0,0,2.69,13.63,82.21,82.21,0,0,0,6.18,13.37c9.59,17.41,19.47,34.84,31.25,50.89,10.07,13.72,22.09,28,38.69,33.7,7.76,2.69,18.35,4,23.9-3.54,2.59-3.53,2.22-7.74,1.39-11.8a27.24,27.24,0,0,1-.87-6.54,13,13,0,0,1,2.58-6.46c2.88-4.41,5.85-8.78,8.77-13.17a55.94,55.94,0,0,0,3.86-6.14A16.33,16.33,0,0,0,527,432c.12-2.46-.13-4.92,0-7.39a14.89,14.89,0,0,1,2.26-6.86A112.06,112.06,0,0,0,536.22,405c.95-2.19,1.79-4.41,2.54-6.67a1.27,1.27,0,0,0-.87-1.54l-5.62-1.21-2.8-.61a6.26,6.26,0,0,1-2.79-.87c-.94-.86-1.06-2.77-1.61-3.91a12.42,12.42,0,0,0-2.36-3.25c-4-4-9.76-5.91-12.89-10.79-1.93-3-3-6.51-4.2-9.84a105.38,105.38,0,0,0-4.13-10.16,54.18,54.18,0,0,0-5.6-8.83,51.12,51.12,0,0,1-5.48-8.22,16.41,16.41,0,0,1-1.44-4.48c-.33-2-.26-4-.62-6-.5-2.82-2.24-5.86-5.24-6.53-6-1.36-8.49,6.85-12,10.05a36.6,36.6,0,0,1-8.58,5.31,53,53,0,0,1-10.67,4.38,21.77,21.77,0,0,1-11.38-.43c-3.53-.95-7-1.92-10.7-1.71A22.62,22.62,0,0,0,419,343.11a14.82,14.82,0,0,0-4.08,3.65c-1.19,1.64-1.65,3.59-2.52,5.38-1.54,3.21-5.1,5.17-6,8.72-.71,2.74.12,5.89,3,6.92,1.52.54,2.17-1.87.67-2.41-2.69-1-1-4.88.15-6.33,1-1.23,2.13-2.31,3.09-3.56a17,17,0,0,0,2.25-4.36,11,11,0,0,1,2.44-4.06,16.56,16.56,0,0,1,4.49-3,20.06,20.06,0,0,1,9.83-1.87c3.51.22,6.8,1.56,10.22,2.27a22.51,22.51,0,0,0,10.48-.34A54.59,54.59,0,0,0,463,340a48.83,48.83,0,0,0,8.43-4.89,25.26,25.26,0,0,0,5.55-6.46c1.18-1.78,2.92-4.63,5.45-4.16,3.49.64,3.61,5.5,3.81,8.16a21.12,21.12,0,0,0,2.72,9.1,75.42,75.42,0,0,0,5.47,7.81,49,49,0,0,1,5.07,8.27c1.55,3.24,2.77,6.62,4,10a49.92,49.92,0,0,0,3.93,9.25,22,22,0,0,0,6.69,6.58,44.37,44.37,0,0,1,6.81,5.06,9.69,9.69,0,0,1,2.32,3.63c.5,1.48.8,3,2.2,4s3.54,1.14,5.21,1.5l6.55,1.41-.87-1.54a74.08,74.08,0,0,1-5.7,13c-2.22,4-5.29,7.61-5.93,12.24s.69,9.4-1.2,13.74a39.73,39.73,0,0,1-3.59,5.92l-4.22,6.31L511.64,455a26,26,0,0,0-3.4,6.11c-1.34,4,.09,8.17.76,12.19.69,4.21-.39,8-4.11,10.42-3.88,2.51-8.75,2.39-13.12,1.49-16.49-3.39-28.88-16.35-38.83-29.12-11.79-15.13-21.44-31.79-30.85-48.47-4.67-8.28-9.61-16.51-11.62-25.92a53.41,53.41,0,0,1,1.13-26.45A50.18,50.18,0,0,1,414,348.9c.66-1.45-1.5-2.73-2.16-1.26Z" transform="translate(-378.39 -252.43)"/><path class="cls-5" d="M486.3,350.23a28.86,28.86,0,0,0,9.54,15.6,1.29,1.29,0,0,0,1.77,0,1.27,1.27,0,0,0,0-1.77,26.63,26.63,0,0,1-8.9-14.49c-.36-1.57-2.77-.91-2.41.66Z" transform="translate(-378.39 -252.43)"/><path class="cls-6" d="M480.41,356.92l8.36,12a1.27,1.27,0,0,0,1.71.44,1.26,1.26,0,0,0,.45-1.71l-8.36-12a1.25,1.25,0,1,0-2.16,1.26Z" transform="translate(-378.39 -252.43)"/><path class="cls-7" d="M488.29,364l4.19-2.13a1.26,1.26,0,0,0,.45-1.71,1.27,1.27,0,0,0-1.71-.45L487,361.81a1.26,1.26,0,0,0-.45,1.71,1.28,1.28,0,0,0,1.71.45Z" transform="translate(-378.39 -252.43)"/><path class="cls-8" d="M488.94,371.57a48.67,48.67,0,0,0-11.57-13.35,1.29,1.29,0,0,0-1.76,0c-1.26,1.08-.53,2.71.08,3.91l2.5,4.95,4.93,9.74c.73,1.44,2.89.18,2.16-1.26l-4.17-8.24-2.05-4.05-1.06-2.1c-.15-.3-.33-.6-.46-.9a2.06,2.06,0,0,1-.12-.35c0-.18,0-.15-.05.07h-1.76a47.07,47.07,0,0,1,11.18,12.84,1.25,1.25,0,0,0,2.15-1.26Z" transform="translate(-378.39 -252.43)"/><path class="cls-9" d="M482,371.76l2.31-.82a1.31,1.31,0,0,0,.75-.58,1.28,1.28,0,0,0,.12-1,1.3,1.3,0,0,0-.57-.75,1.27,1.27,0,0,0-1-.12l-2.3.82a1.36,1.36,0,0,0-.75.58,1.29,1.29,0,0,0-.12,1,1.26,1.26,0,0,0,.57.75,1.2,1.2,0,0,0,1,.12Z" transform="translate(-378.39 -252.43)"/><path class="cls-10" d="M471.45,366.17a53.58,53.58,0,0,0,8.39,12.36c1.09,1.19,2.85-.58,1.77-1.77a50.91,50.91,0,0,1-8-11.85,1.25,1.25,0,1,0-2.16,1.26Z" transform="translate(-378.39 -252.43)"/><path class="cls-11" d="M471.58,364.06c-1.63-2.29-4.86-1.39-5.89,1a7.64,7.64,0,0,0,1.27,7.67,4.69,4.69,0,0,0,3.36,1.46,4.15,4.15,0,0,0,2-.56c.21-.12.41-.25.61-.38a3.87,3.87,0,0,0,.73-.41c.16-.08.07-.16-.28-.25a2.55,2.55,0,0,1,0,.39c0,.34,0,.69,0,1v2.76l0,5.17a1.25,1.25,0,0,0,2.5,0c0-2.88,0-5.75,0-8.62,0-1.09-.14-2.21-1.21-2.78a3,3,0,0,0-2.92.48c-.82.51-1.45.91-2.4.42a3.37,3.37,0,0,1-1.51-2.45,5.29,5.29,0,0,1,.12-2.9c.14-.35,1-1.36,1.48-.75.92,1.29,3.09.05,2.15-1.26Z" transform="translate(-378.39 -252.43)"/><path class="cls-12" d="M458.86,369.17a156.78,156.78,0,0,0,10.55,15.72,1.29,1.29,0,0,0,1.71.45,1.26,1.26,0,0,0,.45-1.71A156.78,156.78,0,0,1,461,367.91a1.25,1.25,0,0,0-2.16,1.26Z" transform="translate(-378.39 -252.43)"/><path class="cls-13" d="M457.7,367.94c-2.92,3.07-2.89,8-.68,11.45,2.4,3.8,6.89,5.69,11.18,6.31a1.31,1.31,0,0,0,1.54-.87,1.26,1.26,0,0,0-.87-1.54c-3.5-.5-7.31-1.81-9.45-4.8-1.81-2.52-2.21-6.4.05-8.78,1.1-1.17-.66-2.94-1.77-1.77Z" transform="translate(-378.39 -252.43)"/><path class="cls-14" d="M447,378c1.26-.93,2.87.46,3.77,1.34a36.76,36.76,0,0,1,4,4.61c1,1.35,2.08,3.09,1.8,4.84a2.66,2.66,0,0,1-2.64,2.43,1.26,1.26,0,0,0-1.25,1.25,1.29,1.29,0,0,0,1.25,1.25c2.3.21,4.18-1.59,4.88-3.64.83-2.41-.22-5-1.58-7a31.6,31.6,0,0,0-5.23-6c-1.66-1.44-4.23-2.78-6.29-1.26a1.3,1.3,0,0,0-.45,1.71A1.27,1.27,0,0,0,447,378Z" transform="translate(-378.39 -252.43)"/><path class="cls-3" d="M425,350.28c-4.09-.25-8.48-.42-11.95,1.74-4.6,2.86-6.08,8.9-6,14.31.22,12.08,6.13,23.22,11.89,33.84l9,16.64a122,122,0,0,0,10.12,16.51,124.41,124.41,0,0,0,8.49,9.58c5.34,5.62,10.73,11.28,17.11,15.69s13.9,7.52,21.66,7.41a13,13,0,0,0,5.51-1.07,17,17,0,0,0,4.67-3.8c7.25-7.48,14.6-15.1,19.36-24.36a53.44,53.44,0,0,0,4.8-34.88,24,24,0,0,0-2.36-7,18.84,18.84,0,0,0-4.89-5.52,23.47,23.47,0,0,0-37.66,15.4c-.34,2.53-.34,5.31-2,7.28s-5.66,1.82-6-.71a5.78,5.78,0,0,0-2.86,3c.06-1.91-3-1.25-4.86-1.62-2.69-.54-3.25-4-3.65-6.76-.9-6-3.89-11.4-6.83-16.68l-20.52-36.85c-.72-1.29-1.91-2.8-3.33-2.38" transform="translate(-378.39 -252.43)"/><path d="M425,349c-5-.3-10.44-.34-14.35,3.27-3.35,3.08-4.59,7.85-4.8,12.25-.54,11.14,4.41,21.88,9.48,31.49,2.89,5.49,5.89,10.91,8.85,16.36s5.69,10.73,8.93,15.86a90.22,90.22,0,0,0,11,13.8c3.92,4.16,7.83,8.34,12.1,12.14,8.12,7.24,18.36,13.42,29.61,13a12.88,12.88,0,0,0,7.42-2.28,46.5,46.5,0,0,0,5.66-5.48,144.34,144.34,0,0,0,11-12.49,57.37,57.37,0,0,0,12-30.74,52.86,52.86,0,0,0-1.34-16.39,20.54,20.54,0,0,0-8.72-12.44,25,25,0,0,0-27.76.19,25.54,25.54,0,0,0-8.66,10.59,24.19,24.19,0,0,0-1.85,6.61c-.27,2.08-.16,5.3-2,6.77-1,.79-3.24,1-3.54-.53a1.26,1.26,0,0,0-1.83-.75,7.2,7.2,0,0,0-3.31,3.45l2.33.63c-.09-2-1.77-2.57-3.51-2.69a10,10,0,0,1-2.56-.21,3,3,0,0,1-1.68-2.05c-.78-2.17-.84-4.56-1.44-6.78a43.24,43.24,0,0,0-3-7.69c-2.62-5.39-5.73-10.57-8.65-15.81l-9.17-16.47-5.07-9.1c-1.24-2.22-2.67-5.29-5.72-4.7-1.57.31-.91,2.72.67,2.41,1-.19,1.79,1.58,2.17,2.25q1.08,1.95,2.17,3.9l4.22,7.59,8.45,15.17c2.75,4.92,5.62,9.8,8.18,14.83a44,44,0,0,1,3,7.23c.66,2.17.87,4.4,1.38,6.6.46,1.91,1.32,3.95,3.22,4.81a7.31,7.31,0,0,0,2.75.48c.33,0,2,0,2.05.23.05,1.13,1.78,1.84,2.33.63a5.07,5.07,0,0,1,2.41-2.55l-1.84-.75c.7,3.7,5.85,3.64,8,1.36,1.59-1.69,1.94-4.13,2.2-6.33a26.71,26.71,0,0,1,1.44-6.56,22.31,22.31,0,0,1,34.63-9.63,17.19,17.19,0,0,1,4.86,6,28.34,28.34,0,0,1,2.1,7.63,52.09,52.09,0,0,1-4.63,31.2c-4.77,9.67-12.39,17.54-19.84,25.18-1.83,1.87-3.67,3.48-6.32,4a22.68,22.68,0,0,1-8.13-.22,39.57,39.57,0,0,1-14.52-6.07,77.66,77.66,0,0,1-12.33-10.42c-4-4-8-8.12-11.7-12.43-7.48-8.75-12.46-19.45-17.91-29.5-5.27-9.69-11.21-19.43-13.9-30.24-2-8.11-2.91-21.92,7.92-24a30.77,30.77,0,0,1,7.49-.15c1.6.1,1.6-2.4,0-2.5Z" transform="translate(-378.39 -252.43)"/><path d="M462.47,415a44.6,44.6,0,0,0,9.62,22.48c.51.62,1.39-.27.88-.89A43.05,43.05,0,0,1,463.72,415c-.1-.79-1.35-.8-1.25,0Z" transform="translate(-378.39 -252.43)"/><path d="M470.51,412.07l.68,13.17c.16,3.11-.11,6.95,2.32,9.32.58.56,1.46-.32.89-.89a6.83,6.83,0,0,1-1.74-4.5c-.16-1.74-.2-3.5-.29-5.25l-.61-11.85c0-.8-1.29-.81-1.25,0Z" transform="translate(-378.39 -252.43)"/><path d="M415.35,382.56c6.84,10,18.72,14.4,27.34,22.51.58.55,1.47-.33.88-.89-8.52-8-20.39-12.38-27.14-22.25-.45-.66-1.53,0-1.08.63Z" transform="translate(-378.39 -252.43)"/><path d="M443.84,405a59.3,59.3,0,0,0-16.65-26.66c-.59-.54-1.47.34-.88.89a58,58,0,0,1,16.33,26.1c.23.77,1.44.44,1.2-.33Z" transform="translate(-378.39 -252.43)"/><path d="M492.06,418.46a55.62,55.62,0,0,1,12.29,14.61.63.63,0,0,0,1.08-.63A56.57,56.57,0,0,0,493,417.58c-.62-.52-1.51.36-.89.88Z" transform="translate(-378.39 -252.43)"/><path d="M502.56,415.89l.41,7.24c0,.8,1.3.8,1.25,0l-.41-7.24c-.05-.8-1.3-.8-1.25,0Z" transform="translate(-378.39 -252.43)"/><path class="cls-3" d="M487.48,328.54c-1.88-1-.73-4.23,1.34-4.72s4.1.73,5.88,1.89L521,342.88c4.56,3,9.2,6,14.4,7.62,4.51,1.41,9.28,1.71,13.88,2.75s9.28,3,12.08,6.77c1.9,2.56,2.76,5.73,3.41,8.86.95,4.59,1.5,9.5-.19,13.88-1.89,4.92-6.44,8.5-11.44,10.17s-10.43,1.65-15.66,1a25.23,25.23,0,0,1-10-3c-3.07-1.85-5.39-4.7-7.61-7.52a422.35,422.35,0,0,1-32.51-47.8c-1.64-2.81-2.85-7.2.06-8.67" transform="translate(-378.39 -252.43)"/><path d="M488.11,327.46c-.77-.47-.09-1.73.44-2.13,1.39-1.08,3.57.24,4.79,1,3.49,2.15,6.88,4.48,10.31,6.73,6.79,4.44,13.51,9,20.39,13.29a51.45,51.45,0,0,0,9.73,4.94,66,66,0,0,0,11.42,2.46c6.58,1.1,13.8,3.06,16.68,9.77a34.52,34.52,0,0,1,2.4,10.61,16.84,16.84,0,0,1-1.95,10.29c-3.56,5.91-10.61,8.38-17.2,8.64-7.26.29-15.34-.72-20.65-6.11a87.05,87.05,0,0,1-7-8.63q-3.57-4.67-7-9.43-7.71-10.69-14.73-21.84-3.51-5.57-6.85-11.25c-1.07-1.82-3.58-6.25-.86-7.77,1.41-.78.15-2.94-1.26-2.16-2.72,1.52-2.71,4.8-1.84,7.44a24.07,24.07,0,0,0,2.28,4.57q1.68,2.83,3.39,5.64,6.93,11.34,14.57,22.22c4.94,7,10,14.06,15.49,20.66a22.63,22.63,0,0,0,9.22,7.07A38,38,0,0,0,542,395.55c7.46.3,15.45-1.48,20.61-7.27,5.42-6.1,4.76-14.37,2.9-21.77-.92-3.69-2.5-7.22-5.47-9.71a23.6,23.6,0,0,0-9.49-4.54c-4.21-1.06-8.56-1.37-12.77-2.4a41.11,41.11,0,0,1-11.48-5.08c-7.81-4.76-15.35-10-23-15L497.41,326a25.64,25.64,0,0,0-5.41-3.13c-2.91-1-6.4.21-6.69,3.63a3.18,3.18,0,0,0,1.54,3.12c1.38.84,2.63-1.32,1.26-2.16Z" transform="translate(-378.39 -252.43)"/><path class="cls-4" d="M483.64,325.14a8.47,8.47,0,0,1,8,1.36,16.68,16.68,0,0,1,5,6.73,2.88,2.88,0,0,1,.37,1.58c-.22,1.44-2.21,1.82-2.95,3.06-.65,1.08-.19,2.45-.15,3.71s-1,2.83-2.12,2.37a2.3,2.3,0,0,1-.92-.86A30.48,30.48,0,0,1,486,332.58c-.61-2.51-.54-5.79,1.79-6.9" transform="translate(-378.39 -252.43)"/><path d="M484,326.35c3-1.14,6.12.12,8.26,2.32a16.38,16.38,0,0,1,2.74,4c.24.48,1,1.51.79,2.05s-.72.69-1,.91a4.38,4.38,0,0,0-2.24,3.35c-.05.61.68,3.56-.25,3.8-.05,0-.05,0-.22-.2s-.41-.58-.61-.87c-.51-.77-1-1.55-1.43-2.35a29.29,29.29,0,0,1-2-4.59c-.71-2.13-2.2-6.57.5-8,1.43-.75.16-2.9-1.26-2.16-3.37,1.74-3,6.18-2.12,9.25a32.34,32.34,0,0,0,2.36,6,29.94,29.94,0,0,0,1.62,2.8,6.84,6.84,0,0,0,1.88,2.25c1.78,1.08,3.58-.42,4.06-2.15a7,7,0,0,0,0-2.66,2,2,0,0,1,.79-2.22c1.4-1,2.84-2.05,2.38-4.05a15.41,15.41,0,0,0-2.91-5.42c-2.73-3.6-7.42-6.2-12-4.48-1.49.57-.84,3,.67,2.42Z" transform="translate(-378.39 -252.43)"/><path d="M543.91,351.79c-4.54-1-9.27-1.19-13.28,1.52-3.52,2.39-6.47,6-9,9.37-4.8,6.58-7.6,16.15-2.19,23.27,1,1.27,3.13,0,2.16-1.26-4.8-6.32-2.24-14.54,1.94-20.41a39.18,39.18,0,0,1,7.78-8.42c3.57-2.69,7.71-2.59,11.9-1.66,1.56.35,2.23-2.06.66-2.41Z" transform="translate(-378.39 -252.43)"/><path d="M542.25,361.32a39.94,39.94,0,0,1,12.29,7.7c3.35,3.13,6.43,8,3.87,12.61-.39.7.69,1.33,1.08.63,2.63-4.68.14-9.91-3.3-13.38a40,40,0,0,0-13.61-8.76c-.75-.3-1.07.91-.33,1.2Z" transform="translate(-378.39 -252.43)"/><path d="M545.63,369.1a47.85,47.85,0,0,1,3.79,19.07.63.63,0,0,0,1.25,0,49.36,49.36,0,0,0-4-19.7c-.31-.74-1.39-.11-1.08.63Z" transform="translate(-378.39 -252.43)"/><path class="cls-15" d="M493.56,336.87l6.34-2.54c4-1.61,8.62-3.23,12.59-1.45a2.79,2.79,0,0,1,1.26.95,3.31,3.31,0,0,1,.34,1.76l.22,22.69a6,6,0,0,1-.19,1.93c-.52,1.65-2.27,2.52-3.76,3.4a21.76,21.76,0,0,0-9.48,11.7c-5.54-8.66-7-19.22-8.34-29.4-.39-3-.76-6.15.33-9" transform="translate(-378.39 -252.43)"/><path d="M493.89,338.08c4.15-1.66,8.43-3.88,12.87-4.58a10.82,10.82,0,0,1,3.11-.07c.92.12,2.62.39,2.93,1.4a12.44,12.44,0,0,1,.07,3.23l0,3.94.14,14.3a16.28,16.28,0,0,1,0,3.2,3.5,3.5,0,0,1-1.77,2.13,45.3,45.3,0,0,0-4.45,3A23.28,23.28,0,0,0,499.67,375l2.29-.3c-3.43-5.42-5.28-11.56-6.49-17.82-.6-3.14-1.06-6.3-1.48-9.47-.45-3.35-1.09-6.84.09-10.11.54-1.52-1.87-2.17-2.42-.67-1.23,3.43-.66,7.05-.2,10.57.44,3.32.9,6.63,1.52,9.92,1.25,6.6,3.21,13.12,6.82,18.84a1.26,1.26,0,0,0,2.28-.3,20.57,20.57,0,0,1,7.46-10c1.58-1.12,3.53-1.87,4.81-3.36,1.47-1.71,1.21-3.87,1.19-6l-.15-16,0-3.95a6.09,6.09,0,0,0-.52-3.13c-1.06-1.74-3.77-2.24-5.63-2.34a20,20,0,0,0-7.58,1.47c-2.83,1-5.6,2.22-8.4,3.34-1.47.59-.83,3,.67,2.41Z" transform="translate(-378.39 -252.43)"/><path class="cls-16" d="M519.63,371.21a35.93,35.93,0,0,0,12.06-.46,4.65,4.65,0,0,0,2.2-.92,4.13,4.13,0,0,0,1-1.8c1.77-5.39-.43-11.5-4.31-15.64s-9.18-6.65-14.51-8.59a10.32,10.32,0,0,0-3.8-.84,3.77,3.77,0,0,0-3.27,1.8,1.08,1.08,0,0,0-.14.72c.13.56.83.7,1.39.8a7.8,7.8,0,0,1,5.59,4.1c-1.15,1-2.89.88-4.35.44a14,14,0,0,0-4.41-1.06c-1.52.05-3.15,1.26-3,2.76a3.8,3.8,0,0,0,.55,1.37l5,8.95a23.52,23.52,0,0,0,3.24,4.82,11.9,11.9,0,0,0,6.71,3.54" transform="translate(-378.39 -252.43)"/><path d="M519.63,372.46a36.32,36.32,0,0,0,8.84.06c2.28-.26,5.38-.39,6.84-2.45,1.26-1.78,1.54-4.43,1.46-6.55a17.87,17.87,0,0,0-1.72-6.77c-2.12-4.57-6-8-10.35-10.46a50.49,50.49,0,0,0-6.72-3.11c-2.32-.9-4.93-2-7.43-1.16-1.91.66-4.48,3.68-1.77,5.11,1,.53,2.2.5,3.23,1.05a6.81,6.81,0,0,1,2.77,2.83l.19-1.51c-1.31,1-3.37,0-4.71-.41a6.91,6.91,0,0,0-4.78-.23,3.94,3.94,0,0,0-2.56,3c-.2,1.71,1.1,3.34,1.89,4.75,1.93,3.45,3.66,7.18,6,10.36a13.46,13.46,0,0,0,8.51,5.4c1.58.28,2.25-2.13.67-2.42a11.2,11.2,0,0,1-7.5-4.92c-1.88-2.8-3.4-5.88-5-8.83l-1.2-2.13c-.31-.56-1.06-1.46-.79-2.15.56-1.42,2.72-.9,3.74-.59,2.61.8,5.14,1.75,7.54-.11a1.25,1.25,0,0,0,.2-1.51,9.22,9.22,0,0,0-3.67-3.73,9.11,9.11,0,0,0-2.31-.88,4.8,4.8,0,0,0-.64-.12c-.36,0-.17,0-.16,0s.42-.21.55-.3a2.38,2.38,0,0,1,.68-.33c1.94-.67,4.33.58,6.12,1.28a48.46,48.46,0,0,1,5.57,2.59c6.66,3.68,13.24,11.06,10.68,19.27a2.53,2.53,0,0,1-2.21,2,29.86,29.86,0,0,1-4,.62,36.71,36.71,0,0,1-7.91-.16c-1.59-.2-1.58,2.3,0,2.5Z" transform="translate(-378.39 -252.43)"/><path class="cls-16" d="M496.19,384.62a6.13,6.13,0,0,1-4.4-3.72,16.44,16.44,0,0,1-1.1-5.87c-.33-6.4,0-13.1,3-18.74,2.12,1.54,2.68,4.39,3.24,6.95a61.38,61.38,0,0,0,3,9.75c.3.75.83,1.63,1.64,1.56a1.88,1.88,0,0,0,1.1-.7,22.62,22.62,0,0,0,4.83-22.29c-.34-1-.53-2.4.45-2.72a1.61,1.61,0,0,1,1,.09c2,.77,3.07,2.95,3.92,4.94L517,363.4l2.84-4.84a58.31,58.31,0,0,1,3.58,12.21,20.48,20.48,0,0,1-1.72,12.41,15.45,15.45,0,0,1-5.15,5.65,6.05,6.05,0,0,1-2.94,1.13c-2,.11-3.66-1.29-5.32-2.38a20.07,20.07,0,0,0-11.66-3.28" transform="translate(-378.39 -252.43)"/><path d="M496.52,383.41c-5.06-1-4.67-8.14-4.68-12,0-5,.6-10,3-14.46l-2,.26c1.69,1.31,2.22,3.33,2.68,5.33.54,2.4,1.12,4.77,1.88,7.11.58,1.75,1.13,4.63,2.78,5.75,1.93,1.31,3.54-.68,4.64-2.08A23.71,23.71,0,0,0,509.62,362a23.41,23.41,0,0,0,.11-6.2,24.48,24.48,0,0,0-.53-2.94c-.18-.72-.9-2-.71-2.77.13-.47,0,0,.17,0a4.09,4.09,0,0,1,.89.6,5.52,5.52,0,0,1,1,1.28,25.48,25.48,0,0,1,1.61,3.38l3.69,8.63a1.25,1.25,0,0,0,2.15,0l2.85-4.84-2.29-.3c3,8,6.61,18.39.49,25.93a10.88,10.88,0,0,1-4.87,3.75c-2.07.6-3.9-1.16-5.51-2.2a21.57,21.57,0,0,0-12.11-3.33,1.25,1.25,0,0,0,0,2.5,19.15,19.15,0,0,1,10.85,3A16.56,16.56,0,0,0,511.9,391a6.22,6.22,0,0,0,4.73-.8c6.52-3.76,8.9-11.47,8.11-18.61A55.84,55.84,0,0,0,521,358.23a1.27,1.27,0,0,0-2.28-.3l-2.84,4.84H518l-3.29-7.71c-.86-2-1.62-4.22-3.17-5.83-1.14-1.2-3.34-2.44-4.82-1.08s-.47,3.47-.05,5a21.5,21.5,0,0,1-.56,12.6,20.64,20.64,0,0,1-3.06,5.7c-.32.42-.66.83-1,1.21s-.41.65-.77.25a5.72,5.72,0,0,1-.65-1.57c-.27-.73-.53-1.45-.77-2.19-.86-2.58-1.45-5.21-2.09-7.85-.53-2.22-1.34-4.47-3.2-5.91a1.27,1.27,0,0,0-2,.25c-2.76,5.24-3.41,11.17-3.28,17,.11,4.84.53,12,6.51,13.15,1.57.3,2.24-2.11.66-2.41Z" transform="translate(-378.39 -252.43)"/><path d="M499,346.52a1.25,1.25,0,0,0,0-2.5,1.25,1.25,0,0,0,0,2.5Z" transform="translate(-378.39 -252.43)"/><path d="M497.42,345a1.74,1.74,0,0,0-.06.45,1.83,1.83,0,0,0,.07.46,2,2,0,0,0,.45.75,2.12,2.12,0,0,0,.34.27.36.36,0,0,0,.12.08,2,2,0,0,0,.4.17,2.44,2.44,0,0,0,.46.07h.12a2.51,2.51,0,0,0,.45-.08,1.81,1.81,0,0,0,.4-.19l.25-.19a1.23,1.23,0,0,0,.32-.55v0a.24.24,0,0,0,0-.08,2.31,2.31,0,0,0,.05-.46,2,2,0,0,0-.06-.48,3.89,3.89,0,0,0-.17-.41.64.64,0,0,0-.08-.14,2.06,2.06,0,0,0-.29-.37,2.28,2.28,0,0,0-.38-.3,2.8,2.8,0,0,0-.43-.19,2.67,2.67,0,0,0-.48-.08,1,1,0,0,0-.49.11,1.15,1.15,0,0,0-.66.66.89.89,0,0,0-.1.48l0,.34a1.33,1.33,0,0,0,.32.55l.25.19a1.2,1.2,0,0,0,.64.17h0l-.33-.05.16.05-.3-.13a.54.54,0,0,1,.15.09l-.25-.2.15.15-.2-.25a.59.59,0,0,1,.1.17l-.12-.3a1.46,1.46,0,0,1,.05.2l0-.33a1,1,0,0,1,0,.17l0-.33a.28.28,0,0,1,0,.13l.58-.74-.1.05.3-.12-.12,0,.33,0h-.15l.33,0-.16,0,.3.12a.83.83,0,0,1-.16-.09l.25.19a.46.46,0,0,1-.12-.12l.19.25a.75.75,0,0,1-.07-.12l.13.3a.5.5,0,0,1,0-.13l.05.34a.24.24,0,0,1,0-.12l-.05.33v0a1,1,0,0,0,0-.5,1,1,0,0,0-.15-.47,1.07,1.07,0,0,0-.32-.35.93.93,0,0,0-.43-.22l-.33-.05a1.29,1.29,0,0,0-.63.17l-.25.2a1.23,1.23,0,0,0-.32.55Z" transform="translate(-378.39 -252.43)"/><path d="M502.5,344.87l.44.36a.41.41,0,0,0,.2.12.53.53,0,0,0,.24.06.48.48,0,0,0,.24-.06.37.37,0,0,0,.2-.12l.1-.13a.59.59,0,0,0,.09-.32l0-.16a.62.62,0,0,0-.17-.28l-.44-.35a.37.37,0,0,0-.2-.13.53.53,0,0,0-.24-.06.48.48,0,0,0-.24.06.34.34,0,0,0-.2.13l-.1.12a.59.59,0,0,0-.09.32l0,.16a.61.61,0,0,0,.16.28Z" transform="translate(-378.39 -252.43)"/><path d="M518.62,366.11a20.05,20.05,0,0,1-2.55,12.61.63.63,0,0,0,1.08.63,21.13,21.13,0,0,0,2.72-13.24c-.1-.79-1.35-.8-1.25,0Z" transform="translate(-378.39 -252.43)"/><path d="M525.1,371.47A12.61,12.61,0,0,1,520.89,382c-.61.53.28,1.41.88.88a13.76,13.76,0,0,0,4.58-11.43c-.08-.8-1.33-.81-1.25,0Z" transform="translate(-378.39 -252.43)"/><path d="M513.17,378.57l1.45-1.39a.62.62,0,1,0-.88-.88l-1.45,1.39a.62.62,0,0,0,0,.88.64.64,0,0,0,.88,0Z" transform="translate(-378.39 -252.43)"/><path d="M517.6,385.77l1.09-1.31a.69.69,0,0,0,.18-.45.62.62,0,0,0-.18-.44.6.6,0,0,0-.44-.18.63.63,0,0,0-.44.18l-1.09,1.32a.66.66,0,0,0-.19.44.63.63,0,0,0,.19.44.59.59,0,0,0,.44.18.65.65,0,0,0,.44-.18Z" transform="translate(-378.39 -252.43)"/><path d="M498.43,377.3l-.53-2a.63.63,0,0,0-.77-.44.64.64,0,0,0-.43.77l.53,2a.62.62,0,1,0,1.2-.33Z" transform="translate(-378.39 -252.43)"/><path d="M518.51,353.13c.07-.1-.09.1,0,0a.6.6,0,0,1,.08-.08l.07-.08c.06-.05.11,0,0,0l.18-.12.09-.05c.07,0,.12,0,0,0a1.59,1.59,0,0,0,.2-.07l.2,0c.06,0-.16,0,0,0h.42c.13,0-.14,0,0,0l.22,0a.8.8,0,0,0,.2.07c-.1,0-.09,0,0,0l.09.05a1.22,1.22,0,0,0,.19.12c-.06,0-.11-.09,0,0a.27.27,0,0,1,.08.07l.08.08s.08.1,0,0,0,0,0,0l.07.11a.63.63,0,0,0,.85.23.65.65,0,0,0,.23-.86,2.52,2.52,0,0,0-2.09-1.22,2.49,2.49,0,0,0-2.18,1,.61.61,0,0,0,.23.85.63.63,0,0,0,.85-.22Z" transform="translate(-378.39 -252.43)"/><path d="M508.14,390.78A22.56,22.56,0,0,1,511,402.23a.63.63,0,0,0,1.25,0,24,24,0,0,0-3-12.09c-.39-.7-1.47-.07-1.08.64Z" transform="translate(-378.39 -252.43)"/><path d="M499.23,385.15c-1.35,1.59-2,3.72-2.86,5.62l-2.79,6.38c-.32.73.76,1.37,1.08.64l2.7-6.18c.44-1,.87-2,1.31-3a10.47,10.47,0,0,1,1.44-2.57c.52-.61-.36-1.49-.88-.88Z" transform="translate(-378.39 -252.43)"/><path d="M512.39,394a23,23,0,0,1,4.09,7.72c.24.76,1.45.44,1.21-.34a25,25,0,0,0-4.42-8.27.63.63,0,1,0-.88.89Z" transform="translate(-378.39 -252.43)"/><path d="M534.24,369.83l3,7.75a.63.63,0,0,0,1.21-.33l-3-7.76a.64.64,0,0,0-.77-.43.63.63,0,0,0-.43.77Z" transform="translate(-378.39 -252.43)"/><path d="M534.2,365.55a6.49,6.49,0,0,0,3.64,3.05.63.63,0,0,0,.77-.43.64.64,0,0,0-.44-.77l-.26-.09-.11-.05c.14.06,0,0,0,0s-.3-.14-.44-.22a4.53,4.53,0,0,1-.46-.3l-.2-.14c.11.09,0,0,0,0l-.1-.08a6.47,6.47,0,0,1-.73-.75c0-.05-.06-.08,0,0l-.09-.12-.14-.2c-.1-.16-.19-.31-.28-.48a.63.63,0,0,0-.85-.22.64.64,0,0,0-.23.86Z" transform="translate(-378.39 -252.43)"/><path d="M534.87,362.57l2.4-.27a.72.72,0,0,0,.44-.18.63.63,0,0,0-.44-1.07l-2.4.27a.69.69,0,0,0-.45.18.67.67,0,0,0-.18.44.63.63,0,0,0,.63.63Z" transform="translate(-378.39 -252.43)"/><path d="M529.48,370.17l.63,5.6a.65.65,0,0,0,.62.63.63.63,0,0,0,.63-.63l-.63-5.6a.63.63,0,1,0-1.25,0Z" transform="translate(-378.39 -252.43)"/><path d="M494.76,384.35a12.07,12.07,0,0,0-8.05,5.93c-.39.71.69,1.34,1.08.63a10.89,10.89,0,0,1,7.3-5.36c.78-.16.45-1.37-.33-1.2Z" transform="translate(-378.39 -252.43)"/><path d="M467,474.06a76.24,76.24,0,0,0,32.44,3.39c.79-.09.8-1.34,0-1.25a75.51,75.51,0,0,1-32.11-3.34c-.77-.25-1.1.95-.33,1.2Z" transform="translate(-378.39 -252.43)"/><path d="M467.82,473.28a55.37,55.37,0,0,1,11.78-2c.8-.05.81-1.3,0-1.25a57.08,57.08,0,0,0-12.11,2,.63.63,0,0,0,.33,1.21Z" transform="translate(-378.39 -252.43)"/><path d="M524.91,395.7a31,31,0,0,1-.38,16.48.63.63,0,0,0,1.21.33,32.31,32.31,0,0,0,.37-17.15c-.19-.77-1.4-.44-1.2.34Z" transform="translate(-378.39 -252.43)"/><path class="cls-3" d="M459.18,351.86a57.15,57.15,0,0,0-26.57-5.64c-7.33.24-14.57,1.89-21.91,1.89s-15.18-2-19.9-7.6a17.47,17.47,0,0,1-2.07-18.87,10.24,10.24,0,0,1,3.78-4.25c5-2.86,10.94.79,16.44,2.4,6,1.76,12.46.95,18.73.61a120.1,120.1,0,0,1,26,1.44c8.71,1.45,18.47,3.64,25.75-1.36,1.05-.73,2.22-1.64,3.47-1.37,2.07.45,2.13,3.42,1.35,5.39-3.56,8.88-13.51,13.52-18.53,21.67-1.54,2.5-3.22,5.71-6.16,5.67" transform="translate(-378.39 -252.43)"/><path d="M459.81,350.78a59.09,59.09,0,0,0-23.38-5.8c-8.56-.3-16.95,1.84-25.49,1.88-6.82,0-14.32-1.62-19-6.94a16.1,16.1,0,0,1-1.34-19c4.86-7.2,14-.62,20.25.59a49.5,49.5,0,0,0,12.46.39c4.28-.26,8.54-.49,12.82-.42a120,120,0,0,1,13,.93c4,.51,7.93,1.32,11.91,1.86a39.44,39.44,0,0,0,10.74.29,20.43,20.43,0,0,0,5-1.3,48.59,48.59,0,0,0,4.55-2.6c1.66-.91,2.21.4,2.06,1.9a10.16,10.16,0,0,1-1.68,4.1,34.83,34.83,0,0,1-6.19,7.19c-2.39,2.26-4.9,4.4-7.14,6.81a34.14,34.14,0,0,0-3,3.67c-.89,1.27-1.61,2.65-2.51,3.92s-1.85,2.28-3.35,2.32-1.61,2.55,0,2.5c3.49-.1,5.35-3.2,7-5.87a38.09,38.09,0,0,1,6.7-7.8c2.56-2.4,5.25-4.68,7.58-7.32,2.06-2.34,4.34-5.28,5-8.42.58-2.88-.84-6.83-4.5-5.68-1.78.56-3.2,2-4.89,2.76a17.63,17.63,0,0,1-5.53,1.43,45.83,45.83,0,0,1-12-.74c-4.26-.69-8.51-1.44-12.81-1.87a118.48,118.48,0,0,0-14.22-.57c-4.6.08-9.18.61-13.79.62a32.88,32.88,0,0,1-6.71-.56,40.67,40.67,0,0,1-5.9-1.83c-3.53-1.31-7.44-2.83-11.25-1.85-7.4,1.9-9.46,11.7-8.06,18.16,1.6,7.41,7.58,12.42,14.64,14.48,8.28,2.41,16.84.9,25.23,0a60.5,60.5,0,0,1,26.46,2.43,54.67,54.67,0,0,1,6.15,2.51c1.44.69,2.71-1.47,1.26-2.16Z" transform="translate(-378.39 -252.43)"/><path d="M461.22,349.47c-14.88-11.42-35.1-5-51.58-11.76a26,26,0,0,1-11.33-8.5c-.47-.64-1.56,0-1.08.64,11.39,15.66,33.22,11.06,49.66,14.69a34.29,34.29,0,0,1,13.7,6c.64.49,1.26-.59.63-1.08Z" transform="translate(-378.39 -252.43)"/><path d="M461.26,349.63a14.41,14.41,0,0,1-2.23-9.2c.08-.8-1.17-.79-1.25,0a15.48,15.48,0,0,0,2.4,9.83c.43.68,1.52.05,1.08-.63Z" transform="translate(-378.39 -252.43)"/><path d="M408.64,342.27a17,17,0,0,1-11.12-5.21c-.56-.58-1.44.31-.89.89a18.43,18.43,0,0,0,12,5.57c.8.05.8-1.2,0-1.25Z" transform="translate(-378.39 -252.43)"/><ellipse class="cls-17" cx="439.48" cy="298.08" rx="46.1" ry="44.09" transform="translate(-422.46 -173.83) rotate(-9.73)"/><ellipse class="cls-18" cx="447.39" cy="298.68" rx="43.83" ry="41.92" transform="translate(-422.44 -172.49) rotate(-9.73)"/><path class="cls-19" d="M405.08,267.45a31.06,31.06,0,0,0-25,24.22,17.58,17.58,0,0,0,.56,9.86,20.9,20.9,0,0,0,2.79,4.62c2.66,3.52,5.82,6.85,9.89,8.54s9.22,1.38,12.36-1.71a13.65,13.65,0,0,0,3.38-7c.8-3.64.68-7.93-2.06-10.44-2-1.85-4.89-2.27-7.52-3s-5.45-2.26-6-4.92a7.87,7.87,0,0,1,.57-4.24,35.47,35.47,0,0,1,8.58-13.5" transform="translate(-378.39 -252.43)"/><path d="M404.75,266.25a32.3,32.3,0,0,0-20.9,13.44,30.53,30.53,0,0,0-5,11.65,21.87,21.87,0,0,0-.23,7.61,16.73,16.73,0,0,0,3.18,7.1c2.72,3.78,6,7.5,10.32,9.48,3.85,1.77,8.57,2.05,12.34-.1,4-2.25,5.64-6.9,6.14-11.2s-.7-9-4.9-11c-3.58-1.74-12.2-1.85-11-7.8a26.35,26.35,0,0,1,3.45-7.92,35.75,35.75,0,0,1,5.3-6.71c1.15-1.13-.62-2.9-1.77-1.76A37,37,0,0,0,394,280.1c-.92,2.07-2,4.39-1.91,6.71a6.39,6.39,0,0,0,2.57,4.8,13.86,13.86,0,0,0,5.24,2.38c2.06.54,4.39.93,6.06,2.35,3.25,2.76,2.47,8.07,1.26,11.64a9,9,0,0,1-9.35,6.46c-4.42-.18-8.12-2.93-11-6.07a33,33,0,0,1-4.26-5.65,13.49,13.49,0,0,1-1.72-7.14,26,26,0,0,1,3.43-11.92,30.06,30.06,0,0,1,21.11-15c1.58-.26.91-2.67-.67-2.41Z" transform="translate(-378.39 -252.43)"/><circle class="cls-20" cx="20.36" cy="51.43" r="4.98"/><path class="cls-4" d="M404.38,358.75c-.65-1.81.71-3.69,2.12-5a26.23,26.23,0,0,1,23.32-6.28,25.46,25.46,0,0,1,18,16c2.43,6.88,1.69,14.46.26,21.61-.15.73-.54,1.66-1.29,1.57a1.48,1.48,0,0,1-.92-.68c-3.51-4.44-6.08-9.54-8.62-14.59l-6.55-13c-1.28-2.54-2.65-5.19-5-6.77-4.33-2.88-10.1-1.13-15,.7" transform="translate(-378.39 -252.43)"/><path d="M405.58,358.41c-.59-2.08,1.86-3.93,3.29-5.05a25.17,25.17,0,0,1,17.27-5.2,24.16,24.16,0,0,1,18.79,12,26,26,0,0,1,3.22,12.66,46,46,0,0,1-.45,7.14c-.15,1.16-.34,2.31-.56,3.46a13,13,0,0,1-.32,1.63c0,.06-.21.46-.21.47l.35-.18-.2-.23a8.22,8.22,0,0,0-1.14-1.53c-.34-.49-.68-1-1-1.48-.65-1-1.28-2-1.88-3-1.16-2-2.23-4.05-3.28-6.11-2.24-4.41-4.45-8.84-6.68-13.26-2-4.08-4-8.6-8.66-10.25s-9.49.07-13.73,1.65c-1.49.56-.84,3,.67,2.41,4.14-1.54,9.51-3.53,13.67-1,1.95,1.16,3.16,3.18,4.2,5.14,1.27,2.39,2.44,4.83,3.66,7.25,2.4,4.78,4.71,9.63,7.33,14.3a60.11,60.11,0,0,0,4.08,6.39c1,1.41,2.74,3.5,4.48,1.62a5.12,5.12,0,0,0,1-2.65c.26-1.35.48-2.71.67-4.07a50,50,0,0,0,.51-7.64,28.66,28.66,0,0,0-3.56-13.92,26.79,26.79,0,0,0-20.36-13.17A27.69,27.69,0,0,0,412,348.48a26.76,26.76,0,0,0-6.09,4.12c-1.83,1.65-3.47,3.9-2.74,6.48a1.25,1.25,0,0,0,2.41-.67Z" transform="translate(-378.39 -252.43)"/><path d="M440.23,374.08a35.09,35.09,0,0,1,7.18-6.31c.67-.45,0-1.53-.63-1.08a36.56,36.56,0,0,0-7.43,6.5c-.52.61.36,1.5.88.89Z" transform="translate(-378.39 -252.43)"/><path d="M534.21,434a154.32,154.32,0,0,0,5.89,25.72q1,3.13,2.16,6.23c.39,1,.78,2.06,1.18,3.09a7.53,7.53,0,0,1,.8,3.14,2.81,2.81,0,0,1-.42,1.32c-.48.72-1.14.7-1.9.81a2,2,0,0,0-1.43.67,1.32,1.32,0,0,0,.63,2.13c.79.13,1.12-1.07.33-1.21a.73.73,0,0,1,.85-.37l.54-.05a3,3,0,0,0,.84-.24,3,3,0,0,0,1.3-1.26,5.26,5.26,0,0,0,0-4.47c-1.37-3.83-2.87-7.59-4.08-11.48a154.61,154.61,0,0,1-5.47-24.36c-.11-.79-1.32-.45-1.2.33Z" transform="translate(-378.39 -252.43)"/><path class="cls-21" d="M482.82,300.64c1.13,5.75-1.1,11.75-4.67,16.39s-8.39,8.16-13.16,11.56a8.19,8.19,0,0,1-3.27,1.66,2.85,2.85,0,0,1-3.13-1.4c-.57-1.32.32-2.76,1-4a14.1,14.1,0,0,0,1.56-7.13,1.92,1.92,0,0,0-.4-1.28c-.45-.47-1.21-.4-1.85-.53-2.44-.52-2.8-4.17-1.24-6.12S461.75,307,464,306a13.65,13.65,0,0,0,6.89-6.37c1.38-3.09,1.58-7.37,4.74-8.57,2.31-.88,5,.69,6.16,2.85s1.28,4.74,1.34,7.21" transform="translate(-378.39 -252.43)"/></svg>