<svg id="Layer_3" data-name="Layer 3" xmlns="http://www.w3.org/2000/svg" viewBox="0 0 313.06 318.82"><defs><style>.cls-1{fill:#161616;}.cls-2{fill:#8e8e8e;}.cls-3{fill:#fcfcfc;}.cls-4{fill:#3fb29c;}.cls-5{fill:#8200ff;}.cls-6{fill:#5d5a5e;}.cls-7{fill:#565556;}.cls-8{fill:#b4b0b5;}.cls-9{fill:#827487;}.cls-10{fill:#524b56;}</style></defs><title>green</title><path class="cls-1" d="M85.63,539.26a986.51,986.51,0,0,1-17.41-232L112,341c3.13,2.42,6.4,5,7.86,8.7,2.43,6.17-.86,13.17-3.75,19.36-7.24,15.5-12.39,31.83-16.5,48.32-7.79,31.26-11.91,63.15-16,95" transform="translate(-66.09 -258.64)"/><path d="M86.83,538.93A992.41,992.41,0,0,1,69.47,307.26l-1.88,1.08,25,19.3c7.54,5.82,16.54,11.23,23.08,18.15,8.33,8.81.21,20.36-3.62,29.37a248.08,248.08,0,0,0-8.8,24.35c-11.22,36.67-16,75-20.91,112.87-.2,1.59,2.3,1.57,2.5,0,4.22-32.63,8.46-65.36,16.65-97.27a266,266,0,0,1,15.7-45.37c2.42-5.27,5.36-11,4.66-17-.66-5.65-4.73-9.26-9-12.57-14.62-11.4-29.37-22.65-44.05-34-.81-.62-1.85.24-1.88,1.08A995.33,995.33,0,0,0,84.42,539.59c.31,1.58,2.72.91,2.41-.66Z" transform="translate(-66.09 -258.64)"/><path class="cls-1" d="M138.07,567.3l5.36-130.66a11,11,0,0,1,.67-4c2.06-4.75,9.68-4.25,12.66-.22s2.66,9.62,2.13,14.71A482,482,0,0,1,139,542.6" transform="translate(-66.09 -258.64)"/><path d="M139.32,567.3l4.14-101,1-24.75c.18-4.41-.48-11,5.62-11.13,5.35-.08,7.49,5.12,7.84,9.65.6,7.71-1.27,16.12-2.33,23.72q-1.72,12.32-4.1,24.53a492.59,492.59,0,0,1-13.71,53.91c-.48,1.54,1.93,2.2,2.41.67a492.46,492.46,0,0,0,14.25-56.74q2.58-13.79,4.37-27.72c.94-7.35,3.34-16.64.56-23.84A10,10,0,0,0,148.84,428c-5.81.72-6.53,5.66-6.74,10.59-.86,19.8-1.63,39.59-2.44,59.39l-2.84,69.29c-.07,1.61,2.43,1.61,2.5,0Z" transform="translate(-66.09 -258.64)"/><path class="cls-2" d="M93.32,407.21C84.74,445.09,80.9,484,83.37,522.27c.32,5,.79,10.07,3.07,14.43s6.8,7.85,11.81,7.47c6.8-.52,11.31-7.34,14.51-13.44a408.39,408.39,0,0,0,24.94-58.09c3.36-9.88,6.3-20.89,2.2-30.2-2.62-5.95-7.78-10.3-12.77-14.44l-24.2-20.06c-1.31-1.09-2.76-2.23-4.5-2.25s-3.59,1.77-2.94,3.34" transform="translate(-66.09 -258.64)"/><path d="M92.11,406.88a432.5,432.5,0,0,0-10.37,76,357.34,357.34,0,0,0,.38,39.41c.58,8.41,2.11,19,11.17,22.36,7.48,2.82,13.74-2.47,17.69-8.37,6.48-9.68,11.1-21.14,15.73-31.78,4.72-10.85,9.07-21.91,12.75-33.16,3-9.33,5.74-20.09,1.52-29.51-2.51-5.6-7.11-9.77-11.71-13.65-5.43-4.57-10.92-9.06-16.38-13.58-2.78-2.3-5.54-4.62-8.32-6.9-1.35-1.1-2.82-2.55-4.56-3-3.1-.78-5.93,1.07-5.77,4.34.08,1.6,2.58,1.61,2.5,0-.22-4.55,4.63-.72,5.3-.21,1,.79,2,1.68,3,2.51l5.29,4.39,12.11,10c7.23,6,15.75,12,17.72,21.8,2,10.08-2.2,20.68-5.53,30q-5.08,14.31-11.23,28.2c-3.83,8.64-7.82,17.3-12.41,25.56-1.94,3.49-4.16,7.12-7.48,9.44-5.65,3.94-12.25,1.62-15.65-4.06-4.88-8.15-3.73-20.62-3.92-29.8q-.31-14.91.56-29.83a432.58,432.58,0,0,1,10-69.53c.35-1.57-2.06-2.24-2.41-.67Z" transform="translate(-66.09 -258.64)"/><path class="cls-2" d="M158.38,451a636.74,636.74,0,0,0-20,100.86c-.57,4.93-1.07,10,.29,14.71s5,9,9.94,9.57c4.24.51,8.52-1.82,11.47-5s4.79-7.24,6.59-11.19l27.19-59.64c2.4-5.26,4.85-11.08,3.32-16.51-1.34-4.73-5.42-8-9.28-11L166.09,455.9c-1.36-1-2.94-2.17-4.69-1.9s-3.05,2.84-1.62,3.82" transform="translate(-66.09 -258.64)"/><path d="M157.18,450.68a647.16,647.16,0,0,0-15.88,71.11c-1.83,11.17-3.71,22.5-4.59,33.8-.6,7.71.54,17.5,8.7,21,6.93,3,13.86-1.81,17.74-7.36,2.8-4,4.61-8.73,6.63-13.15l7.83-17.18,15.65-34.34c3.59-7.87,8.54-17.07,3.1-25.28-2.67-4-7-6.87-10.72-9.78l-16.33-12.64c-2.4-1.87-5.87-5.4-9.22-3.63a3.5,3.5,0,0,0-1.39,5.25c.94,1.28,3.11,0,2.16-1.26l1.77-.49a1.87,1.87,0,0,1,3,.4c1.26.53,2.44,1.86,3.52,2.7l4.66,3.61,11.67,9c7.57,5.87,13.19,11.46,9.55,21.82-3,8.64-7.5,16.95-11.29,25.28l-11.54,25.3c-3.37,7.4-6.21,15.62-10.72,22.41-2.53,3.82-6.54,7.63-11.44,7.72-5.42.1-9.22-4.78-10.36-9.61-2.09-8.9.64-19.65,1.89-28.53s2.71-17.9,4.35-26.8q5.48-29.65,13.72-58.69a1.25,1.25,0,0,0-2.41-.66Z" transform="translate(-66.09 -258.64)"/><path class="cls-3" d="M114.81,376.36A98.25,98.25,0,0,0,92.5,404.15L186,478.48c6.1,4.85,14.25,9.91,21.35,6.08,5.4-2.9,7.36-10,6-15.83s-5.18-10.58-9-15.1c-21.93-26.13-45.5-50.83-69-75.5-3.11-3.25-6.52-6.67-11-7.46s-10.11,2.57-9.79,7.12" transform="translate(-66.09 -258.64)"/><path d="M113.93,375.47a103.34,103.34,0,0,0-22.51,28,1.27,1.27,0,0,0,.19,1.51l59.21,47.08,29.6,23.54c6.4,5.08,14,12.34,22.88,11.42,7.06-.73,11.35-7.12,11.67-13.83.44-9-6.12-16.26-11.58-22.71-15.58-18.44-32-36.17-48.54-53.7q-7.31-7.71-14.64-15.39c-3.4-3.57-6.75-7.81-11.1-10.29-6.05-3.43-15.47-1.42-15.83,6.64-.07,1.61,2.43,1.61,2.5,0,.4-9,11.42-5.53,15.43-2s7.54,7.72,11.23,11.59q11,11.53,21.88,23.16t21.48,23.52c7.3,8.2,15.1,16.34,21.53,25.25,2.81,3.89,5.2,8.34,5.18,13.26,0,5.85-3.58,11.37-9.71,12-5,.48-9.74-2.41-13.65-5.21-5.08-3.64-9.86-7.75-14.75-11.64L123,426.8,108.18,415l-7-5.58c-1.71-1.36-6.51-3.85-6.77-6.17-.16-1.38,3.23-5.37,4-6.53,1.68-2.51,3.47-4.95,5.38-7.29a103.47,103.47,0,0,1,11.91-12.23c1.21-1.06-.57-2.83-1.77-1.77Z" transform="translate(-66.09 -258.64)"/><path d="M120.81,425.23A124.94,124.94,0,0,1,136.26,408c1.18-1.1-.59-2.87-1.77-1.77A128.74,128.74,0,0,0,118.65,424c-1,1.29,1.21,2.54,2.16,1.26Z" transform="translate(-66.09 -258.64)"/><path d="M142.73,443.13l12.66-14c1.07-1.19-.69-3-1.77-1.76l-12.65,14c-1.08,1.19.68,3,1.76,1.77Z" transform="translate(-66.09 -258.64)"/><path d="M172.05,466.57a44.76,44.76,0,0,1,5.8-10.23c1-1.29-1.21-2.54-2.16-1.26a46.92,46.92,0,0,0-6.05,10.82c-.6,1.49,1.81,2.14,2.41.67Z" transform="translate(-66.09 -258.64)"/><path d="M197.91,485.07l5.18-17.45a1.25,1.25,0,0,0-2.41-.67l-5.19,17.45a1.26,1.26,0,0,0,2.42.67Z" transform="translate(-66.09 -258.64)"/><path d="M86.06,533.6c5-5.28,18.46-2.56,23,2.39,1.08,1.19,2.85-.58,1.77-1.77-5.55-6.09-20.44-8.73-26.51-2.39-1.11,1.17.65,2.94,1.77,1.77Z" transform="translate(-66.09 -258.64)"/><path d="M138.72,564.93c8.39-3.11,17.51-1.68,24.14,4.48,1.18,1.1,2.95-.67,1.77-1.77a25.57,25.57,0,0,0-26.58-5.12c-1.49.56-.84,3,.67,2.41Z" transform="translate(-66.09 -258.64)"/><path d="M138.54,557a38.88,38.88,0,0,1,26.56,5.38c1.37.84,2.63-1.32,1.26-2.16a41.66,41.66,0,0,0-28.49-5.63c-1.58.24-.91,2.64.67,2.41Z" transform="translate(-66.09 -258.64)"/><path d="M85.06,526.85c9.64-5.14,20.94-2.79,26.85,6.6.85,1.36,3,.11,2.15-1.26-6.63-10.55-19.43-13.27-30.26-7.5-1.42.76-.16,2.92,1.26,2.16Z" transform="translate(-66.09 -258.64)"/><path d="M111,420.77l-8.38,39.91q-2,9.49-4,19c-.78,3.73-1.45,7.53-5.48,9-2.76,1-5.78.81-8.65.58-1.61-.13-1.6,2.37,0,2.5,4.38.34,9.85.51,13.21-2.91,4.13-4.21,4.19-12.56,5.33-18l10.37-49.4c.33-1.57-2.08-2.24-2.41-.67Z" transform="translate(-66.09 -258.64)"/><path d="M190.25,483.29l-14.12,34.57c-2.58,6.31-8.89,17.71,0,22,1.44.69,2.71-1.46,1.26-2.16-6.14-3-2.52-10.25-.68-14.76s3.62-8.87,5.43-13.3L192.67,484c.6-1.49-1.81-2.14-2.42-.67Z" transform="translate(-66.09 -258.64)"/><path class="cls-4" d="M315.77,379c-2.34,37.15,12.47,75.47,39.67,102.58,5.63,5.61,12.19,11.66,12.47,19.38.22,6.38-4.17,12.08-9.59,15.56-15.18,9.78-37.26,4.49-50.73-8.1s-19.82-30.64-23.3-48.29c-3-15-4.17-30.68,0-45.24s14.51-27.89,29.19-32.94" transform="translate(-66.09 -258.64)"/><path d="M314.52,379a133.94,133.94,0,0,0,11.37,61.59,138.53,138.53,0,0,0,16.74,28.26,134.86,134.86,0,0,0,9.66,11.3c4.08,4.28,9,8.21,12,13.4,7.37,12.86-5.08,23.65-17,26.09-10.59,2.16-21.9-.75-31-6.27-20.18-12.22-28.12-37-31.71-59-4.37-26.74.25-60.57,29.33-71.2,1.5-.55.85-3-.67-2.41-23.05,8.43-33,32.56-32.82,55.67.23,24.15,6.91,52.7,24,70.6,13.63,14.23,38.81,22.33,56,9.54,8.6-6.38,11.24-16.4,5.18-25.5-2.88-4.33-6.83-7.82-10.44-11.51A134.54,134.54,0,0,1,317,379c.09-1.61-2.41-1.61-2.5,0Z" transform="translate(-66.09 -258.64)"/><path class="cls-5" d="M144.92,353.53c-10-9.14-8.89-25.6-.8-35.9s21.25-15.59,34.22-19,26.52-5.5,38.51-11.29c7.76-3.74,16.69-9.07,24.48-5,6.74,3.52,8.29,12.05,9,19.37s1.36,14.91-2.48,21c-3.32,5.23-9.33,8.15-15.05,10.81-28.09,13.11-58.32,26.55-89.61,22.05" transform="translate(-66.09 -258.64)"/><path d="M145.81,352.65c-6.56-6.42-8.15-15.71-5.68-24.38s9-15.24,16.56-19.8c16-9.58,35.17-10.55,52.48-16.65,8.59-3,18.13-10.74,27.5-9.56,10.53,1.33,12,13.41,12.7,21.93.44,5,.69,10.28-1.21,15.05-2.13,5.34-6.72,8.5-11.64,11.07-8.76,4.56-18,8.51-27.13,12.25-21,8.61-43.29,14.74-66.15,11.7-1.59-.21-1.57,2.29,0,2.5,24.32,3.24,48-3.81,70.17-13.19,9.82-4.15,21.12-8,29.78-14.36s9.54-15.83,8.61-25.86c-.68-7.2-1.63-15.8-7.67-20.67-7.63-6.16-17.36-1.61-24.95,2.1-20.49,10-44.87,9.82-64.4,21.93-8.49,5.25-15.43,12.92-17.57,22.89-1.93,9,.16,18.29,6.83,24.82,1.15,1.12,2.92-.64,1.77-1.77Z" transform="translate(-66.09 -258.64)"/><path class="cls-4" d="M244.88,308.16a268.88,268.88,0,0,1-98.95,47.06c-6.1,1.49-12.34,2.8-17.89,5.65s-10.44,7.52-11.8,13.47c-1.77,7.69,2.57,15.45,7.16,22.05A204.16,204.16,0,0,0,202,463.21c6.68,3.22,14,6.15,21.32,5.18,7.82-1,14.19-6.29,20-11.38a1012.17,1012.17,0,0,0,76.76-74.57c-28.77-20.58-58.72-42.55-73.54-74l-4.82,3.8" transform="translate(-66.09 -258.64)"/><path d="M244.25,307.08a269.29,269.29,0,0,1-79.47,41.5c-7.15,2.31-14.38,4.27-21.68,6-6.25,1.52-12.72,3.09-18.2,6.61-10.34,6.64-12.55,17.52-7.13,28.33,5.93,11.84,15.65,22.63,24.78,32.11a206.88,206.88,0,0,0,31.25,26.55c11,7.61,23.11,15.19,35.82,19.57,13.2,4.56,23.37-.25,33.43-8.88A957,957,0,0,0,321,383.32a1.26,1.26,0,0,0-.25-2c-28.12-20.13-57.71-41.55-73.09-73.55a1.28,1.28,0,0,0-2-.25l-4.81,3.8c-1.27,1,.51,2.75,1.76,1.77l4.82-3.8-2-.26c15.56,32.39,45.54,54.08,74,74.44l-.25-2q-30,32.35-62.71,62.07c-5,4.55-10.07,9.11-15.23,13.52-5.63,4.83-11.93,9.69-19.65,10.15-7.22.44-14.17-2.78-20.47-5.88q-8.82-4.34-17.2-9.53a202.35,202.35,0,0,1-56.67-52.18c-3.88-5.29-8.14-11-9.67-17.48-2.06-8.75,3-15.86,10.42-19.93,6.14-3.35,13.19-4.59,19.91-6.28s13.39-3.63,20-5.83a271.71,271.71,0,0,0,77.6-40.94c1.27-1,0-3.13-1.26-2.16Z" transform="translate(-66.09 -258.64)"/><path d="M172.53,415.59l17.95-8.31c3.13-1.44,6.23-3,9.41-4.35,2.79-1.17,5.5-2.32,8.47-1.26,2,.72,3.55,2.31,5.19,3.62,5.41,4.32,10.72,8.77,16.08,13.15,2.16,1.76,5.73,3.83,7.39,6.07,2.38,3.21-1.53,9.21-3,12.41-1.13,2.44-2.15,6.53-3.94,8.51-3,3.28-7,1.88-10.82.71a131.16,131.16,0,0,1-18.64-6.93c-10.93-5.29-20.89-13.5-24.63-25.43-.48-1.53-2.9-.88-2.41.66,4.42,14.09,16.67,23.17,29.77,28.73,6.82,2.9,14.92,6.33,22.31,7.38,7.1,1,9-9.19,11.31-14.07,1.25-2.7,3.39-5.83,3.87-8.81.52-3.21-1.82-4.75-4.07-6.62-7.6-6.31-15.21-12.67-23-18.78-2.26-1.78-4.6-3.69-7.62-3.83-3.28-.15-6.38,1.8-9.25,3.13l-25.66,11.86c-1.45.67-.19,2.83,1.27,2.16Z" transform="translate(-66.09 -258.64)"/><path class="cls-5" d="M187.41,335.82c-.92,9.53,7.74,19,17.48,21.76s19.88.18,28.28-4.29c13.37-7.1,24.15-20.25,23.48-35.65-.22-4.95-2.8-11.06-7.87-11.74-4.34-.59-7.48,3.16-9.78,6.53l-11.29,16.5c-2.12,3.11-4.6,6.45-8.47,7.11-5.37.92-10.43-3.68-15.84-5.36-7.08-2.21-15.06,1.38-17.44,7.85" transform="translate(-66.09 -258.64)"/><path d="M186.16,335.82c-.67,13.48,12.35,23.15,24.77,24.06,14.64,1.08,29.94-7.37,38.84-18.68,6.49-8.26,13-24.94,4.14-33.94-3.56-3.6-8.52-3.22-12.2,0-2.72,2.37-4.61,5.76-6.61,8.69-2.82,4.12-5.57,8.3-8.47,12.37-1.95,2.75-3.74,5.26-7.1,6.16-3.6,1-6.56-.73-9.71-2.28s-6.2-3.14-9.78-3.36a15.37,15.37,0,0,0-15.16,9.08c-.63,1.46,1.52,2.73,2.16,1.26,4.11-9.5,13.71-8.68,21.52-4.82,5,2.46,10.11,4.65,15.13,1.06,5.58-4,9.24-11.88,13-17.39,2.34-3.41,5.25-9.63,9.7-10.71,6.49-1.57,8.87,6.32,9,11.08.51,15.64-11.78,28.69-25.14,35-8.52,4-18.69,5.84-27.64,2.08-7.84-3.3-14.41-10.74-14-19.6.08-1.61-2.42-1.61-2.5,0Z" transform="translate(-66.09 -258.64)"/><path class="cls-5" d="M280.42,408.8c-1.7,1.74-.89,5.1,1.24,6.83a8.44,8.44,0,0,0,7.52,1.32,17.62,17.62,0,0,0,6.28-3.79c9.15-7.65,17-17,21.43-28.15a12.52,12.52,0,0,0,1.19-6.2,6.39,6.39,0,0,0-3.93-5.22c-3.58-1.18-6.29,2.2-8,5.11a136.81,136.81,0,0,1-25.65,31.08" transform="translate(-66.09 -258.64)"/><path d="M279.34,408.17c-2.19,3.35-.54,7.41,2.82,9.29,4.08,2.28,8.71.68,12.2-1.85a71.37,71.37,0,0,0,23.11-28.76c1.81-4.24,3.3-9.55-.7-13.08-2.95-2.6-6.58-1.77-9.18.84-2,2.05-3.35,4.79-4.9,7.19-2.32,3.6-4.82,7.1-7.48,10.46a142.89,142.89,0,0,1-15.63,16.63c-1.19,1.09.58,2.85,1.77,1.77a142.5,142.5,0,0,0,16.71-18q3.33-4.29,6.31-8.84c1.09-1.65,2.06-3.39,3.17-5,3.12-4.62,10.16-4.25,9.13,2.89-1.1,7.6-7.82,16.06-12.74,21.58a83.79,83.79,0,0,1-8.12,8,27.65,27.65,0,0,1-4.54,3.46,8.9,8.9,0,0,1-4.64,1.36q-5.19.15-5.13-6.62c.88-1.35-1.28-2.6-2.16-1.26Z" transform="translate(-66.09 -258.64)"/><path class="cls-4" d="M230.05,324a263.8,263.8,0,0,0-56.57,96.16c-2.1,6.39-4,13-3.89,19.72s2.34,13.8,7.41,18.56c9.11,8.54,23.74,7.23,35.52,3.46A115.21,115.21,0,0,0,243,446.81c4.1-2.86,8.22-6.28,9.57-11,2.37-8.35-4.46-16.4-8.84-24.13-12-21.15-6.37-46.82.08-69.66,1.23-4.34,2.49-8.85,1.71-13.34s-4.2-9-8.86-9.51-9.23,4.65-6.87,8.62" transform="translate(-66.09 -258.64)"/><path d="M229.16,323.07a268,268,0,0,0-47.28,71.84c-8.24,18.52-26.34,56.93.94,68.73,10.55,4.56,22.88,2,33.29-1.67A118.28,118.28,0,0,0,235,453.33c5.48-3.12,11.62-6.6,15.68-11.55,8.53-10.42-.61-21.37-5.87-30.76-7.69-13.71-7.91-29.77-5.39-44.91a231.36,231.36,0,0,1,5.6-23.79c1.7-6.15,3.41-13-.16-18.83-2.49-4.06-7.5-7-12.19-4.86-3.91,1.83-5.65,5.84-4,9.76.64,1.48,2.79.21,2.16-1.26-2-4.7,3.44-7.39,6.81-6.5a9.8,9.8,0,0,1,4,2.67c2.9,3.14,3.17,7.76,2.55,11.74-.9,5.8-3,11.46-4.41,17.14-2.58,10.41-4.54,21.13-4.34,31.9a60,60,0,0,0,8,29.57c2.62,4.45,5.93,8.76,7.51,13.73,2.61,8.28-2.21,13.85-8.59,18.35a109.27,109.27,0,0,1-31.57,15.35c-9.85,2.92-22.11,4.41-31-2-11.34-8.14-9.77-23.47-6.26-35.16a239.67,239.67,0,0,1,13-33.19,266.11,266.11,0,0,1,44.41-65.93c1.09-1.18-.68-3-1.77-1.77Z" transform="translate(-66.09 -258.64)"/><path class="cls-6" d="M334.33,502.1c-.69,7.72,6.73,14.92,14.73,15.8s15.75-3.46,20.48-9.59,6.88-13.83,8.14-21.47a3.47,3.47,0,0,0-.21-2.42c-1-1.52-3.54-.85-4.41.66s-.7,3.39-1,5.11-1.45,3.6-3.26,3.55L375,476c.54-1.51,1-3.47-.33-4.53s-3.36-.27-4.2,1.1-.86,3.07-1.08,4.66a17.32,17.32,0,0,1-8.09,12.29L367.9,470c.66-1.95.84-4.83-1.23-5.39s-3.3,1.95-3.78,3.92a112.9,112.9,0,0,1-8.27,23c-1.14,2.33-2.78,4.92-5.46,5.15-2.46.2-4.7-1.85-5.5-4.14s-.5-4.76-.19-7.13a18.88,18.88,0,0,0-8.89,18.72" transform="translate(-66.09 -258.64)"/><path d="M333.08,502.1c-.23,8,5.94,14.73,13.55,16.61,8.45,2.1,17.35-2,22.87-8.39a36.41,36.41,0,0,0,6.62-11.85c1.25-3.51,3.65-9.4,2.88-13.21a3.38,3.38,0,0,0-4.77-2.64c-4.11,1.53-2,9-5.76,9.92l1.54,1.53c2.06-5.86,4.6-11.75,6.23-17.74.65-2.39,1-5.54-2-6.42a4.44,4.44,0,0,0-4.9,2.17c-1.24,2-1,4.81-1.61,7a16.53,16.53,0,0,1-7,9.32l1.83,1.41,4.19-12.4c1-2.93,2.61-6.11,2.82-9.22.18-2.63-1.3-5.71-4.48-4.72-4.29,1.34-4.94,10.71-6,14a105.89,105.89,0,0,1-4.74,11.89c-.64,1.36-1.46,3.72-2.71,4.7q-7.69,1.83-7.18-5a30.88,30.88,0,0,1,.32-3.59,1.26,1.26,0,0,0-1.88-1.08,20.55,20.55,0,0,0-9.51,19.8c.18,1.58,2.68,1.6,2.5,0a18.12,18.12,0,0,1,8.27-17.64l-1.88-1.08c-.54,4.53-.3,11.2,5.4,12.39,4.69,1,7.17-3.71,8.83-7.22,1.42-3,2.69-6.08,3.83-9.19,1.27-3.45,1.81-7.59,3.4-10.87q-.1-3,3.3-1.93a16.3,16.3,0,0,1-.58,1.92c-.66,2.08-1.4,4.13-2.09,6.2l-4.19,12.4a1.26,1.26,0,0,0,1.84,1.41,19.56,19.56,0,0,0,8.67-13c.08-.59.16-1.18.26-1.77q-.22-3.24,2.94-.13c.37.75-1.51,4.29-1.87,5.33l-4.36,12.42a1.27,1.27,0,0,0,1.54,1.54,4.76,4.76,0,0,0,3.63-2.84c.67-1.41.92-9.33,3.42-4,.75,1.61-1.63,7.13-2.22,8.87a35,35,0,0,1-5.38,10.43c-4.28,5.53-10.88,9.51-18,9.31-7.82-.22-15.21-6.58-15-14.66.05-1.61-2.45-1.61-2.5,0Z" transform="translate(-66.09 -258.64)"/><path class="cls-6" d="M216.82,448.21c-4.34,6.48.31,17,8,21.39s17,3.41,24.1-.24c5.22-2.7,9.77-7.24,10.23-13.25a51.93,51.93,0,0,1-23.55,5.51c2.11-2.62,6.46-1.89,10-2.27,8.3-.89,13.11-8.44,17-15.33.6-1.08,1.16-2.51.26-3.58-1.22-1.46-3.37-.45-4.63.65l-14.52,12.78c.44-4.94,5.19-7.7,9-10.64s7-8.24,3.89-12.67l-21.24,20a21.42,21.42,0,0,1,9-16c1.4-1,3-1.87,3.68-3.44s-.15-4.07-2-4.44c-1.25-.25-2.29.55-3.17,1.3L216,451" transform="translate(-66.09 -258.64)"/><path d="M215.75,447.57c-6.33,10.84,4.37,23.15,14.82,25.54,12,2.75,28.08-3.67,29.87-17,.13-1-1.14-1.44-1.89-1.08a53.29,53.29,0,0,1-22.91,5.34l.89,2.13c2.86-2.68,7.33-1.41,10.87-2.17a16.92,16.92,0,0,0,6.72-3.2c3.95-3,8.63-8.82,10.09-13.65.87-2.86-.74-5.5-4-4.88-2.75.53-5.33,3.76-7.24,5.44L242.82,453l2.09,1.22c1.62-9.37,19.14-12.55,12.73-24.27a1.26,1.26,0,0,0-2-.25l-21.24,19.95,2.13.89a21.1,21.1,0,0,1,5.32-12.25c1.84-2,4.63-3.09,6.28-5.22,1.81-2.35,1.68-6.39-1.58-7.46-4.16-1.36-9.52,5.67-12.11,7.9l-19.32,16.65c-1.22,1.05.55,2.81,1.77,1.76l13.37-11.52,7.43-6.4,3-2.57c1.71-1.47,2.59-4,3.49-.61.74,2.78-1.18,2.93-3.05,4.68a22.38,22.38,0,0,0-3.41,4.11,24.45,24.45,0,0,0-3.66,10.93c-.13,1.14,1.41,1.56,2.13.88l21.25-20-2-.25c5,9.13-11.52,13.93-13,22.34a1.26,1.26,0,0,0,2.09,1.22l5.81-5.11c1.95-1.71,4.21-4.55,6.54-5.75,1.24-.63,4.26-1.37,4.23.11,0,.63-1.09,1.9-1.42,2.45a39.77,39.77,0,0,1-4.37,6.09c-3.49,3.86-7.39,5.41-12.5,5.7-3.11.18-5.77.29-8.12,2.5a1.26,1.26,0,0,0,.88,2.13,56.47,56.47,0,0,0,24.18-5.68l-1.88-1.08c-1.56,11.58-16.51,17-26.71,14.59-8.8-2.05-18.85-12.4-13.33-21.86a1.25,1.25,0,0,0-2.15-1.27Z" transform="translate(-66.09 -258.64)"/><path d="M330.54,506.32a21.69,21.69,0,0,1-9.76-7.71c-.92-1.31-3.08-.06-2.16,1.26a24.62,24.62,0,0,0,11.26,8.86c1.49.59,2.14-1.83.66-2.41Z" transform="translate(-66.09 -258.64)"/><path d="M332.51,494.68a14.57,14.57,0,0,1-2-15.08c.66-1.45-1.5-2.73-2.16-1.26a17,17,0,0,0,2,17.6c1,1.26,3.13,0,2.16-1.26Z" transform="translate(-66.09 -258.64)"/><path d="M208,438.78l-7.4-11.1c-.89-1.33-3.06-.08-2.16,1.26l7.4,11.1c.88,1.33,3.05.08,2.16-1.26Z" transform="translate(-66.09 -258.64)"/><path d="M218.41,435.4l7.17-9.11c1-1.25-.77-3-1.77-1.76l-7.17,9.1c-1,1.25.77,3,1.77,1.77Z" transform="translate(-66.09 -258.64)"/><path d="M292.78,378.46a31.51,31.51,0,0,0,14.4,26.46c11.45,7.51,25.45,5.17,38.07,2.66l-1-2.28a3.35,3.35,0,0,0,.11,6c1.4.78,2.67-1.37,1.26-2.16l-.11-1.69a1.26,1.26,0,0,0-1-2.29c-11.47,2.28-24.27,4.63-34.94-1.66a29,29,0,0,1-14.37-25.05,1.25,1.25,0,0,0-2.5,0Z" transform="translate(-66.09 -258.64)"/><path d="M271.9,366.69c-3.69,31.53-5.94,69,21.74,91,1.25,1,3-.77,1.77-1.77-27.18-21.6-24.62-58.3-21-89.21.19-1.6-2.32-1.58-2.5,0Z" transform="translate(-66.09 -258.64)"/><path d="M249.17,296.46c-18.46,1.89-35.65,8.67-52.33,16.5-19,8.93-37.83,18.28-56.72,27.44-1.45.7-.18,2.85,1.26,2.15,17.83-8.64,35.61-17.37,53.49-25.9,17.28-8.24,35.09-15.72,54.3-17.69,1.59-.17,1.61-2.67,0-2.5Z" transform="translate(-66.09 -258.64)"/><path d="M207,333.79A33.2,33.2,0,0,1,197,353c-1.16,1.12.61,2.89,1.77,1.77a35.45,35.45,0,0,0,10.57-20.35c.24-1.57-2.17-2.25-2.41-.66Z" transform="translate(-66.09 -258.64)"/><path d="M285.77,407.77a12.65,12.65,0,0,1,8.8,4.9c1,1.26,2.75-.52,1.77-1.77a15,15,0,0,0-10.57-5.63c-1.6-.16-1.59,2.34,0,2.5Z" transform="translate(-66.09 -258.64)"/><path d="M296.94,456.46a2.68,2.68,0,0,0-1.67,4.56,1.27,1.27,0,0,0,1.77,0l.61-.73a1.29,1.29,0,0,0,0-1.77,1.26,1.26,0,0,0-1.77,0l-.61.73H297c-.09-.09-.11-.1-.05,0s0,0,0-.05.09.18,0,0c.08.16,0,.08,0-.09,0,.17,0,.11,0,0s0-.07,0,0l0,0,.06-.09c-.08.1-.09.11,0,.05s.16-.11,0,0c.19-.1,0,0-.12,0a1.3,1.3,0,0,0,1.25-1.25,1.25,1.25,0,0,0-1.25-1.25Z" transform="translate(-66.09 -258.64)"/><path class="cls-4" d="M295.76,370.94c5.63,2.74,11.38,5.52,17.56,6.46s13-.23,17.27-4.5c4-4,5.21-10.1,4.48-15.74s-3.15-11-5.53-16.2c-8.35-18.31-16.75-36.72-28.17-53.46-6.31-9.25-14.84-18.69-26.12-19.8-9.82-1-19.28,5.18-23.62,13.63s-4.12,18.68-1.25,27.88,8.17,17.55,13.81,25.52a318,318,0,0,0,32.43,38.9" transform="translate(-66.09 -258.64)"/><path d="M295.13,372c8.4,4.08,17.6,8.43,27.17,6.45,8.32-1.72,13.62-8.22,14.17-16.64.71-10.72-5.71-21.27-10-30.65-5.12-11.09-10.44-22.11-16.62-32.65-8.44-14.39-21.53-35.85-41.41-31.66-21,4.43-24.61,28.73-18.12,45.88,4.35,11.5,11.86,21.65,19.23,31.36a329.85,329.85,0,0,0,26.23,30.41c1.12,1.15,2.89-.62,1.76-1.77a299.79,299.79,0,0,1-36.13-44.35c-9.81-15-19.49-39.13-3.16-53.52a22.18,22.18,0,0,1,26-3c7.57,4.18,13,11.49,17.66,18.56,10.46,15.83,18.41,33.11,26.25,50.33,4.33,9.5,11.09,25.2-.27,32.82-9.78,6.56-22.14.79-31.41-3.72-1.45-.7-2.71,1.46-1.27,2.16Z" transform="translate(-66.09 -258.64)"/><path class="cls-4" d="M296.32,364.13A149.46,149.46,0,0,1,265.71,320" transform="translate(-66.09 -258.64)"/><path d="M297.2,363.24a152.27,152.27,0,0,1-30.41-43.84c-.67-1.46-2.83-.19-2.16,1.27A154.47,154.47,0,0,0,295.43,365a1.25,1.25,0,0,0,1.77-1.77Z" transform="translate(-66.09 -258.64)"/><path class="cls-4" d="M304.26,368.22a39.22,39.22,0,0,0,15.11,4.18" transform="translate(-66.09 -258.64)"/><path d="M303.63,369.3a43.3,43.3,0,0,0,15.74,4.35c1.6.13,1.6-2.37,0-2.5a39.52,39.52,0,0,1-14.47-4c-1.44-.71-2.71,1.45-1.27,2.16Z" transform="translate(-66.09 -258.64)"/><path class="cls-4" d="M296.77,362.94,287,343" transform="translate(-66.09 -258.64)"/><path d="M297.85,362.31l-9.82-20c-.71-1.44-2.87-.18-2.16,1.26l9.82,20c.71,1.45,2.86.18,2.16-1.26Z" transform="translate(-66.09 -258.64)"/><path class="cls-4" d="M305.23,366.9l11.86-1" transform="translate(-66.09 -258.64)"/><path d="M305.23,368.15l11.86-1c1.59-.13,1.61-2.63,0-2.5l-11.86,1c-1.6.14-1.61,2.64,0,2.5Z" transform="translate(-66.09 -258.64)"/><path class="cls-7" d="M305.19,265.36c-10.41,1.95-18.29,10.69-21.45,20.47s-2.3,20.46-.32,30.66c3.19,16.5,10.21,33.79,24.95,42.86,18.05,11.11,43.76,5.28,56.33-10.83s12.43-39.85,2.09-58c-6.9-12.08-18.15-22.09-31.56-26.63s-28.9-3.25-40.38,4.37" transform="translate(-66.09 -258.64)"/><path d="M304.86,264.15c-25.29,5.55-26.58,35-22.06,55.5,4.45,20.23,15.86,41.43,37.88,45.82,19.34,3.86,40.39-5.51,49.48-23.18,9.92-19.3,5.64-43.4-7.5-60.06-16-20.34-45.49-29.56-68.44-15-1.36.86-.1,3,1.26,2.16,19-12.06,43.51-7,59.33,7.94,14.65,13.86,21.95,35.36,16.52,55.1-5.21,18.93-22.67,31.56-42.22,31.41-21-.16-35-16.18-41.2-34.94-6.82-20.52-10.25-56.21,17.61-62.33,1.57-.34.91-2.75-.66-2.41Z" transform="translate(-66.09 -258.64)"/><path class="cls-8" d="M336.22,284.34a38.67,38.67,0,0,1,14.87,24.3,36,36,0,0,1-6.55,27c-2.09,2.81-4.65,5.4-5.75,8.71s-.11,7.7,3.23,9.13c2.87,1.22,6.12-.18,8.62-1.89,10.8-7.41,16.11-20.95,15.09-33.92s-7.78-25.25-17-34.89c-2.49-2.59-5.33-5.12-8.84-6s-7.8.33-9.12,3.55,2.12,7.65,5.51,6.54" transform="translate(-66.09 -258.64)"/><path d="M335.33,285.22c15,11.8,19.93,33,8.58,49.14-3.35,4.77-8.77,9.89-6.12,16.3,2.16,5.21,7.8,5.26,12.17,2.83,12.48-6.95,18.25-23,16.94-36.63-1.37-14.2-10-31.27-22.24-39.25-4.38-2.86-12.47-3.95-15,2.06-1.92,4.57,2.4,9.08,6.92,8.37,1.59-.24.91-2.65-.66-2.41q-5.48-.15-3-6.3a6.94,6.94,0,0,1,4.55-1.62,10.9,10.9,0,0,1,5.95,2.06c3.41,2.23,6.32,5.77,8.82,8.93A58,58,0,0,1,363.17,310c3.69,14.36-.2,32.84-13.82,40.92-7.5,4.44-11.71-2.44-8.22-8.62,1.74-3.09,4.4-5.62,6.26-8.65a37.61,37.61,0,0,0,5.33-17.08c.82-13-5.54-25.21-15.62-33.11-1.25-1-3,.77-1.77,1.76Z" transform="translate(-66.09 -258.64)"/><path class="cls-9" d="M288,286.91c-10.48,2.36-18.48,12.53-17.46,23s11.48,19.64,22.26,19,19.52-11.65,16.93-21.9a22,22,0,0,0-7.17-11,28.92,28.92,0,0,0-21.25-6.74" transform="translate(-66.09 -258.64)"/><path d="M287.62,285.71c-10.81,2.8-19.61,12.94-18.34,24.52s13.23,21.4,25,19.74c10.43-1.47,19-12.08,16.77-22.68-2.74-13.09-17.45-20.1-29.76-19.26-1.6.11-1.61,2.61,0,2.5,10.43-.71,21.91,4.15,26.28,14.19s-3.25,21.27-13.63,22.75c-10,1.42-20.36-6.65-22-16.54-1.8-10.7,6.49-20.24,16.4-22.81a1.25,1.25,0,0,0-.66-2.41Z" transform="translate(-66.09 -258.64)"/><path d="M302.67,309.56a7,7,0,0,0-8.6-1.37,5.76,5.76,0,0,0-1.84,8.23c1.74,2.82,5.34,4.27,8.37,2.57a6.54,6.54,0,0,0,2.65-8.6c-.73-1.44-2.89-.17-2.16,1.26a4,4,0,0,1-1.75,5.18c-2,1.07-4.23-.19-5.18-2.07-2.22-4.4,4.13-6.5,6.74-3.43,1.05,1.23,2.81-.55,1.77-1.77Z" transform="translate(-66.09 -258.64)"/><path d="M299.1,315.9a1.25,1.25,0,0,0,0-2.5,1.25,1.25,0,0,0,0,2.5Z" transform="translate(-66.09 -258.64)"/><path class="cls-10" d="M279.28,306A34.49,34.49,0,0,1,282.36,276a35.8,35.8,0,0,1,26.12-16c2.54-.27,5.77.11,6.74,2.44.74,1.76-.36,3.78-1.94,4.84a18.68,18.68,0,0,1-5.38,2c-10.93,3.21-19.12,13.39-19.7,24.5-.18,3.32.23,6.85-1.3,9.79s-6.12,4.59-8.42,2.06" transform="translate(-66.09 -258.64)"/><path d="M280.49,305.66c-3.84-11.26-2.1-23.9,5.89-33a34.36,34.36,0,0,1,12.32-8.83,35.12,35.12,0,0,1,7.09-2.21c1-.19,3.89-.85,5.16-.35,1.89-.16,2,.85.28,3.05.25,2.12-.5,3.22-2.27,3.32-3.61,1.75-7.09,2.44-10.44,4.95a29.79,29.79,0,0,0-7.06,7.54,27.68,27.68,0,0,0-4.26,11.2c-.28,1.92-.21,3.83-.33,5.76a15.59,15.59,0,0,1-.56,4.58c-1,2.53-4.39,5.13-6.95,3-1.23-1-3,.74-1.76,1.77a6.74,6.74,0,0,0,9.76-1.39c1.75-2.27,1.88-5.26,2-8,.21-4.27.44-8.09,2.24-12.06a27.26,27.26,0,0,1,16.62-14.59c3.52-1.15,10.36-3.17,8.14-8.53-1.95-4.69-9-3.27-12.74-2.37a37.62,37.62,0,0,0-16.4,8.69c-10.6,9.63-13.71,24.71-9.15,38.07.52,1.51,2.93.86,2.41-.67Z" transform="translate(-66.09 -258.64)"/></svg>