<svg id="Layer_11" data-name="Layer 11" xmlns="http://www.w3.org/2000/svg" viewBox="0 0 200.34 410.82"><defs><style>.cls-1{fill:#00ffd9;}.cls-2{fill:#c0f;}.cls-3{fill:#474249;}.cls-4{fill:#a9a9a9;}.cls-5{fill:#a2eecd;}.cls-6{fill:#727272;}.cls-10,.cls-11,.cls-6,.cls-7{stroke:#000;stroke-miterlimit:10;}.cls-10,.cls-6,.cls-7{stroke-width:2px;}.cls-7{fill:#bdcccd;}.cls-8{fill:#cdeceb;}.cls-9{fill:#6b6f7c;}.cls-10{fill:#2b2d33;}.cls-11{fill:#a905d2;}.cls-12{fill:#a4a4a4;}.cls-13{fill:#777;}.cls-14{fill:#ececa8;}</style></defs><title>marine</title><path class="cls-1" d="M535.87,565.46c-5.31-.17-8.16,6.08-9.47,11.23s-3.75,11.44-9,11.75a19.8,19.8,0,0,1-4.75-.72c-7.09-1.32-14.56,2.3-18.87,8.08s-5.73,13.36-5,20.53a25.53,25.53,0,0,0,2.15,8.35c4.9,10.37,18.88,14.11,29.67,10.19A16.93,16.93,0,0,0,527,631c5.09-5.2,4.3-13.5,5.29-20.71.77-5.58,2.79-10.91,4.15-16.38a71.67,71.67,0,0,0,2-21.09c-.13-2.45-.52-5.15-2.4-6.71" transform="translate(-477.08 -472.33)"/><path d="M535.87,564.21c-6.13-.05-9.13,6.47-10.51,11.52a28.17,28.17,0,0,1-3.16,8.15,7.69,7.69,0,0,1-2.89,2.77,6.79,6.79,0,0,1-4.66.24,20.47,20.47,0,0,0-10,0,22.34,22.34,0,0,0-8.68,4.7c-5.42,4.69-8.09,11.8-8.57,18.82-.47,6.86.83,14.32,5.55,19.56A24.55,24.55,0,0,0,508,637.39c6,.78,12.84-.25,17.86-3.81,5.72-4.06,6.61-10.94,7.11-17.43a65,65,0,0,1,1.62-11c1-4,2.37-8,3.31-12a73.27,73.27,0,0,0,1.78-12.24c.22-3.78.5-8-.46-11.7a7.77,7.77,0,0,0-2.28-3.93c-1.19-1.07-3,.7-1.77,1.77,2.51,2.24,2.14,6.56,2.14,9.61a70.48,70.48,0,0,1-.94,11.42c-1.26,7.56-4.33,14.68-5.35,22.27-.78,5.85-.16,12.57-3.35,17.8s-10.16,7-15.87,7a23.75,23.75,0,0,1-14.91-4.88c-5.12-4.13-6.95-10.39-7.08-16.78-.14-6.62,1.66-13.61,6.26-18.55,4.34-4.64,10.75-7.19,17.06-5.83,3.25.71,6.22.94,8.92-1.29,2.33-1.91,3.66-4.83,4.62-7.62s1.48-5.81,2.86-8.51c1.29-2.52,3.26-5,6.34-5a1.25,1.25,0,0,0,0-2.5Z" transform="translate(-477.08 -472.33)"/><path class="cls-1" d="M517.54,589.81c.69,3.63,3,6.7,4.91,9.88s3.4,7,2.29,10.52" transform="translate(-477.08 -472.33)"/><path d="M516.93,590c.73,3.5,2.79,6.43,4.62,9.43,1.92,3.16,3.68,6.88,2.59,10.63a.63.63,0,0,0,1.21.33c2.29-7.9-5.73-13.57-7.21-20.72-.16-.79-1.37-.46-1.21.33Z" transform="translate(-477.08 -472.33)"/><path class="cls-1" d="M512,590.43a52.13,52.13,0,0,1,.46,17.88" transform="translate(-477.08 -472.33)"/><path d="M511.41,590.59a52.24,52.24,0,0,1,.47,17.55c-.12.79,1.09,1.13,1.2.34a53.86,53.86,0,0,0-.46-18.22c-.16-.79-1.36-.45-1.21.33Z" transform="translate(-477.08 -472.33)"/><path class="cls-2" d="M536.23,610c-.92,1.35-3.12,1.21-4.35.13a8.79,8.79,0,0,1-2.23-4.32l-4.59-15.47a31.63,31.63,0,0,1-1.71-8.62,26.78,26.78,0,0,1,1.46-8.05c1-3.18,2.4-6.6,5.4-8a4.09,4.09,0,0,1,2.47-.41c1.83.35,2.89,2.41,2.89,4.27a19.9,19.9,0,0,1-1.29,5.43c-3.42,11.76,3.68,24.41,1.33,36.43" transform="translate(-477.08 -472.33)"/><path d="M535.34,609.08a1.87,1.87,0,0,1-2.85-.13c-1.13-1.13-1.47-3-1.91-4.44l-3.06-10.31a76.94,76.94,0,0,1-2.72-10.08c-.55-3.53.22-7,1.27-10.32.78-2.48,1.83-5.34,4.15-6.77,1.22-.74,2.64-.94,3.51.38a5.23,5.23,0,0,1,.25,4.28,40.85,40.85,0,0,0-1.86,8.9,47.37,47.37,0,0,0,.67,9.43c1,6.91,2.92,14,1.62,21-.3,1.57,2.11,2.24,2.41.66,1.37-7.36-.43-14.64-1.56-21.9a39.84,39.84,0,0,1-.47-11.22c.46-3.47,2.66-7,1.85-10.56a4.83,4.83,0,0,0-7.06-3.45c-2.87,1.38-4.43,4.37-5.46,7.23-1.31,3.65-2.33,7.64-1.92,11.54.42,4.11,1.88,8.08,3,12l2.08,7a52.88,52.88,0,0,0,1.93,6.07,5.9,5.9,0,0,0,3.51,3.55,4,4,0,0,0,4.34-1.13c1-1.25-.77-3-1.77-1.77Z" transform="translate(-477.08 -472.33)"/><path class="cls-3" d="M518.24,674.67l-25.8,41.25c-5.91,9.45-12,19.25-13.64,30.28-2.21,14.53,3.42,29,8.95,42.59.82,2,1.76,4.18,3.63,5.3,3.27,1.94,7.36-.23,10.52-2.35l8.79-5.92a13.52,13.52,0,0,0,4.4-4c1.65-2.81,1.06-6.34.42-9.54-2-9.74-3.89-20.23.15-29.31,1.84-4.16,4.82-7.69,7.76-11.16l28.06-33.21c1.27-1.49,2.52-3.82,1.12-5.19a4.2,4.2,0,0,0-2.61-.83,30.72,30.72,0,0,1-18.41-8.79c-2.33-2.34-4.29-5.07-7-7s-6.39-2.91-9.26-1.29" transform="translate(-477.08 -472.33)"/><path d="M517.16,674l-18.17,29c-5.64,9-11.82,17.93-16.42,27.55A55.82,55.82,0,0,0,477.74,745a49.6,49.6,0,0,0-.09,15.62,85.93,85.93,0,0,0,4,15.69c1.7,4.92,3.51,9.91,5.69,14.64a8.7,8.7,0,0,0,4.14,4.57,8.34,8.34,0,0,0,6.34-.15,32.62,32.62,0,0,0,6.33-3.63l7-4.71c1.89-1.27,3.86-2.6,5-4.6a10.91,10.91,0,0,0,1.17-6.5c-.44-5-1.91-9.85-2.46-14.84a37,37,0,0,1,.92-15c1.55-5,4.86-9.15,8.21-13.12l22.23-26.29,5.48-6.49c1.3-1.53,2.79-3.29,2.75-5.43s-2-3.2-4-3.44a33,33,0,0,1-6.95-1.51,29.68,29.68,0,0,1-11.85-7.74c-3.18-3.38-6.16-7.4-11-8.45a8.77,8.77,0,0,0-6,.74c-1.43.74-.17,2.9,1.26,2.16,4.28-2.24,8.64,1.48,11.36,4.44,3.08,3.35,6.08,6.5,10.07,8.78a32.44,32.44,0,0,0,12.17,4c.79.09,2.21,0,2.39,1s-.73,2.08-1.25,2.74c-1.67,2.15-3.52,4.18-5.28,6.26l-20.81,24.62c-3.12,3.69-6.46,7.33-8.86,11.55a29.72,29.72,0,0,0-3.67,13,61.82,61.82,0,0,0,1.16,14.16c.42,2.36,1,4.69,1.35,7.05.37,2.15.6,4.6-.41,6.61s-3.12,3.24-4.94,4.47l-6.59,4.44c-3.2,2.14-8.77,6.28-12,2-1.3-1.7-2-3.94-2.75-5.91-.94-2.34-1.87-4.7-2.74-7.07a102.88,102.88,0,0,1-4.38-14.69,52.47,52.47,0,0,1-1.06-15.1,47.36,47.36,0,0,1,3.63-14c3.79-9.05,9.46-17.27,14.64-25.56L515.11,682l4.21-6.73c.85-1.37-1.31-2.63-2.16-1.26Z" transform="translate(-477.08 -472.33)"/><path class="cls-3" d="M602.88,707A300.23,300.23,0,0,0,560,744.93c-1.13,1.21-2.32,2.62-2.26,4.27.09,2.12,2.13,3.55,4,4.54A74.28,74.28,0,0,0,582.09,761c1.93.39,4,.76,5.4,2.16,1.84,1.84,1.82,4.78,1.69,7.38-.2,4.11-.43,8.32-2,12.11s-4.81,7.18-8.88,7.77c-2.79.4-5.57-.52-8.24-1.42-15.31-5.2-30.72-10.45-44.79-18.42-7.75-4.4-15.93-11.39-15-20.25.35-3.22,1.9-6.17,3.52-9a158.61,158.61,0,0,1,38.35-44.74,13.15,13.15,0,0,1,5.54-3.06c2.46-.45,4.94.47,7.27,1.37l34.45,13.37" transform="translate(-477.08 -472.33)"/><path d="M602.25,705.94a304.55,304.55,0,0,0-25.82,21q-6.27,5.71-12.21,11.77c-1.88,1.92-3.81,3.84-5.58,5.87-1.47,1.69-2.67,3.8-1.8,6.07.8,2.09,2.82,3.34,4.71,4.34a76.64,76.64,0,0,0,15,5.94c2.52.7,5.12,1.07,7.63,1.79s3.69,2.53,3.83,5.14a47.2,47.2,0,0,1-.38,7.7c-.53,4.84-2.2,10.15-6.73,12.66-2.46,1.36-5.16,1.14-7.77.41s-5.32-1.75-8-2.65c-5.33-1.82-10.64-3.69-15.89-5.71s-10.51-4.23-15.6-6.72a77.72,77.72,0,0,1-13.43-7.78c-3.43-2.64-6.78-6-8.15-10.24-1.68-5.2.64-9.87,3.22-14.31A157,157,0,0,1,533.57,716c3.39-3.83,7-7.49,10.73-11q2.9-2.68,5.91-5.22c2-1.67,4.1-3.75,6.57-4.69,2.79-1.06,5.69.2,8.29,1.21l8.61,3.34,17,6.59,8.38,3.25c1.5.58,2.15-1.83.66-2.41-11.77-4.57-23.49-9.3-35.33-13.7-2.65-1-5.51-1.69-8.27-.69-2.48.89-4.52,2.73-6.53,4.38a158.42,158.42,0,0,0-12,10.92,160.15,160.15,0,0,0-20.25,25.09q-2.22,3.39-4.26,6.9a35.49,35.49,0,0,0-3.54,7.44,15.64,15.64,0,0,0,2.2,13.17,34.08,34.08,0,0,0,10.29,9.53A115.83,115.83,0,0,0,537,777.9c10.63,4.8,21.69,8.59,32.73,12.32,2.76.93,5.62,1.84,8.57,1.47a11.47,11.47,0,0,0,6-2.8c4-3.45,5.35-8.7,5.86-13.75.43-4.38,1.51-10.89-2.86-13.72-2.06-1.34-4.71-1.54-7-2.08a75.88,75.88,0,0,1-8.22-2.42,70.37,70.37,0,0,1-8-3.43c-1.72-.86-5.21-2.23-5-4.66.13-1.25,1.24-2.32,2-3.18q1.49-1.59,3-3.16,3-3.13,6.13-6.19a298.69,298.69,0,0,1,26.23-22.89q3.49-2.71,7.07-5.31c1.29-.94,0-3.11-1.26-2.16Z" transform="translate(-477.08 -472.33)"/><path d="M586.92,703.73q-9.39,6.6-18.16,14a186,186,0,0,0-16.5,15.37c-4.27,4.62-8.42,10.53-7.61,17.16a6,6,0,0,0,1.53,3.6,10.88,10.88,0,0,0,4.18,2.11L562,760.24l26.6,9.68c.76.27,1.08-.93.33-1.21l-21.93-8-11-4-5.36-2c-1.82-.66-3.8-1.22-4.5-3.23-1-3-.18-6.52,1.08-9.27a31.87,31.87,0,0,1,5.59-8A172.85,172.85,0,0,1,568.06,720q9.36-8.07,19.49-15.17c.65-.46,0-1.54-.63-1.08Z" transform="translate(-477.08 -472.33)"/><path d="M523.86,769.22a77.8,77.8,0,0,0,12.81-5.82c1.29-.73,2.9-1.63,3.07-3.28a6.23,6.23,0,0,0-.75-2.87c-.42-1.06-.87-2.11-1.33-3.15-1.8-4.15-3.8-8.54-3.42-13.18.15-1.79.72-3.76-.07-5.48s-2.37-2.08-4-2.38c-4.23-.78-9-1.42-12.74,1.24-.65.46,0,1.54.63,1.08,3.11-2.22,7-1.91,10.61-1.32,1.74.29,4.09.43,4.56,2.5.37,1.61-.22,3.37-.28,5-.13,3.69,1.12,7.25,2.53,10.62.73,1.74,1.52,3.45,2.23,5.2.33.81,1,2,.73,2.9s-1.41,1.48-2.2,1.93a75.1,75.1,0,0,1-12.71,5.8c-.75.27-.43,1.47.33,1.21Z" transform="translate(-477.08 -472.33)"/><path d="M484.63,729.45a78.5,78.5,0,0,1,11.63,3.47c1.73.67,3.93,1.42,4.58,3.37s.22,4.25-.09,6.14c-.6,3.76-1.79,7.38-2.51,11.11a30.12,30.12,0,0,0-.62,5.44c0,1,.28,2.33-.25,3.19a4.51,4.51,0,0,1-2.12,1.42,40.14,40.14,0,0,1-13.76,3.26c-.8,0-.81,1.29,0,1.25a41.46,41.46,0,0,0,13.18-2.92c1.45-.58,3.28-1.19,4-2.75a5.68,5.68,0,0,0,.24-2.56,23.33,23.33,0,0,1,.18-3.54c.55-4.53,2.12-8.85,2.87-13.35.62-3.69,1.17-8-2.62-10.09a38,38,0,0,0-6.45-2.51,76.51,76.51,0,0,0-7.89-2.13c-.78-.17-1.12,1-.33,1.2Z" transform="translate(-477.08 -472.33)"/><path class="cls-4" d="M575.14,790.15l13.22,4c29.59,9,59.24,18,87.83,29.81-.49-3.15-2.34-5.89-4.09-8.56A220.9,220.9,0,0,1,653.73,781a10,10,0,0,0-2.39-3.87,9.56,9.56,0,0,0-3.25-1.59q-10.37-3.49-21-6c-13.2-3.16-26.63-5.2-40.05-7.24a23.81,23.81,0,0,1-5.3,27.54" transform="translate(-477.08 -472.33)"/><path d="M574.8,791.35c26.52,8.07,53.15,15.91,79.21,25.39q11,4,21.85,8.45c1,.4,1.68-.72,1.54-1.54-.64-3.61-2.77-6.63-4.72-9.64q-3.23-5-6.18-10.12A222,222,0,0,1,655.91,783c-1.36-3.09-2.34-6.44-5.66-7.91a93.59,93.59,0,0,0-11.33-3.68c-7.89-2.3-15.9-4.17-24-5.73-9.16-1.76-18.37-3.16-27.58-4.56A1.27,1.27,0,0,0,586,762.9a22.59,22.59,0,0,1-5.1,26c-1.19,1.09.58,2.85,1.77,1.77a25.14,25.14,0,0,0,5.49-29.05l-1.41,1.84c15.81,2.4,31.65,4.85,47.11,9q5.87,1.59,11.64,3.48a19.15,19.15,0,0,1,4.61,1.75c1.49,1,2.1,2.76,2.77,4.33a219.66,219.66,0,0,0,10,20.44q3,5.49,6.4,10.79c2.19,3.46,5,6.87,5.73,11l1.53-1.54c-25.55-10.53-51.93-18.86-78.35-26.93l-22.7-6.91c-1.54-.47-2.2,1.95-.67,2.41Z" transform="translate(-477.08 -472.33)"/><path d="M516,783.1a1.25,1.25,0,0,0,0-2.5,1.25,1.25,0,0,0,0,2.5Z" transform="translate(-477.08 -472.33)"/><path class="cls-4" d="M516.15,779.91a279.38,279.38,0,0,0,28.27,46c1.47,2,3,4,3.53,6.35a15.11,15.11,0,0,1-.16,5.76,116.94,116.94,0,0,1-16.74,43.87c-5.35-5.09-7.56-12.54-9.81-19.57a314,314,0,0,0-31.75-69c4.46,1.75,9.62.75,13.83-1.54s7.64-5.73,11-9.12" transform="translate(-477.08 -472.33)"/><path d="M515.07,780.54a280.89,280.89,0,0,0,23.13,39c2.07,2.92,4.29,5.74,6.36,8.67a12.21,12.21,0,0,1,2.19,4.4,15.81,15.81,0,0,1-.31,6A115.56,115.56,0,0,1,530,881.28l2-.25c-4.15-4-6.34-9.46-8.14-14.86-2-6-3.92-12.07-6.15-18a315.65,315.65,0,0,0-16-35.87q-5.19-10-11.1-19.53l-1.41,1.83c10.28,3.84,19.37-4.25,26.06-11a1.25,1.25,0,0,0-1.77-1.77c-6.06,6.1-14.24,13.85-23.63,10.34-1-.38-1.95,1-1.41,1.84a314.41,314.41,0,0,1,18.73,35.19,359.81,359.81,0,0,1,14,36.89c2,6.06,4.37,12.19,9,16.72a1.27,1.27,0,0,0,2-.26,118.43,118.43,0,0,0,16.37-41.33c.65-3.44,1.55-7.22.25-10.61s-3.9-6.12-6-9q-6.82-9.35-12.87-19.23-6.87-11.25-12.66-23.11c-.71-1.44-2.86-.18-2.16,1.26Z" transform="translate(-477.08 -472.33)"/><path d="M638.06,774.78a39.93,39.93,0,0,1,.33,35.21c-.35.72.73,1.36,1.08.63a41.26,41.26,0,0,0-.33-36.47c-.36-.71-1.44-.08-1.08.63Z" transform="translate(-477.08 -472.33)"/><path d="M542.43,824.48c.11,8.15-4.1,15.48-7.94,22.39-3.41,6.14-7.28,12.44-13.59,16-.7.39-.07,1.47.63,1.08,6.5-3.61,10.53-10.07,14-16.4,3.95-7.1,8.22-14.64,8.11-23a.63.63,0,0,0-1.25,0Z" transform="translate(-477.08 -472.33)"/><path d="M510.58,787.81a88.21,88.21,0,0,0,7,22.07c.38.82.78,1.64,1.19,2.44.3.58.58,1.41,1.28,1.63,1.06.34,2.4-.93,3.09-1.59,2-2,3.32-5,6.08-6.06.74-.3.42-1.51-.33-1.21-2.35.93-3.7,2.92-5.23,4.82-.64.79-1.74,2.36-2.79,2.62-.85.21-1.32-1.42-1.63-2-.39-.82-.78-1.63-1.15-2.46a87.4,87.4,0,0,1-6.35-20.55c-.14-.79-1.35-.45-1.2.34Z" transform="translate(-477.08 -472.33)"/><path d="M589.35,770c2.46.18,4.87-.54,7.33-.42a22,22,0,0,1,6.68,1.91,48.45,48.45,0,0,0,13.69,3.17.59.59,0,0,0,.54-.31l2.68-6.16c.32-.73-.76-1.37-1.08-.63l-2.68,6.16.54-.31a50.35,50.35,0,0,1-14.2-3.45,19.84,19.84,0,0,0-6.17-1.63c-2.46-.12-4.87.6-7.33.42-.81,0-.8,1.2,0,1.25Z" transform="translate(-477.08 -472.33)"/><path d="M512.4,786.24c-1.93-7.17,3.64-14.16,1.32-21.35-.24-.76-1.45-.43-1.2.34,2.29,7.11-3.26,14.14-1.32,21.34a.62.62,0,0,0,1.2-.33Z" transform="translate(-477.08 -472.33)"/><path class="cls-5" d="M620.2,686A136.33,136.33,0,0,1,607,709a7.93,7.93,0,0,1-3.45,3.15c-1.63.58-3.42.06-5.07-.46-30.79-9.7-62.21-19.72-88.15-38.92,5.88-8.89,18.68-9,29.29-7.95q30.21,3,60.18,8.06c4.08.69,8.24,1.44,11.86,3.42s6.7,5.47,7.09,9.59" transform="translate(-477.08 -472.33)"/><path d="M619.12,685.37a135.27,135.27,0,0,1-13.25,23c-1.21,1.68-2.49,3-4.73,2.73a39.31,39.31,0,0,1-6.15-1.8q-6.07-1.92-12.14-3.89c-16.22-5.3-32.35-11.1-47.59-18.84a171.58,171.58,0,0,1-24.35-14.88l.45,1.71c3.37-5,9.29-7,15-7.55,6.77-.67,13.57.24,20.29,1q25.72,2.77,51.27,7c4.26.72,8.74,1.32,12.63,3.33,3.35,1.74,6.41,4.81,6.86,8.72.18,1.58,2.68,1.59,2.5,0-.92-7.93-8.45-11.87-15.5-13.4-4.33-.94-8.76-1.55-13.14-2.25q-6.94-1.1-13.91-2.09-13.62-1.93-27.28-3.46c-7.48-.84-15.12-2-22.67-1.43-7,.53-14.12,2.78-18.25,8.87a1.28,1.28,0,0,0,.45,1.72c14.18,10.46,30.07,18.26,46.42,24.7,8.26,3.25,16.64,6.16,25.07,8.93q6.27,2.06,12.56,4c3.68,1.16,8.45,3.61,11.94.83,1.76-1.39,3-3.52,4.22-5.35,1.42-2.08,2.78-4.21,4.08-6.37a138.16,138.16,0,0,0,7.34-14c.66-1.45-1.5-2.72-2.16-1.26Z" transform="translate(-477.08 -472.33)"/><path d="M533.9,669.11a31.89,31.89,0,0,0-11.52,10c-.47.65.61,1.28,1.08.63a30.51,30.51,0,0,1,11.07-9.51c.72-.36.08-1.44-.63-1.08Z" transform="translate(-477.08 -472.33)"/><path d="M551.34,675.32a48,48,0,0,0-12.11,12.21c-.46.67.62,1.29,1.07.63A46.42,46.42,0,0,1,552,676.4c.65-.46,0-1.55-.63-1.08Z" transform="translate(-477.08 -472.33)"/><path d="M573.34,682.08a62.25,62.25,0,0,1-9.41,16.18c-.5.62.38,1.51.88.88a63.94,63.94,0,0,0,9.73-16.72c.3-.75-.91-1.08-1.2-.34Z" transform="translate(-477.08 -472.33)"/><path d="M597,683.8A72.4,72.4,0,0,1,586.39,707c-.46.67.63,1.29,1.08.63a73.4,73.4,0,0,0,10.7-23.48.63.63,0,0,0-1.21-.33Z" transform="translate(-477.08 -472.33)"/><path d="M553.58,562.42a62.61,62.61,0,0,1-22.47.22c-.78-.13-1.12,1.07-.33,1.21a64.45,64.45,0,0,0,23.13-.22c.79-.15.45-1.36-.33-1.21Z" transform="translate(-477.08 -472.33)"/><path class="cls-1" d="M605.47,531.92c8.69,8.23,13.78,19.5,18,30.68,12.39,32.54,19.56,67.51,16.83,102.22-.26,3.28-.63,6.65-2.18,9.55-2.17,4.08-6.32,6.64-10.28,9s-8.39,4.88-13.11,4.77c-3.85-.09-7.41-1.9-11-3.17-13.72-4.81-29.2-2.15-42.9-7-6.69-2.37-12.83-6.5-19.86-7.47-5.23-.72-11.21.17-15.21-3.28-5.31-4.58-3.09-13.58,1.63-18.76s11.3-8.5,15.55-14.08c1.83-2.41,2.83-6.5.19-8,2.35.35,3.61-3.09,2.5-5.19s-3.4-3.26-5.16-4.86A12.39,12.39,0,0,1,536.55,606c.26-2.34,1.2-4.62,1-7a19.16,19.16,0,0,0-1.69-5.47c-2.89-7.37-3.23-15.45-3.54-23.36,8,1.76,16.56,3.48,24.16.42,3.74-1.5,7-4.07,10-6.73a147.94,147.94,0,0,0,25.77-29.45c1.88-2.83,3.92-5.93,7.16-6.93s7.59,1.82,6.53,5" transform="translate(-477.08 -472.33)"/><path d="M604.59,532.81c7.44,7.11,12.21,16.39,16,25.83a283,283,0,0,1,10.7,31.94c6,22,9.15,44.87,8.16,67.7-.12,2.83-.28,5.66-.57,8.47a18.51,18.51,0,0,1-2.13,7.51c-2.52,4.25-7.31,6.79-11.46,9.16a27.28,27.28,0,0,1-7.42,3.15,15.1,15.1,0,0,1-8.2-.71c-2.61-.87-5.13-2-7.77-2.78a57.41,57.41,0,0,0-7.79-1.66c-10.69-1.59-21.8-.95-32.16-4.38-5-1.67-9.66-4.38-14.65-6.19a30.82,30.82,0,0,0-7.51-1.74c-2.31-.23-4.63-.22-6.94-.49-4.33-.5-8.29-2.64-8.9-7.33-.52-4,1.26-8.39,3.83-11.45,3.14-3.75,7.37-6.43,11.07-9.57,3.16-2.68,6.87-6.09,7.08-10.54a4.74,4.74,0,0,0-2.22-4.42l-.63,2.33c3.29.3,4.8-3.76,3.87-6.4-.64-1.81-2.21-3.08-3.68-4.21a14.42,14.42,0,0,1-4.14-4.31,11.15,11.15,0,0,1-1.43-6c.1-2.25,1-4.39,1.1-6.64s-.79-4.53-1.65-6.7a41.46,41.46,0,0,1-2-6.74,98.91,98.91,0,0,1-1.57-16.49L532,571.36c6.3,1.38,12.82,2.75,19.29,1.85s11.59-4.54,16.4-8.78a149.28,149.28,0,0,0,25.4-29c1.68-2.53,3.54-5.8,6.65-6.73,2.06-.61,5.73.9,5,3.51a1.25,1.25,0,0,0,2.41.67,5.2,5.2,0,0,0-2.87-5.93,7,7,0,0,0-7.17.23c-2.48,1.48-4.15,4-5.72,6.3-1.86,2.8-3.79,5.55-5.83,8.22A146.28,146.28,0,0,1,572.08,557c-2.45,2.42-5,4.77-7.61,7a30.7,30.7,0,0,1-8.7,5.58c-7.43,2.82-15.6,1.06-23.08-.58a1.26,1.26,0,0,0-1.58,1.2,130.68,130.68,0,0,0,1,13.12,52.77,52.77,0,0,0,1.33,6.69c.58,2.11,1.43,4.1,2.19,6.15a10.75,10.75,0,0,1,.33,6.47,18.45,18.45,0,0,0-.64,5.87,13.81,13.81,0,0,0,5.15,9.5c1.43,1.14,3.51,2.28,4.19,4.08.42,1.14,0,3.25-1.51,3.11-1.3-.12-1.61,1.72-.63,2.33,1.67,1,.92,3.53.19,4.94a20.38,20.38,0,0,1-4.79,5.44c-3.75,3.29-8,6-11.4,9.72-5.26,5.83-8.13,17.3.29,21.86,4.23,2.29,9.21,1.67,13.81,2.26,5.47.71,10.39,3.42,15.36,5.63a57.44,57.44,0,0,0,15.75,4.41c5.58.75,11.21,1,16.81,1.51a62.74,62.74,0,0,1,16.14,3.39,40.57,40.57,0,0,0,8,2.56,16.58,16.58,0,0,0,8-.81,42.47,42.47,0,0,0,7.46-3.7,55.43,55.43,0,0,0,6.13-4,18.62,18.62,0,0,0,4.79-5.29,20.22,20.22,0,0,0,2.24-7.52,140.14,140.14,0,0,0,.88-17.26c0-5.84-.23-11.68-.71-17.5a236.87,236.87,0,0,0-5.53-34.51A284.38,284.38,0,0,0,625.7,564.9c-3.65-9.86-7.7-19.79-14.21-28.16a51.38,51.38,0,0,0-5.13-5.7c-1.17-1.11-2.94.65-1.77,1.77Z" transform="translate(-477.08 -472.33)"/><path d="M612.84,544a162.56,162.56,0,0,1-18.37,41q-3.4,5.41-7.21,10.55c-1,1.29,1.21,2.54,2.16,1.26A165.36,165.36,0,0,0,611.14,557q2.29-6.09,4.11-12.33a1.25,1.25,0,0,0-2.41-.66Z" transform="translate(-477.08 -472.33)"/><path d="M624.64,569.66c-4.52,5-9.41,9.68-14.25,14.39l-14.82,14.44c-1.15,1.13.61,2.89,1.77,1.77l14.82-14.44c4.84-4.71,9.73-9.37,14.25-14.39,1.08-1.19-.69-3-1.77-1.77Z" transform="translate(-477.08 -472.33)"/><path d="M545.69,622.48a1.25,1.25,0,0,0,0-2.5,1.25,1.25,0,0,0,0,2.5Z" transform="translate(-477.08 -472.33)"/><path d="M544.65,622.24a146.87,146.87,0,0,0,18.65,18.92c1.22,1,3-.73,1.76-1.77a147.36,147.36,0,0,1-18.64-18.91c-1-1.25-2.78.53-1.77,1.76Z" transform="translate(-477.08 -472.33)"/><path d="M544.58,632.43a10.49,10.49,0,0,1,2.86,3.57,22.28,22.28,0,0,0,2.95,4,18,18,0,0,0,8.56,5,1.25,1.25,0,0,0,.66-2.41,15.72,15.72,0,0,1-7.9-4.78c-2.13-2.4-3.11-5.65-5.86-7.49-1.34-.9-2.6,1.26-1.27,2.15Z" transform="translate(-477.08 -472.33)"/><path d="M616.44,686.59c-5.22-6.08-4.65-14.82-4-22.28.06-.81-1.19-.8-1.25,0-.65,7.85-1.07,16.79,4.4,23.17.52.61,1.41-.28.88-.89Z" transform="translate(-477.08 -472.33)"/><path d="M561.66,568.91q-4.92,8.31-10.53,16.19c-.46.66.62,1.28,1.08.63q5.6-7.87,10.53-16.19a.63.63,0,0,0-1.08-.63Z" transform="translate(-477.08 -472.33)"/><path d="M569.36,563.16l-12.72,27.51c-.34.72.74,1.36,1.08.63l12.72-27.51c.33-.72-.74-1.36-1.08-.63Z" transform="translate(-477.08 -472.33)"/><path d="M619.42,678.6a25.64,25.64,0,0,0-.46-14.47c-.25-.77-1.46-.44-1.21.33a24.41,24.41,0,0,1,.47,13.81.62.62,0,0,0,1.2.33Z" transform="translate(-477.08 -472.33)"/><path class="cls-1" d="M550.8,570.79a146.94,146.94,0,0,0,46.41-28.43c4.64-4.23,9-8.74,13.28-13.26,1.26-1.31,2.58-2.74,2.84-4.47a6.81,6.81,0,0,0-.75-3.78c-3.29-7.26-12.06-12.13-20.65-11.48-8.39.64-15.4,5.81-21.84,10.75L522,557c-1.66,1.28-3.47,2.83-3.41,4.81.07,2.28,2.54,3.79,4.8,4.77a59.54,59.54,0,0,0,27.41,4.63" transform="translate(-477.08 -472.33)"/><path d="M551.13,572A150.65,150.65,0,0,0,592,548.51,201.29,201.29,0,0,0,610.38,531c2.6-2.72,5.2-5.45,3.81-9.49a18.59,18.59,0,0,0-5.63-7.92,23.57,23.57,0,0,0-18.83-5.23c-7.5,1.18-13.89,5.77-19.79,10.28q-21.66,16.58-43.28,33.21L521.33,556a11.52,11.52,0,0,0-3.47,3.62c-1.61,3.18.69,5.93,3.4,7.41a45.92,45.92,0,0,0,11.14,4,62.17,62.17,0,0,0,12.23,1.66c2,.07,4.09,0,6.13-.1,1.6-.11,1.61-2.61,0-2.5a59.35,59.35,0,0,1-22.68-2.91,38.14,38.14,0,0,1-5.07-2c-1.17-.59-2.74-1.43-3.12-2.79-.45-1.58,1.15-2.91,2.22-3.79,1.57-1.29,3.22-2.48,4.82-3.72l39.84-30.56c5.63-4.32,11.26-9.17,17.91-11.83a21.76,21.76,0,0,1,18.93.82,18.84,18.84,0,0,1,6.72,6.13,9,9,0,0,1,1.8,4.64c0,1.72-1.41,3.06-2.52,4.23a225.41,225.41,0,0,1-17,16.49,146.21,146.21,0,0,1-37,22.79c-1.7.73-3.43,1.42-5.16,2.09-1.49.57-.84,3,.66,2.41Z" transform="translate(-477.08 -472.33)"/><path class="cls-1" d="M554.22,562.53a98.62,98.62,0,0,0,43.38-31.59" transform="translate(-477.08 -472.33)"/><path d="M554.55,563.73a99.4,99.4,0,0,0,43.94-31.91c1-1.25-.78-3-1.77-1.76a98.26,98.26,0,0,1-31.83,26.39,96.27,96.27,0,0,1-11,4.87c-1.5.55-.85,3,.66,2.41Z" transform="translate(-477.08 -472.33)"/><path class="cls-1" d="M552.53,564.19a27.52,27.52,0,0,0,6.88-4.58l10.5-8.65c6-5,12.11-10,17.21-15.9,2.47-2.88,4.75-6.08,5.66-9.76" transform="translate(-477.08 -472.33)"/><path d="M553.16,565.27c4.39-1.86,8-5.49,11.63-8.48,3.9-3.21,7.83-6.38,11.67-9.66A108.43,108.43,0,0,0,587.09,537c3-3.33,5.75-7,6.89-11.35a1.25,1.25,0,0,0-2.41-.67c-1.15,4.41-4.14,8-7.17,11.27a113.48,113.48,0,0,1-10.06,9.43c-3.61,3.07-7.28,6.05-10.94,9.05s-7.16,6.56-11.5,8.4c-1.48.63-.2,2.78,1.26,2.16Z" transform="translate(-477.08 -472.33)"/><ellipse class="cls-6" cx="69.23" cy="41.82" rx="42.26" ry="40.82"/><ellipse class="cls-7" cx="63.9" cy="46.74" rx="42.26" ry="40.82"/><path class="cls-8" d="M526.89,497.44a27.44,27.44,0,0,0-8,30.49c1.79,4.52,4.79,8.53,6.15,13.2a3.62,3.62,0,0,1,.17,1.81,2.71,2.71,0,0,1-3,1.75,7.89,7.89,0,0,1-3.43-1.63c-3.26-2.26-6.62-4.63-8.64-8a24.6,24.6,0,0,1-2.59-7.69c-1.11-5.47-1.78-11.17-.49-16.59,2-8.25,8.34-14.93,15.79-19,2.47-1.34,6.2-2.1,7.55.37s-1.31,5.22-3.77,6.61" transform="translate(-477.08 -472.33)"/><path class="cls-8" d="M525.08,498.81c3.21,0,3.22-5,0-5s-3.23,5,0,5Z" transform="translate(-477.08 -472.33)"/><path class="cls-9" d="M575.48,483.27a9.17,9.17,0,0,1,8.95-.25,16,16,0,0,1,5,4.74,10.82,10.82,0,0,1,1.51,2.41,9.16,9.16,0,0,1-.47,6.88,12.32,12.32,0,0,1-4.61,5.87,2.82,2.82,0,0,1-1.51.53c-1.53,0-2.2-1.88-2.77-3.3a11.63,11.63,0,0,0-2.94-4.29c-.87-.8-2-1.7-1.83-2.88.22-2,3.66-2.57,3.42-4.53a3,3,0,0,0-1-1.56L576,483.58" transform="translate(-477.08 -472.33)"/><path d="M576.12,484.35a8,8,0,0,1,5.56-1,9.19,9.19,0,0,1,4.93,3c1.33,1.42,3,3.2,3.4,5.16a9.51,9.51,0,0,1-1.19,6.07,10.16,10.16,0,0,1-3.63,4.26c-.66.39-1.08.49-1.55-.15a11.48,11.48,0,0,1-1.08-2.33,13.75,13.75,0,0,0-3.41-4.69c-.43-.39-1.33-1.05-1.09-1.73.15-.44.79-.82,1.14-1.08,1.19-.9,2.43-1.92,2.22-3.58a5,5,0,0,0-1.72-2.69l-2.83-2.89c-1.13-1.15-2.9.62-1.77,1.77l2.83,2.89c.56.57,1.37,1,.72,1.75-1.06,1.14-2.64,1.68-3.06,3.34-.58,2.37,1.73,3.71,3,5.24a10.79,10.79,0,0,1,1.71,2.79,13,13,0,0,0,1.29,2.68c3.26,4.5,8.25-1.9,9.62-4.89a12,12,0,0,0,1.24-7.08c-.43-2.37-2.13-4.36-3.67-6.12a11.93,11.93,0,0,0-6.48-4.12,10.7,10.7,0,0,0-7.49,1.24,1.25,1.25,0,0,0,1.27,2.16Z" transform="translate(-477.08 -472.33)"/><ellipse class="cls-10" cx="103.15" cy="25.57" rx="11.15" ry="11.02"/><circle class="cls-11" cx="105.74" cy="24.89" r="4.51"/><path d="M550.47,557.8c-2.16-.87-4.36-1.67-6.48-2.62a5.81,5.81,0,0,1-2-1.29,3,3,0,0,1-.41-2.93c.31-1.27.92-2.71.34-4s-2-1.62-3.25-1.94a13.08,13.08,0,0,1-4.65-1.62,3.09,3.09,0,0,1-.93-.94,1.13,1.13,0,0,1,.2-1.39,3.12,3.12,0,0,0,.75-1.56c.07-.62-.21-1.5,0-2.09s1.47-.86,1.86-1.55c.7-1.21-.09-3.67,1.9-3.61,1.66.05,2.93.3,4-1.21,1.27-1.76,1.93-4.17,2.77-6.16.31-.73-.77-1.36-1.08-.63a39.54,39.54,0,0,1-2.58,5.88c-1.22,1.92-3.34.1-4.88,1.34-1.25,1-.52,2.57-1.24,3.75-.42.66-1.42.66-1.82,1.45a4.32,4.32,0,0,0-.21,2.11c0,1.65-1.88,2.24-1,4a5.74,5.74,0,0,0,3.34,2.56,24,24,0,0,0,2.48.69c.93.23,2.46.4,3,1.26.83,1.3-.54,3.49-.55,4.94,0,1.81,1.27,3,2.8,3.77,2.33,1.16,4.85,2,7.26,3,.75.3,1.07-.9.33-1.2Z" transform="translate(-477.08 -472.33)"/><path d="M535.89,535.5c1.57-.24,3.29-.45,4.63.39s1.71,3.2.28,3.88a2.65,2.65,0,0,0-.58.3c-.41.34-.33,1-.36,1.51a3.21,3.21,0,0,1-4.05,2.57,4.25,4.25,0,0,1-2.77-4.28,6.43,6.43,0,0,1,2.66-4.61" transform="translate(-477.08 -472.33)"/><path d="M536.06,536.1c1.51-.23,4-.6,4.79,1.08a1.86,1.86,0,0,1,.09,1.64,1.27,1.27,0,0,1-.7.52,1.51,1.51,0,0,0-.88.95,6.21,6.21,0,0,0-.13,1.29,2,2,0,0,1-.38,1,2.79,2.79,0,0,1-1.85,1.06c-1.63.23-2.89-1.21-3.24-2.67-.49-2.06.82-4,2.39-5.25a.63.63,0,1,0-.89-.88,6.69,6.69,0,0,0-2.81,5.88,4.63,4.63,0,0,0,4,4.19,3.79,3.79,0,0,0,4-3.43c0-.43-.08-.83.36-1a2.47,2.47,0,0,0,1.12-.9,3,3,0,0,0,.15-2.55c-1-2.63-4.1-2.43-6.39-2.09a.63.63,0,0,0-.44.77.65.65,0,0,0,.77.44Z" transform="translate(-477.08 -472.33)"/><path d="M540.11,531.24a2.81,2.81,0,0,0-.82-2.89,2.64,2.64,0,0,0-1.39-.7,12.43,12.43,0,0,0-1.61.05c-.13,0-.24,0-.31-.11s-.08-.59-.14-.83a3.71,3.71,0,0,0-.72-1.25c-.42-.51-1.31-1.2-1.13-1.85a.63.63,0,0,0-1.21-.34,2.67,2.67,0,0,0,.94,2.48,5.5,5.5,0,0,1,.79,1c.26.48.14,1.05.45,1.51a1.6,1.6,0,0,0,1.43.63,5.22,5.22,0,0,1,1.42-.05,1.61,1.61,0,0,1,1.09,2c-.25.76,1,1.09,1.21.33Z" transform="translate(-477.08 -472.33)"/><path class="cls-2" d="M606,532.38c6.89-.31,13.51,2.65,19.41,6.23,26.13,15.85,43.1,45.8,43.27,76.37a36.51,36.51,0,0,1-1.82,13c-3.31,8.9-11.64,14.77-19.51,20.08-3.74,2.52-8.9,5-12.38,2.14-2-1.63-2.5-4.42-2.88-7L621,569.37c-1.88-12.49-4.51-26.29-14.65-33.83" transform="translate(-477.08 -472.33)"/><path d="M606,533.63c9.5-.34,18.34,5.22,25.67,10.72a88.22,88.22,0,0,1,18,18.19,90.69,90.69,0,0,1,17.59,47,53.72,53.72,0,0,1-.46,14.22,25.63,25.63,0,0,1-6.14,12,57.26,57.26,0,0,1-9.9,8.48c-3.34,2.36-7.22,5.65-11.47,6-5.32.43-5.71-5.68-6.29-9.53l-2.48-16.49-5-33c-1.51-10.08-2.72-20.26-4.7-30.26-1.58-8-4.06-16.2-9.5-22.47a29,29,0,0,0-4.35-4c-1.28-1-2.53,1.2-1.26,2.16,7,5.27,10.19,13.78,12.07,22,1,4.47,1.69,9,2.37,13.53l2.59,17.23,5.18,34.46,2.59,17.23c.62,4.14,1,9.35,5.51,11.14,4.12,1.65,8.77-1,12.12-3.21A97.69,97.69,0,0,0,659,640.89a33.66,33.66,0,0,0,8.13-10.35c2.18-4.58,2.78-9.63,2.81-14.65a91.82,91.82,0,0,0-15-50.1,92.86,92.86,0,0,0-17.3-19.85A88.13,88.13,0,0,0,627,538.12a47.24,47.24,0,0,0-13.74-6.23,26.53,26.53,0,0,0-7.26-.76c-1.61.06-1.61,2.56,0,2.5Z" transform="translate(-477.08 -472.33)"/><path class="cls-2" d="M616.69,540.67a17.55,17.55,0,0,0-9.5-2.88c-7.93,0-14.88,6.14-18,13.42s-3.16,15.51-2.5,23.42c.57,6.82,1.66,13.79,5,19.75s9.46,10.78,16.31,11a2.44,2.44,0,0,0,2.15-.7,2.67,2.67,0,0,0,0-2.36Q603.45,579.46,599,556a9.65,9.65,0,0,1-.11-4.62c.93-3,4.33-4.29,7.27-5.37s6.27-2.92,6.49-6" transform="translate(-477.08 -472.33)"/><path d="M617.33,539.59a18.22,18.22,0,0,0-16.61-1.76,23.74,23.74,0,0,0-11.4,10.28c-3.11,5.41-4.14,11.79-4.25,17.95a80.48,80.48,0,0,0,1.8,18.89c1.28,5.68,3.66,11.22,7.8,15.41,3.5,3.54,8.86,6.7,14,6.24a3.18,3.18,0,0,0,2.71-1.6c.63-1.27.09-2.71-.28-4q-1.5-5.13-2.89-10.3-2.73-10.08-5-20.29-1.28-5.7-2.42-11.42c-.61-3-2.11-7,.72-9.36,2.13-1.78,5-2.27,7.44-3.51s4.57-3.25,4.88-6.16c.17-1.6-2.34-1.59-2.5,0-.25,2.29-2.7,3.63-4.59,4.45-2,.88-4.23,1.47-6.09,2.75a7.18,7.18,0,0,0-3.31,5.45,16,16,0,0,0,.43,4c.32,1.67.66,3.34,1,5q3.78,18.57,9,36.82c.41,1.46.88,2.91,1.27,4.38.16.6.33,1.07-.34,1.28a5.67,5.67,0,0,1-2-.07,16.58,16.58,0,0,1-6.74-2.55,23.89,23.89,0,0,1-9.22-12.16c-2-5.48-2.66-11.37-3-17.15s-.25-12,1.54-17.69a23.15,23.15,0,0,1,10-13.15,15.81,15.81,0,0,1,16.79.43c1.37.86,2.62-1.3,1.27-2.16Z" transform="translate(-477.08 -472.33)"/><path class="cls-1" d="M596.13,547.8c3.61-6.6,12.81-8.49,19.86-5.86s12.29,8.64,16.52,14.87c14.54,21.43,20.77,47.73,21.16,73.62.08,4.8-.09,9.8-2.33,14-2.78,5.25-8.29,8.45-13.77,10.73a77.57,77.57,0,0,1-51.89,2.58c-2.86-.87-5.8-2-7.74-4.28-1.7-2-2.4-4.65-3.05-7.2-1.07-4.21-2.16-8.53-1.7-12.84s2.8-8.71,6.81-10.38c3.17-1.32,6.76-.76,10.18-.43a69.29,69.29,0,0,0,16.78-.42,4.57,4.57,0,0,0,2.87-1.17c1-1.11.71-2.81.38-4.26l-7.35-32.15a180.47,180.47,0,0,0-6.28-22.8c-2-5.31-3.84-12.67,1.06-15.52" transform="translate(-477.08 -472.33)"/><path d="M597.21,548.44c2.27-4,6.7-6.1,11.19-6.36a20.17,20.17,0,0,1,13.65,4.75c4.29,3.39,7.61,7.85,10.56,12.4A110.63,110.63,0,0,1,641,574.64a132.92,132.92,0,0,1,9.61,33.41,158.27,158.27,0,0,1,1.73,17.66c.24,5.65.78,12.06-1.65,17.34-2.29,5-7.09,8.08-11.91,10.29a72.72,72.72,0,0,1-17.13,5.25,76,76,0,0,1-35.59-2c-2.49-.76-5.12-1.69-6.92-3.67-2-2.18-2.59-5.32-3.29-8.11-1.42-5.63-2.67-12,.74-17.19,3.69-5.6,10.39-3.86,16-3.51a69.91,69.91,0,0,0,9.6-.08c1.55-.12,3.09-.29,4.63-.51a6.74,6.74,0,0,0,3.53-1.21c2.21-1.83,1.28-4.91.74-7.28l-2.23-9.74-4.56-20c-1.41-6.17-2.8-12.36-4.68-18.41-1.47-4.71-4-9.6-3.83-14.67a5.54,5.54,0,0,1,2.5-4.81c1.36-.84.11-3-1.27-2.16-4.2,2.58-4.14,7.71-3.16,12a78.31,78.31,0,0,0,2.47,7.6c1.12,3.29,2.07,6.63,2.92,10,3.5,13.68,6.39,27.54,9.54,41.31.25,1.1,1,3,.19,4s-3.65,1.07-4.88,1.2a69.09,69.09,0,0,1-10.07.32c-5.94-.24-12.68-2.18-17.59,2.25-4.43,4-5.06,10.31-4.24,15.86a60.52,60.52,0,0,0,2.28,9.68,12.71,12.71,0,0,0,4.86,6.91,26.09,26.09,0,0,0,7.72,3.12,76.52,76.52,0,0,0,9.49,2A79,79,0,0,0,633.78,658c5.32-1.85,10.8-4.18,15-8.1,4.59-4.35,6-10.22,6.19-16.37A143.41,143.41,0,0,0,654,615a141.89,141.89,0,0,0-8.45-35.77,118.53,118.53,0,0,0-7.85-16.49,74.2,74.2,0,0,0-10.36-14.44c-3.75-3.9-8.49-7.31-13.89-8.34a18.94,18.94,0,0,0-13.76,2.36,14,14,0,0,0-4.62,4.88,1.25,1.25,0,0,0,2.16,1.27Z" transform="translate(-477.08 -472.33)"/><path class="cls-1" d="M575.36,647.14l-10.79,1.64a2.22,2.22,0,0,1-3.09-2.13,71,71,0,0,1-1.54-16.06,3.3,3.3,0,0,1,.52-2.08,3.08,3.08,0,0,1,2.38-.83,17.66,17.66,0,0,1,8.67,2,3.57,3.57,0,0,1,1.77,1.61,4.6,4.6,0,0,1-.13,2.64,15.13,15.13,0,0,0,2.72,12.31" transform="translate(-477.08 -472.33)"/><path d="M575,645.94l-6.43,1-3.11.47c-.63.1-2,.57-2.48,0a5.87,5.87,0,0,1-.56-2.23c-.21-1.06-.39-2.12-.55-3.19-.31-2.09-.51-4.19-.62-6.3-.06-1-.09-2-.1-3a10,10,0,0,1,.09-3c.46-1.37,3.74-.69,4.79-.51a14.47,14.47,0,0,1,5.36,1.94,1.5,1.5,0,0,1,.67,1.86c-.16.9-.37,1.78-.46,2.69a16.29,16.29,0,0,0,3.16,11.25c1,1.28,3.12,0,2.16-1.26a14.43,14.43,0,0,1-2.65-5.89,16.25,16.25,0,0,1,.24-6.29,4.16,4.16,0,0,0-2.4-4.83,18.89,18.89,0,0,0-6.68-2.06c-1.87-.23-4.47-.48-5.88,1.06s-.93,4.34-.88,6.2a72.59,72.59,0,0,0,.63,7.65c.16,1.18.34,2.36.56,3.53a13,13,0,0,0,.83,3.37c1.2,2.43,3.91,1.66,6,1.34l8.93-1.36c1.58-.24.91-2.65-.67-2.41Z" transform="translate(-477.08 -472.33)"/><path d="M610.49,622.73c3.2-1.14,6.69.12,9.13,2.29,2.61,2.33,4.25,5.49,5.83,8.55.37.71,1.45.08,1.08-.64-1.74-3.35-3.58-6.87-6.59-9.27-2.71-2.15-6.41-3.34-9.78-2.14-.75.27-.43,1.48.33,1.21Z" transform="translate(-477.08 -472.33)"/><path d="M610.13,621.47a28.28,28.28,0,0,1,9.12-8.29.63.63,0,0,0-.63-1.08,29.66,29.66,0,0,0-9.57,8.74c-.47.66.62,1.29,1.08.63Z" transform="translate(-477.08 -472.33)"/><path d="M627,562.14a153.66,153.66,0,0,1,.81,32.65c-.07.81,1.18.8,1.25,0a153.66,153.66,0,0,0-.81-32.65c-.1-.79-1.35-.8-1.25,0Z" transform="translate(-477.08 -472.33)"/><path d="M617.7,567.69a67.57,67.57,0,0,0,1.22,16.79c.16.78,1.37.45,1.21-.34A65.29,65.29,0,0,1,619,567.69c0-.8-1.21-.8-1.25,0Z" transform="translate(-477.08 -472.33)"/><path d="M572,638.54l-12.37,2.08c-.79.13-.46,1.34.33,1.2l12.37-2.07c.79-.13.46-1.34-.33-1.21Z" transform="translate(-477.08 -472.33)"/><path d="M571.54,634.14h-9.85a.63.63,0,0,0,0,1.25h9.85a.63.63,0,0,0,0-1.25Z" transform="translate(-477.08 -472.33)"/><path d="M655.59,568.88a8.3,8.3,0,0,1-4.38,6c-2.61,1.5-5.68,2-8.61,2.42-.8.13-.46,1.33.33,1.21,3.23-.51,6.62-1,9.42-2.87a9.37,9.37,0,0,0,4.49-6.75c.09-.8-1.16-.8-1.25,0Z" transform="translate(-477.08 -472.33)"/><path d="M660.16,634.15v-2.46a.62.62,0,0,0-.62-.62.63.63,0,0,0-.63.62v2.46a.63.63,0,1,0,1.25,0Z" transform="translate(-477.08 -472.33)"/><path d="M661.39,626.15v-3.69a.62.62,0,0,0-.62-.62.63.63,0,0,0-.63.62v3.69a.63.63,0,1,0,1.25,0Z" transform="translate(-477.08 -472.33)"/><path d="M660.92,614.85l-1.33-3.65a.64.64,0,0,0-.77-.44.65.65,0,0,0-.44.77l1.33,3.66a.63.63,0,0,0,1.21-.34Z" transform="translate(-477.08 -472.33)"/><path d="M658.25,605.38a5.47,5.47,0,0,0-.57-4.2.63.63,0,0,0-1.08.63,4.77,4.77,0,0,1,.24.44l0,.08.09.24c0,.13.09.27.12.41a2.21,2.21,0,0,1,0,.25.5.5,0,0,1,0,.12c0,.07,0,.08,0,0s0,0,0,0,0,.08,0,.12,0,.17,0,.25,0,.29,0,.44a2.29,2.29,0,0,1,0,.25c0,.13,0-.07,0,.08a4.15,4.15,0,0,1-.11.48.63.63,0,1,0,1.21.33Z" transform="translate(-477.08 -472.33)"/><path d="M654.62,591.69v-2.46a.63.63,0,0,0-1.25,0v2.46a.63.63,0,1,0,1.25,0Z" transform="translate(-477.08 -472.33)"/><path d="M652.23,582.88l-1.3-3.67a.62.62,0,1,0-1.2.33l1.29,3.67a.64.64,0,0,0,.77.44.65.65,0,0,0,.44-.77Z" transform="translate(-477.08 -472.33)"/><path class="cls-12" d="M558.42,630.06c-3.72.8-7.33-1.68-10-4.38s-5.13-5.91-8.7-7.21a19.62,19.62,0,0,0-6.75-.81l-8.26,0a2.27,2.27,0,0,0-1.39.3,1.5,1.5,0,0,0-.22,1.95,3.82,3.82,0,0,0,1.67,1.31,17.09,17.09,0,0,0,8.71,1.62,2,2,0,0,1,1.34.19,1.87,1.87,0,0,1,.54.91l1.74,4.93c-2.68,1.19-5.73,1.13-8.67,1a7.63,7.63,0,0,1-2.69-.39,6.78,6.78,0,0,1-2.31-1.75,29.53,29.53,0,0,1-3.27-4,2.42,2.42,0,0,0-1-1,1.6,1.6,0,0,0-1.94.93,4.35,4.35,0,0,0-.19,2.35,41.12,41.12,0,0,0,2.69,10.69,5.24,5.24,0,0,1,.53,2.15,7.51,7.51,0,0,1-.37,1.54,6.49,6.49,0,0,0,4.39,7.64,12.34,12.34,0,0,0,3.79.24L560.7,647a60.42,60.42,0,0,1-1.57-16" transform="translate(-477.08 -472.33)"/><path d="M558.09,628.86c-4.15.76-7.58-2.76-10.16-5.5s-5.46-5.7-9.4-6.53a31.73,31.73,0,0,0-6.53-.42c-2.35,0-4.7,0-7,0-1.68,0-3.36.65-3.35,2.61s1.78,3,3.36,3.64a18.34,18.34,0,0,0,6.73,1.48c.59,0,1.2-.09,1.79,0,.82,0,.81.56,1.07,1.3l1.35,3.81.87-1.54c-2.87,1.21-6.19,1.23-9.25,1s-4.89-3.63-6.48-5.8-4.68-1.41-5.21,1.3a11.16,11.16,0,0,0,.21,3.64,41.89,41.89,0,0,0,1.05,5c.41,1.48.91,2.93,1.46,4.36a3.78,3.78,0,0,1,.39,2.26c-.12.65-.36,1.26-.42,1.92a7.82,7.82,0,0,0,2.34,6.2c1.88,1.84,4.28,2.2,6.82,2.13,3.43-.1,6.87-.27,10.3-.4l22.72-.88a1.27,1.27,0,0,0,1.21-1.58,61,61,0,0,1-1.53-15.64c0-1.61-2.45-1.61-2.5,0a63.39,63.39,0,0,0,1.62,16.3l1.2-1.58-18.27.71-8.9.34-4.44.17a15.42,15.42,0,0,1-4.24-.11,5.23,5.23,0,0,1-3.84-4.49,10.12,10.12,0,0,1,.46-3,7.38,7.38,0,0,0-.84-3.89,41.73,41.73,0,0,1-2.11-8c-.07-.43-.72-3.85.34-3.49.33.12.9,1.28,1.1,1.54.42.55.84,1.09,1.28,1.61a14.18,14.18,0,0,0,3.13,3,7.84,7.84,0,0,0,4.06.94c3,.1,6.16.1,9-1.1a1.26,1.26,0,0,0,.88-1.53,35.29,35.29,0,0,0-2.09-5.73c-1-1.7-2.91-1.13-4.53-1.17a15.63,15.63,0,0,1-6.09-1.41c-.39-.18-2-.91-1.26-1.31.27-.16,1,0,1.34,0h2c2.08,0,4.17,0,6.25,0a14.77,14.77,0,0,1,6.11,1c3.27,1.53,5.45,4.62,8,7.07,2.91,2.81,6.61,5,10.78,4.28,1.58-.29.92-2.7-.66-2.41Z" transform="translate(-477.08 -472.33)"/><path d="M518.69,632.47a18.91,18.91,0,0,0,7.58,6.29.64.64,0,0,0,.85-.22.63.63,0,0,0-.22-.86,17.8,17.8,0,0,1-7.14-5.84.64.64,0,0,0-.85-.22.62.62,0,0,0-.22.85Z" transform="translate(-477.08 -472.33)"/><path d="M519.72,641.56a33.36,33.36,0,0,0,3.91,1.87,4,4,0,0,0,3.69-.36.65.65,0,0,0,.23-.86.63.63,0,0,0-.86-.22,3,3,0,0,1-3,.15c-1.16-.45-2.27-1.1-3.38-1.66-.72-.36-1.35.71-.63,1.08Z" transform="translate(-477.08 -472.33)"/><path d="M530.6,635.21l-.93.15a.53.53,0,0,0-.21.11.55.55,0,0,0-.16.18.48.48,0,0,0-.07.23.43.43,0,0,0,0,.25.62.62,0,0,0,.28.37l.15.07a.65.65,0,0,0,.34,0l.92-.15a.45.45,0,0,0,.21-.12.44.44,0,0,0,.16-.17.49.49,0,0,0,.08-.23.52.52,0,0,0,0-.25.69.69,0,0,0-.29-.38l-.15-.06a.62.62,0,0,0-.33,0Z" transform="translate(-477.08 -472.33)"/><path d="M530,639.93l-.17.09L530,640a.78.78,0,0,1-.25.07l.17,0h-.27l.16,0h-.08a.64.64,0,0,0-.49.06.44.44,0,0,0-.17.16.43.43,0,0,0-.11.21.62.62,0,0,0,.06.48.59.59,0,0,0,.37.29l.26,0h.11a2.2,2.2,0,0,0,.36,0,.76.76,0,0,0,.2-.06,2.41,2.41,0,0,0,.33-.15.46.46,0,0,0,.17-.17.56.56,0,0,0,.12-.46.39.39,0,0,0-.07-.23.67.67,0,0,0-.37-.29.61.61,0,0,0-.48.07Z" transform="translate(-477.08 -472.33)"/><path d="M530.46,644.75a3.61,3.61,0,0,0-1.54.41.66.66,0,0,0-.29.38.63.63,0,0,0,.07.48.58.58,0,0,0,.37.28.66.66,0,0,0,.48-.06l.24-.11-.15.06a2.94,2.94,0,0,1,.72-.19l-.16,0,.26,0a.65.65,0,0,0,.63-.63.61.61,0,0,0-.19-.44.6.6,0,0,0-.44-.18Z" transform="translate(-477.08 -472.33)"/><path class="cls-12" d="M509.66,609.32a4,4,0,0,0-5.07-5.73,6.48,6.48,0,0,1-2.26,1,5.18,5.18,0,0,1-2.09-.64,5.46,5.46,0,0,0-4.74.43,14.47,14.47,0,0,1-2.57,1.63c-1.52.52-3.36-.17-4.75.65-1.23.74-1.59,2.38-2.68,3.32a21.26,21.26,0,0,1-1.95,1.21c-2.45,1.73-2.36,5.47-1.21,8.24s3.06,5.3,3.48,8.27c.19,1.32.07,2.68.31,4a11.06,11.06,0,0,0,2.32,4.64c1.83,2.37,4.24,4.47,7.17,5.1s6.38-.6,7.61-3.33a1.7,1.7,0,0,0,0-1.62,2,2,0,0,0-1.31-.65l-4-.83a3.44,3.44,0,0,1-1.64-.65c-1.07-1-.51-2.84.65-3.69a13.31,13.31,0,0,1,4-1.46,11,11,0,0,0,7-7c1.36-4.17.11-8.8,1.2-13" transform="translate(-477.08 -472.33)"/><path d="M510.74,610a5.28,5.28,0,0,0-5.18-7.91,7.31,7.31,0,0,0-2.54,1c-1.15.61-2.09-.27-3.24-.53a7.24,7.24,0,0,0-6,1.56,4.52,4.52,0,0,1-3.07.91,6.08,6.08,0,0,0-3,.52c-1.8,1-2.2,3.13-4,4.12-3.58,2-4.09,6.21-2.74,9.83.8,2.17,2.13,4.09,3,6.24.9,2.31.44,4.77,1.14,7.11a15.63,15.63,0,0,0,8.54,9.32c3.46,1.41,7.94.7,10.16-2.54,1.06-1.54,1.37-3.77-.63-4.67a15,15,0,0,0-3.11-.74c-.71-.15-2.89-.23-3.06-1.11-.22-1.18,1.39-1.82,2.22-2.08a27,27,0,0,0,3.41-1.08,12.47,12.47,0,0,0,5.17-4.4c3.27-4.84,1.36-10.63,2.61-16,.37-1.57-2-2.23-2.41-.67-1,4.28.19,8.86-1.2,13a9.7,9.7,0,0,1-3.05,4.38,13,13,0,0,1-5,2.23,5.6,5.6,0,0,0-3.81,2.73,3.35,3.35,0,0,0,.63,4.08c1.39,1.19,3.89,1.25,5.61,1.62.35.07.89.08,1,.37s-.37.82-.51,1a4.86,4.86,0,0,1-1.93,1.49c-3.58,1.59-7.18-.66-9.52-3.3a11,11,0,0,1-2.87-5.15c-.37-2-.12-4-.81-6-1.19-3.41-4-6.51-3.7-10.31a4.3,4.3,0,0,1,.69-2.12,7,7,0,0,1,2.15-1.57,5.87,5.87,0,0,0,1.66-1.67c.44-.64.79-1.58,1.49-2,.85-.5,2.07-.21,3-.28a5.66,5.66,0,0,0,2.73-.89,9,9,0,0,1,2.77-1.61,5.09,5.09,0,0,1,3.25.49,3.79,3.79,0,0,0,2.75.19c1-.32,1.69-1.08,2.73-1.14a2.76,2.76,0,0,1,2.51,4.2,1.25,1.25,0,0,0,2.16,1.26Z" transform="translate(-477.08 -472.33)"/><path class="cls-13" d="M503.84,611.11a8.43,8.43,0,0,1,2.62,13.6,14.88,14.88,0,0,1-2.15,1.72c-2.39,1.62-5.24,3-8.07,2.44-3.57-.75-5.83-4.54-6-8.18a7.57,7.57,0,0,1,.6-3.65c1-2.13,3.3-3.36,5.56-4s4.65-.81,6.88-1.56" transform="translate(-477.08 -472.33)"/><path d="M503.21,612.19a7.32,7.32,0,0,1,4.36,7.34c-.38,3.6-3.37,5.84-6.42,7.31a7.23,7.23,0,0,1-5.07.7,5.9,5.9,0,0,1-3.11-2.41c-1.59-2.36-2.42-6.34-.3-8.64,2.71-2.94,7.38-2.65,10.92-3.8,1.52-.49.87-2.91-.67-2.41-4,1.32-8.91,1.08-12,4.44-2.79,3-2.37,7.9-.37,11.24a8.35,8.35,0,0,0,10.08,3.78c4-1.33,8-4.26,9.15-8.45a9.76,9.76,0,0,0-5.3-11.26c-1.45-.67-2.72,1.48-1.26,2.16Z" transform="translate(-477.08 -472.33)"/><path class="cls-14" d="M513.55,619.37a11,11,0,0,0-6-9.54,15.46,15.46,0,0,0-19.13,5,12.41,12.41,0,0,0,17.37,17.07C509.53,628.48,513.47,624.43,513.55,619.37Zm-12.26,9.44a6.06,6.06,0,0,1-4.49-.52,4.93,4.93,0,0,1-1.84-1.58,6.43,6.43,0,0,1-2.5-3.6c0-.12,0-.24-.07-.35a6.09,6.09,0,0,1-.56-2.43l.18-1.52a6.14,6.14,0,0,1,2.73-3.69,10.83,10.83,0,0,1,2.42-1.18,10.12,10.12,0,0,1,1.65-.75,7.12,7.12,0,0,1,7,1.49,7.58,7.58,0,0,1,2.34,5.4C508.23,624.3,505.12,627.55,501.29,628.81Z" transform="translate(-477.08 -472.33)"/><path d="M514.8,619.37c0-6.34-5.21-11.26-11.29-12.12s-13,1.89-16.33,7.28a14.2,14.2,0,0,0,.62,15.17,13.85,13.85,0,0,0,15.12,4.95c3.37-1,5.75-3.45,7.94-6.1a15.29,15.29,0,0,0,3.94-9.18c.06-1.61-2.44-1.61-2.5,0a12.13,12.13,0,0,1-2.82,6.92c-1.42,1.84-3.28,4.12-5.37,5.21a11.58,11.58,0,0,1-13-1.76,11.7,11.7,0,0,1-2.66-12.09c1.74-4.84,7.05-7.78,12-8,5.8-.31,11.83,3.47,11.86,9.76A1.25,1.25,0,0,0,514.8,619.37Z" transform="translate(-477.08 -472.33)"/><path d="M501,627.6a4.86,4.86,0,0,1-4.3-.87c-.49-.41-.9-.92-1.38-1.36a5.55,5.55,0,0,1-1.29-1.68,15.9,15.9,0,0,1-.65-1.91,5.14,5.14,0,0,1-.11-2.67,4.94,4.94,0,0,1,2.4-3.08,25.29,25.29,0,0,1,2.3-1.08,7.54,7.54,0,0,1,2.34-.84,6.06,6.06,0,0,1,3.62.68,6.34,6.34,0,0,1,2.85,7A8.57,8.57,0,0,1,501,627.6c-1.52.52-.86,2.93.66,2.41a11.3,11.3,0,0,0,7.34-6.89,9,9,0,0,0-3-10,8.33,8.33,0,0,0-5.06-1.56,7.68,7.68,0,0,0-2.68.51A30.9,30.9,0,0,0,495,613.5a8.14,8.14,0,0,0-4,4.27c-.74,2-.28,4,.32,5.92a7.64,7.64,0,0,0,1.51,2.75,12.28,12.28,0,0,0,1.17,1.11c.36.35.67.77,1.07,1.1a7.35,7.35,0,0,0,6.54,1.36A1.25,1.25,0,0,0,501,627.6Z" transform="translate(-477.08 -472.33)"/><path class="cls-14" d="M533.53,614.7c-.28-.71.88-1.77.19-2.08a4.49,4.49,0,0,1-2.36.65.83.83,0,0,1-.56-.17c-.54-.51.53-1.81-.19-2L524.07,617a4.61,4.61,0,0,1-3.06,1.58c-1.36,0-2.35-1.22-3.31-2.17a15.22,15.22,0,0,0-6.88-4l2.64,1.14c.1,1.87.21,3.74.31,5.61a1.4,1.4,0,0,0,.2.78c.27.38.81.39,1.27.43a5.14,5.14,0,0,1,3.48,1.88,8.07,8.07,0,0,0,1.65,2c1.33.84,3,.07,4.39-.73l.87-.55A4,4,0,0,1,525,620a4.84,4.84,0,0,1,3-3.22,11,11,0,0,1,4.51-1.06,1.47,1.47,0,0,1,1,.35h0a1.46,1.46,0,0,1,.9.66l1-.79c.35-.29.72-.66.68-1.11C535.13,614.61,533.85,615.53,533.53,614.7Z" transform="translate(-477.08 -472.33)"/><path d="M534.74,614.37c-.06-.29.45-1,.44-1.39a1.66,1.66,0,0,0-.83-1.44,1.26,1.26,0,0,0-1.26,0,3.87,3.87,0,0,1-.84.36c-.09,0-.88.08-.89.12l.53.63.06-.23a1.5,1.5,0,0,0,.13-.6,1.66,1.66,0,0,0-.84-1.81,1.3,1.3,0,0,0-1.51.19l-5.09,4.57c-1.23,1.11-2.94,3.36-4.69,2-1.34-1-2.38-2.34-3.78-3.3a16.82,16.82,0,0,0-5-2.3c-1.32-.37-2.29,1.71-1,2.29l2.64,1.14-.62-1.08.21,3.74a11.53,11.53,0,0,0,.22,2.75c.6,1.93,3,1.3,4.37,2.29,1.56,1.13,1.92,3.1,4.09,3.44,1.88.29,3.65-.8,5.17-1.76a1.27,1.27,0,0,0,.44-1.71c-1.19-1.91-.13-3.46,1.7-4.35a10,10,0,0,1,2.93-.88,3.26,3.26,0,0,1,1.43.1,1.24,1.24,0,0,0,.63.17c-.29-.05-.27,0,.06.29a1.26,1.26,0,0,0,1.76,0c1-.81,1.86-1.43,2-2.78a1.25,1.25,0,0,0-.92-1.2,3.84,3.84,0,0,0-1.22,0c-.2,0-.39.06-.59.11-.42,0-.39.14.1.35-.85-1.36-3-.11-2.16,1.26a1.83,1.83,0,0,0,1.43.95c.59.07,1.21-.31,1.77-.23l-.91-1.21c0,.16-1.12.88-1.28,1h1.76a2.77,2.77,0,0,0-1-.78c-.12-.07-1-.4-.68-.25s.21,0-.14-.13a1.5,1.5,0,0,0-.65-.17,5.35,5.35,0,0,0-1.2,0,12.35,12.35,0,0,0-4.75,1.42c-2.87,1.56-4.09,4.73-2.29,7.61l.44-1.71c-1,.64-2.76,2-4,1.28-.6-.35-1-1.24-1.41-1.76a6.39,6.39,0,0,0-1.49-1.3,6.32,6.32,0,0,0-1.81-.78,5.57,5.57,0,0,0-1.06-.17c-.51,0-.2.11-.23-.19-.22-1.77-.2-3.6-.3-5.38a1.28,1.28,0,0,0-.62-1.08l-2.64-1.14-1,2.28a14.32,14.32,0,0,1,5.75,3.1c1.33,1.2,2.49,2.82,4.41,3,2.08.25,3.61-1.28,5-2.56L531.5,612l-1.52.2c-.7-.37-.26-.92-.5-.18a2.46,2.46,0,0,0-.08.77,1.8,1.8,0,0,0,.77,1.42c1.18.82,3.07.12,4.18-.48h-1.26c-.34-.24-.15-.83-.49-.58-.13.09-.22.53-.26.67a2.6,2.6,0,0,0,0,1.24C532.63,616.61,535,615.94,534.74,614.37Z" transform="translate(-477.08 -472.33)"/><path d="M502.07,605.24c.05.11.1.21.14.32s0,.06,0,0a.36.36,0,0,0,0,.09.58.58,0,0,0,.05.14,5.12,5.12,0,0,1,.19.67,3.4,3.4,0,0,1,.07.34.34.34,0,0,1,0,.14c0-.08,0-.09,0,0s0,.07,0,.1q0,.35,0,.69a.63.63,0,0,0,.62.63.65.65,0,0,0,.63-.63,6.5,6.5,0,0,0-.73-3.08.62.62,0,0,0-.85-.22.63.63,0,0,0-.22.85Z" transform="translate(-477.08 -472.33)"/><path d="M492.8,607.53a2.37,2.37,0,0,1,.35.19l.09.07c-.05,0-.09-.07,0,0l.15.13.13.14s.06.08.07.08-.08-.11,0,0a2.56,2.56,0,0,1,.22.35l0,.09,0,0s0,0,0-.06.05.15.06.19.07.25.1.38,0-.15,0,0v.08a1.48,1.48,0,0,1,0,.21c0,.07,0,.13,0,.2s0-.14,0,0,0,.08,0,.12a.63.63,0,0,0,.44.77.65.65,0,0,0,.77-.44,3.25,3.25,0,0,0-1.73-3.55.63.63,0,0,0-.63,1.08Z" transform="translate(-477.08 -472.33)"/></svg>